<?xml version="1.0" encoding="UTF-8" standalone="no"?>
<!-- Created with Inkscape (http://www.inkscape.org/) -->

<svg
   width="300mm"
   height="200mm"
   viewBox="0 0 300 200"
   version="1.1"
   id="svg1"
   xml:space="preserve"
   inkscape:version="1.3.2 (091e20e, 2023-11-25)"
   sodipodi:docname="irkem_clavControlGuts_v1.svg"
   xmlns:inkscape="http://www.inkscape.org/namespaces/inkscape"
   xmlns:sodipodi="http://sodipodi.sourceforge.net/DTD/sodipodi-0.dtd"
   xmlns="http://www.w3.org/2000/svg"
   xmlns:svg="http://www.w3.org/2000/svg"><sodipodi:namedview
     id="namedview1"
     pagecolor="#ffffff"
     bordercolor="#000000"
     borderopacity="0.25"
     inkscape:showpageshadow="2"
     inkscape:pageopacity="0.0"
     inkscape:pagecheckerboard="0"
     inkscape:deskcolor="#d1d1d1"
     inkscape:document-units="mm"
     showgrid="true"
     inkscape:zoom="1.2502642"
     inkscape:cx="515.89096"
     inkscape:cy="385.1186"
     inkscape:window-width="2464"
     inkscape:window-height="1204"
     inkscape:window-x="0"
     inkscape:window-y="25"
     inkscape:window-maximized="0"
     inkscape:current-layer="layer1"><inkscape:grid
       id="grid1"
       units="mm"
       originx="0"
       originy="0"
       spacingx="0.99999999"
       spacingy="0.99999999"
       empcolor="#0099e5"
       empopacity="0.30196078"
       color="#0099e5"
       opacity="0.14901961"
       empspacing="10"
       dotted="false"
       gridanglex="30"
       gridanglez="30"
       visible="true" /></sodipodi:namedview><defs
     id="defs1" /><g
     inkscape:label="Layer 1"
     inkscape:groupmode="layer"
     id="layer1"><g
       id="g6"
       transform="translate(2.2225895,-20.738277)"><path
         style="display:inline;fill:none;stroke:#ff0000;stroke-width:0.2"
         id="path1"
         sodipodi:type="arc"
         sodipodi:cx="117.36621"
         sodipodi:cy="30.17868"
         sodipodi:rx="2.8"
         sodipodi:ry="2.8"
         sodipodi:start="5.6594481"
         sodipodi:end="5.6591686"
         sodipodi:open="true"
         sodipodi:arc-type="arc"
         d="m 119.63897,28.543277 a 2.8,2.8 0 0 1 -0.6372,3.908053 2.8,2.8 0 0 1 -3.90809,-0.636928 2.8,2.8 0 0 1 0.63665,-3.908142 2.8,2.8 0 0 1 3.90819,0.636382" /><path
         style="display:inline;fill:none;stroke:#ff0000;stroke-width:0.2"
         id="path1-2"
         sodipodi:type="arc"
         sodipodi:cx="117.41521"
         sodipodi:cy="64.83622"
         sodipodi:rx="2.8"
         sodipodi:ry="2.8"
         sodipodi:start="5.6594481"
         sodipodi:end="5.6591686"
         sodipodi:open="true"
         sodipodi:arc-type="arc"
         d="m 119.68797,63.200816 a 2.8,2.8 0 0 1 -0.6372,3.908053 2.8,2.8 0 0 1 -3.9081,-0.636928 2.8,2.8 0 0 1 0.63666,-3.908142 2.8,2.8 0 0 1 3.90818,0.636382" /><path
         style="fill:none;stroke:#ff0000;stroke-width:0.2"
         id="path1-3"
         sodipodi:type="arc"
         sodipodi:cx="83.965889"
         sodipodi:cy="-9.0481863"
         sodipodi:rx="4"
         sodipodi:ry="3"
         sodipodi:start="5.6594481"
         sodipodi:end="5.6591686"
         sodipodi:open="true"
         sodipodi:arc-type="arc"
         d="m 87.212694,-10.800404 a 4,3 0 0 1 -0.910287,4.1871992 4,3 0 0 1 -5.582997,-0.682423 4,3 0 0 1 0.909508,-4.1872952 4,3 0 0 1 5.583123,0.681838"
         transform="rotate(27.218068)" /><path
         style="fill:none;stroke:#ff0000;stroke-width:0.2"
         id="path1-3-5"
         sodipodi:type="arc"
         sodipodi:cx="40.501873"
         sodipodi:cy="28.749933"
         sodipodi:rx="4"
         sodipodi:ry="3"
         sodipodi:start="5.6594481"
         sodipodi:end="5.6591686"
         sodipodi:open="true"
         sodipodi:arc-type="arc"
         d="m 43.748678,26.997715 a 4,3 0 0 1 -0.910287,4.1872 4,3 0 0 1 -5.582997,-0.682423 4,3 0 0 1 0.909508,-4.187295 4,3 0 0 1 5.583123,0.681838"
         transform="rotate(1.5547059)" /><path
         style="display:inline;fill:none;stroke:#ff0000;stroke-width:0.2"
         id="path1-1"
         sodipodi:type="arc"
         sodipodi:cx="2.4268115"
         sodipodi:cy="28.933716"
         sodipodi:rx="2.8"
         sodipodi:ry="2.8"
         sodipodi:start="5.6594481"
         sodipodi:end="5.6591686"
         sodipodi:open="true"
         sodipodi:arc-type="arc"
         d="M 4.6995751,27.298312 A 2.8,2.8 0 0 1 4.0623739,31.206365 2.8,2.8 0 0 1 0.15427634,30.569437 2.8,2.8 0 0 1 0.79093145,26.661295 2.8,2.8 0 0 1 4.699118,27.297677" /><path
         style="display:inline;fill:none;stroke:#ff0000;stroke-width:0.2"
         id="path1-1-8"
         sodipodi:type="arc"
         sodipodi:cx="2.729069"
         sodipodi:cy="65.280098"
         sodipodi:rx="2.8"
         sodipodi:ry="2.8"
         sodipodi:start="5.6594481"
         sodipodi:end="5.6591686"
         sodipodi:open="true"
         sodipodi:arc-type="arc"
         d="M 5.0018327,63.644694 A 2.8,2.8 0 0 1 4.3646314,67.552747 2.8,2.8 0 0 1 0.45653388,66.915819 2.8,2.8 0 0 1 1.093189,63.007677 2.8,2.8 0 0 1 5.0013755,63.644059" /><path
         style="display:inline;fill:none;stroke:#ff0000;stroke-width:0.2"
         id="path1-4"
         sodipodi:type="arc"
         sodipodi:cx="5.6814365"
         sodipodi:cy="94.447784"
         sodipodi:rx="2.8"
         sodipodi:ry="2.8"
         sodipodi:start="5.6594481"
         sodipodi:end="5.6591686"
         sodipodi:open="true"
         sodipodi:arc-type="arc"
         d="M 7.9542002,92.812381 A 2.8,2.8 0 0 1 7.316999,96.720434 2.8,2.8 0 0 1 3.4089014,96.083506 2.8,2.8 0 0 1 4.0455565,92.175364 2.8,2.8 0 0 1 7.953743,92.811746" /><path
         style="fill:none;stroke:#ff0000;stroke-width:0.2"
         d="M 0.27801313,89.937248 V 35.307666 L 0,32.80555 l -0.13900663,-2.919138 -9e-8,-5.838275 2.50211832,-0.278013 5.699269,-3e-6 5.6992694,5.143244 14.317677,-0.139007 1.529072,-0.695031 1.529072,-0.834041 1.112051,-1.946091 0.973048,-1.390066 1.251058,-0.973046 1.807086,-0.556026 41.701968,-0.139007 1.807086,0.83404 1.668079,1.807085 0.278013,1.390066 0.417021,0.834038 1.112051,0.695034 1.390065,0.695034 1.112052,0.278011 24.326141,-0.139007 3.33617,-5.143241 6.53331,1e-6 v 47.401238 h -6.53331 l -3.89219,-4.170197 -0.27801,-4.587217 -3.89218,-3.19715 -73.256463,-0.139007 -1.668079,0.556026 -0.556026,0.695033 -0.278013,1.112052 0.139006,3.892184 -0.139006,29.886412 -0.41702,2.085098 -1.112053,1.529073 -2.502118,0.973045 -1.112052,0.278014 L 8.0623808,99.667708 5.8382758,99.250688 3.7531773,98.277642 1.9460919,96.470557 0.97304596,94.663472 0.4170197,92.439367 Z"
         id="path2"
         sodipodi:nodetypes="cccccccccccccccccccccccccccccccccccccccccccccccc" /><rect
         style="fill:none;stroke:#ff0000;stroke-width:0.200194"
         id="rect5"
         width="71.171173"
         height="18.626684"
         x="33.500675"
         y="34.639595"
         ry="7.8517866" /><rect
         style="fill:none;stroke:#ff0000;stroke-width:0.201897"
         id="rect6"
         width="19"
         height="57.24575"
         x="7.6194491"
         y="32.968567"
         ry="3.3346405" /><path
         style="fill:none;stroke:#ff0000;stroke-width:0.2"
         id="path6"
         sodipodi:type="arc"
         sodipodi:cx="31.099585"
         sodipodi:cy="43.578556"
         sodipodi:rx="2"
         sodipodi:ry="2"
         sodipodi:start="5.6594481"
         sodipodi:end="5.6591686"
         sodipodi:open="true"
         sodipodi:arc-type="arc"
         d="m 32.722987,42.410411 a 2,2 0 0 1 -0.455144,2.791466 2,2 0 0 1 -2.791498,-0.454949 2,2 0 0 1 0.454754,-2.79153 2,2 0 0 1 2.791562,0.454559" /><path
         style="fill:none;stroke:#ff0000;stroke-width:0.2"
         id="path6-3"
         sodipodi:type="arc"
         sodipodi:cx="107.09959"
         sodipodi:cy="44.208622"
         sodipodi:rx="2"
         sodipodi:ry="2"
         sodipodi:start="5.6594481"
         sodipodi:end="5.6591686"
         sodipodi:open="true"
         sodipodi:arc-type="arc"
         d="m 108.72299,43.040477 a 2,2 0 0 1 -0.45514,2.791466 2,2 0 0 1 -2.7915,-0.454949 2,2 0 0 1 0.45475,-2.79153 2,2 0 0 1 2.79156,0.454559" /></g><g
       id="g6-3"
       transform="rotate(180,77.223943,55.296023)"><path
         style="display:inline;fill:none;stroke:#ff0000;stroke-width:0.2"
         id="path1-7"
         sodipodi:type="arc"
         sodipodi:cx="117.36621"
         sodipodi:cy="30.17868"
         sodipodi:rx="2.8"
         sodipodi:ry="2.8"
         sodipodi:start="5.6594481"
         sodipodi:end="5.6591686"
         sodipodi:open="true"
         sodipodi:arc-type="arc"
         d="m 119.63897,28.543277 a 2.8,2.8 0 0 1 -0.6372,3.908053 2.8,2.8 0 0 1 -3.90809,-0.636928 2.8,2.8 0 0 1 0.63665,-3.908142 2.8,2.8 0 0 1 3.90819,0.636382" /><path
         style="display:inline;fill:none;stroke:#ff0000;stroke-width:0.2"
         id="path1-2-5"
         sodipodi:type="arc"
         sodipodi:cx="117.41521"
         sodipodi:cy="64.83622"
         sodipodi:rx="2.8"
         sodipodi:ry="2.8"
         sodipodi:start="5.6594481"
         sodipodi:end="5.6591686"
         sodipodi:open="true"
         sodipodi:arc-type="arc"
         d="m 119.68797,63.200816 a 2.8,2.8 0 0 1 -0.6372,3.908053 2.8,2.8 0 0 1 -3.9081,-0.636928 2.8,2.8 0 0 1 0.63666,-3.908142 2.8,2.8 0 0 1 3.90818,0.636382" /><path
         style="fill:none;stroke:#ff0000;stroke-width:0.2"
         id="path1-3-0"
         sodipodi:type="arc"
         sodipodi:cx="83.965889"
         sodipodi:cy="-9.0481863"
         sodipodi:rx="4"
         sodipodi:ry="3"
         sodipodi:start="5.6594481"
         sodipodi:end="5.6591686"
         sodipodi:open="true"
         sodipodi:arc-type="arc"
         d="m 87.212694,-10.800404 a 4,3 0 0 1 -0.910287,4.1871992 4,3 0 0 1 -5.582997,-0.682423 4,3 0 0 1 0.909508,-4.1872952 4,3 0 0 1 5.583123,0.681838"
         transform="rotate(27.218068)" /><path
         style="fill:none;stroke:#ff0000;stroke-width:0.2"
         id="path1-3-5-2"
         sodipodi:type="arc"
         sodipodi:cx="40.501873"
         sodipodi:cy="28.749933"
         sodipodi:rx="4"
         sodipodi:ry="3"
         sodipodi:start="5.6594481"
         sodipodi:end="5.6591686"
         sodipodi:open="true"
         sodipodi:arc-type="arc"
         d="m 43.748678,26.997715 a 4,3 0 0 1 -0.910287,4.1872 4,3 0 0 1 -5.582997,-0.682423 4,3 0 0 1 0.909508,-4.187295 4,3 0 0 1 5.583123,0.681838"
         transform="rotate(1.5547059)" /><path
         style="display:inline;fill:none;stroke:#ff0000;stroke-width:0.2"
         id="path1-1-1"
         sodipodi:type="arc"
         sodipodi:cx="2.4268115"
         sodipodi:cy="28.933716"
         sodipodi:rx="2.8"
         sodipodi:ry="2.8"
         sodipodi:start="5.6594481"
         sodipodi:end="5.6591686"
         sodipodi:open="true"
         sodipodi:arc-type="arc"
         d="M 4.6995751,27.298312 A 2.8,2.8 0 0 1 4.0623739,31.206365 2.8,2.8 0 0 1 0.15427634,30.569437 2.8,2.8 0 0 1 0.79093145,26.661295 2.8,2.8 0 0 1 4.699118,27.297677" /><path
         style="display:inline;fill:none;stroke:#ff0000;stroke-width:0.2"
         id="path1-1-8-8"
         sodipodi:type="arc"
         sodipodi:cx="2.729069"
         sodipodi:cy="65.280098"
         sodipodi:rx="2.8"
         sodipodi:ry="2.8"
         sodipodi:start="5.6594481"
         sodipodi:end="5.6591686"
         sodipodi:open="true"
         sodipodi:arc-type="arc"
         d="M 5.0018327,63.644694 A 2.8,2.8 0 0 1 4.3646314,67.552747 2.8,2.8 0 0 1 0.45653388,66.915819 2.8,2.8 0 0 1 1.093189,63.007677 2.8,2.8 0 0 1 5.0013755,63.644059" /><path
         style="display:inline;fill:none;stroke:#ff0000;stroke-width:0.2"
         id="path1-4-7"
         sodipodi:type="arc"
         sodipodi:cx="5.6814365"
         sodipodi:cy="94.447784"
         sodipodi:rx="2.8"
         sodipodi:ry="2.8"
         sodipodi:start="5.6594481"
         sodipodi:end="5.6591686"
         sodipodi:open="true"
         sodipodi:arc-type="arc"
         d="M 7.9542002,92.812381 A 2.8,2.8 0 0 1 7.316999,96.720434 2.8,2.8 0 0 1 3.4089014,96.083506 2.8,2.8 0 0 1 4.0455565,92.175364 2.8,2.8 0 0 1 7.953743,92.811746" /><path
         style="fill:none;stroke:#ff0000;stroke-width:0.2"
         d="M 0.27801313,89.937248 V 35.307666 L 0,32.80555 l -0.13900663,-2.919138 -9e-8,-5.838275 2.50211832,-0.278013 5.699269,-3e-6 5.6992694,5.143244 14.317677,-0.139007 1.529072,-0.695031 1.529072,-0.834041 1.112051,-1.946091 0.973048,-1.390066 1.251058,-0.973046 1.807086,-0.556026 41.701968,-0.139007 1.807086,0.83404 1.668079,1.807085 0.278013,1.390066 0.417021,0.834038 1.112051,0.695034 1.390065,0.695034 1.112052,0.278011 24.326141,-0.139007 3.33617,-5.143241 6.53331,1e-6 v 47.401238 h -6.53331 l -3.89219,-4.170197 -0.27801,-4.587217 -3.89218,-3.19715 -73.256463,-0.139007 -1.668079,0.556026 -0.556026,0.695033 -0.278013,1.112052 0.139006,3.892184 -0.139006,29.886412 -0.41702,2.085098 -1.112053,1.529073 -2.502118,0.973045 -1.112052,0.278014 L 8.0623808,99.667708 5.8382758,99.250688 3.7531773,98.277642 1.9460919,96.470557 0.97304596,94.663472 0.4170197,92.439367 Z"
         id="path2-1"
         sodipodi:nodetypes="cccccccccccccccccccccccccccccccccccccccccccccccc" /><rect
         style="fill:none;stroke:#ff0000;stroke-width:0.200194"
         id="rect5-5"
         width="71.171173"
         height="18.626684"
         x="33.500675"
         y="34.639595"
         ry="7.8517866" /><rect
         style="fill:none;stroke:#ff0000;stroke-width:0.201897"
         id="rect6-5"
         width="19"
         height="57.24575"
         x="7.6194491"
         y="32.968567"
         ry="3.3346405" /><path
         style="fill:none;stroke:#ff0000;stroke-width:0.2"
         id="path6-8"
         sodipodi:type="arc"
         sodipodi:cx="31.099585"
         sodipodi:cy="43.578556"
         sodipodi:rx="2"
         sodipodi:ry="2"
         sodipodi:start="5.6594481"
         sodipodi:end="5.6591686"
         sodipodi:open="true"
         sodipodi:arc-type="arc"
         d="m 32.722987,42.410411 a 2,2 0 0 1 -0.455144,2.791466 2,2 0 0 1 -2.791498,-0.454949 2,2 0 0 1 0.454754,-2.79153 2,2 0 0 1 2.791562,0.454559" /><path
         style="fill:none;stroke:#ff0000;stroke-width:0.2"
         id="path6-3-5"
         sodipodi:type="arc"
         sodipodi:cx="107.09959"
         sodipodi:cy="44.208622"
         sodipodi:rx="2"
         sodipodi:ry="2"
         sodipodi:start="5.6594481"
         sodipodi:end="5.6591686"
         sodipodi:open="true"
         sodipodi:arc-type="arc"
         d="m 108.72299,43.040477 a 2,2 0 0 1 -0.45514,2.791466 2,2 0 0 1 -2.7915,-0.454949 2,2 0 0 1 0.45475,-2.79153 2,2 0 0 1 2.79156,0.454559" /></g><g
       id="g6-9"
       transform="translate(2.2842543,66.958345)"><path
         style="display:inline;fill:none;stroke:#ff0000;stroke-width:0.2"
         id="path1-14"
         sodipodi:type="arc"
         sodipodi:cx="117.36621"
         sodipodi:cy="30.17868"
         sodipodi:rx="2.8"
         sodipodi:ry="2.8"
         sodipodi:start="5.6594481"
         sodipodi:end="5.6591686"
         sodipodi:open="true"
         sodipodi:arc-type="arc"
         d="m 119.63897,28.543277 a 2.8,2.8 0 0 1 -0.6372,3.908053 2.8,2.8 0 0 1 -3.90809,-0.636928 2.8,2.8 0 0 1 0.63665,-3.908142 2.8,2.8 0 0 1 3.90819,0.636382" /><path
         style="display:inline;fill:none;stroke:#ff0000;stroke-width:0.2"
         id="path1-2-8"
         sodipodi:type="arc"
         sodipodi:cx="117.41521"
         sodipodi:cy="64.83622"
         sodipodi:rx="2.8"
         sodipodi:ry="2.8"
         sodipodi:start="5.6594481"
         sodipodi:end="5.6591686"
         sodipodi:open="true"
         sodipodi:arc-type="arc"
         d="m 119.68797,63.200816 a 2.8,2.8 0 0 1 -0.6372,3.908053 2.8,2.8 0 0 1 -3.9081,-0.636928 2.8,2.8 0 0 1 0.63666,-3.908142 2.8,2.8 0 0 1 3.90818,0.636382" /><path
         style="fill:none;stroke:#ff0000;stroke-width:0.2"
         id="path1-3-8"
         sodipodi:type="arc"
         sodipodi:cx="83.965889"
         sodipodi:cy="-9.0481863"
         sodipodi:rx="4"
         sodipodi:ry="3"
         sodipodi:start="5.6594481"
         sodipodi:end="5.6591686"
         sodipodi:open="true"
         sodipodi:arc-type="arc"
         d="m 87.212694,-10.800404 a 4,3 0 0 1 -0.910287,4.1871992 4,3 0 0 1 -5.582997,-0.682423 4,3 0 0 1 0.909508,-4.1872952 4,3 0 0 1 5.583123,0.681838"
         transform="rotate(27.218068)" /><path
         style="fill:none;stroke:#ff0000;stroke-width:0.2"
         id="path1-3-5-7"
         sodipodi:type="arc"
         sodipodi:cx="40.501873"
         sodipodi:cy="28.749933"
         sodipodi:rx="4"
         sodipodi:ry="3"
         sodipodi:start="5.6594481"
         sodipodi:end="5.6591686"
         sodipodi:open="true"
         sodipodi:arc-type="arc"
         d="m 43.748678,26.997715 a 4,3 0 0 1 -0.910287,4.1872 4,3 0 0 1 -5.582997,-0.682423 4,3 0 0 1 0.909508,-4.187295 4,3 0 0 1 5.583123,0.681838"
         transform="rotate(1.5547059)" /><path
         style="display:inline;fill:none;stroke:#ff0000;stroke-width:0.2"
         id="path1-1-19"
         sodipodi:type="arc"
         sodipodi:cx="2.4268115"
         sodipodi:cy="28.933716"
         sodipodi:rx="2.8"
         sodipodi:ry="2.8"
         sodipodi:start="5.6594481"
         sodipodi:end="5.6591686"
         sodipodi:open="true"
         sodipodi:arc-type="arc"
         d="M 4.6995751,27.298312 A 2.8,2.8 0 0 1 4.0623739,31.206365 2.8,2.8 0 0 1 0.15427634,30.569437 2.8,2.8 0 0 1 0.79093145,26.661295 2.8,2.8 0 0 1 4.699118,27.297677" /><path
         style="display:inline;fill:none;stroke:#ff0000;stroke-width:0.2"
         id="path1-1-8-3"
         sodipodi:type="arc"
         sodipodi:cx="2.729069"
         sodipodi:cy="65.280098"
         sodipodi:rx="2.8"
         sodipodi:ry="2.8"
         sodipodi:start="5.6594481"
         sodipodi:end="5.6591686"
         sodipodi:open="true"
         sodipodi:arc-type="arc"
         d="M 5.0018327,63.644694 A 2.8,2.8 0 0 1 4.3646314,67.552747 2.8,2.8 0 0 1 0.45653388,66.915819 2.8,2.8 0 0 1 1.093189,63.007677 2.8,2.8 0 0 1 5.0013755,63.644059" /><path
         style="display:inline;fill:none;stroke:#ff0000;stroke-width:0.2"
         id="path1-4-1"
         sodipodi:type="arc"
         sodipodi:cx="5.6814365"
         sodipodi:cy="94.447784"
         sodipodi:rx="2.8"
         sodipodi:ry="2.8"
         sodipodi:start="5.6594481"
         sodipodi:end="5.6591686"
         sodipodi:open="true"
         sodipodi:arc-type="arc"
         d="M 7.9542002,92.812381 A 2.8,2.8 0 0 1 7.316999,96.720434 2.8,2.8 0 0 1 3.4089014,96.083506 2.8,2.8 0 0 1 4.0455565,92.175364 2.8,2.8 0 0 1 7.953743,92.811746" /><path
         style="fill:none;stroke:#ff0000;stroke-width:0.2"
         d="M 0.27801313,89.937248 V 35.307666 L 0,32.80555 l -0.13900663,-2.919138 -9e-8,-5.838275 2.50211832,-0.278013 5.699269,-3e-6 5.6992694,5.143244 14.317677,-0.139007 1.529072,-0.695031 1.529072,-0.834041 1.112051,-1.946091 0.973048,-1.390066 1.251058,-0.973046 1.807086,-0.556026 41.701968,-0.139007 1.807086,0.83404 1.668079,1.807085 0.278013,1.390066 0.417021,0.834038 1.112051,0.695034 1.390065,0.695034 1.112052,0.278011 24.326141,-0.139007 3.33617,-5.143241 6.53331,1e-6 v 47.401238 h -6.53331 l -3.89219,-4.170197 -0.27801,-4.587217 -3.89218,-3.19715 -73.256463,-0.139007 -1.668079,0.556026 -0.556026,0.695033 -0.278013,1.112052 0.139006,3.892184 -0.139006,29.886412 -0.41702,2.085098 -1.112053,1.529073 -2.502118,0.973045 -1.112052,0.278014 L 8.0623808,99.667708 5.8382758,99.250688 3.7531773,98.277642 1.9460919,96.470557 0.97304596,94.663472 0.4170197,92.439367 Z"
         id="path2-14"
         sodipodi:nodetypes="cccccccccccccccccccccccccccccccccccccccccccccccc" /><rect
         style="fill:none;stroke:#ff0000;stroke-width:0.200194"
         id="rect5-9"
         width="71.171173"
         height="18.626684"
         x="33.500675"
         y="34.639595"
         ry="7.8517866" /><rect
         style="fill:none;stroke:#ff0000;stroke-width:0.201897"
         id="rect6-59"
         width="19"
         height="57.24575"
         x="7.6194491"
         y="32.968567"
         ry="3.3346405" /><path
         style="fill:none;stroke:#ff0000;stroke-width:0.2"
         id="path6-0"
         sodipodi:type="arc"
         sodipodi:cx="31.099585"
         sodipodi:cy="43.578556"
         sodipodi:rx="2"
         sodipodi:ry="2"
         sodipodi:start="5.6594481"
         sodipodi:end="5.6591686"
         sodipodi:open="true"
         sodipodi:arc-type="arc"
         d="m 32.722987,42.410411 a 2,2 0 0 1 -0.455144,2.791466 2,2 0 0 1 -2.791498,-0.454949 2,2 0 0 1 0.454754,-2.79153 2,2 0 0 1 2.791562,0.454559" /><path
         style="fill:none;stroke:#ff0000;stroke-width:0.2"
         id="path6-3-9"
         sodipodi:type="arc"
         sodipodi:cx="107.09959"
         sodipodi:cy="44.208622"
         sodipodi:rx="2"
         sodipodi:ry="2"
         sodipodi:start="5.6594481"
         sodipodi:end="5.6591686"
         sodipodi:open="true"
         sodipodi:arc-type="arc"
         d="m 108.72299,43.040477 a 2,2 0 0 1 -0.45514,2.791466 2,2 0 0 1 -2.7915,-0.454949 2,2 0 0 1 0.45475,-2.79153 2,2 0 0 1 2.79156,0.454559" /></g><g
       id="g6-3-3"
       transform="rotate(180,77.254775,99.144337)"><path
         style="display:inline;fill:none;stroke:#ff0000;stroke-width:0.2"
         id="path1-7-4"
         sodipodi:type="arc"
         sodipodi:cx="117.36621"
         sodipodi:cy="30.17868"
         sodipodi:rx="2.8"
         sodipodi:ry="2.8"
         sodipodi:start="5.6594481"
         sodipodi:end="5.6591686"
         sodipodi:open="true"
         sodipodi:arc-type="arc"
         d="m 119.63897,28.543277 a 2.8,2.8 0 0 1 -0.6372,3.908053 2.8,2.8 0 0 1 -3.90809,-0.636928 2.8,2.8 0 0 1 0.63665,-3.908142 2.8,2.8 0 0 1 3.90819,0.636382" /><path
         style="display:inline;fill:none;stroke:#ff0000;stroke-width:0.2"
         id="path1-2-5-0"
         sodipodi:type="arc"
         sodipodi:cx="117.41521"
         sodipodi:cy="64.83622"
         sodipodi:rx="2.8"
         sodipodi:ry="2.8"
         sodipodi:start="5.6594481"
         sodipodi:end="5.6591686"
         sodipodi:open="true"
         sodipodi:arc-type="arc"
         d="m 119.68797,63.200816 a 2.8,2.8 0 0 1 -0.6372,3.908053 2.8,2.8 0 0 1 -3.9081,-0.636928 2.8,2.8 0 0 1 0.63666,-3.908142 2.8,2.8 0 0 1 3.90818,0.636382" /><path
         style="fill:none;stroke:#ff0000;stroke-width:0.2"
         id="path1-3-0-7"
         sodipodi:type="arc"
         sodipodi:cx="83.965889"
         sodipodi:cy="-9.0481863"
         sodipodi:rx="4"
         sodipodi:ry="3"
         sodipodi:start="5.6594481"
         sodipodi:end="5.6591686"
         sodipodi:open="true"
         sodipodi:arc-type="arc"
         d="m 87.212694,-10.800404 a 4,3 0 0 1 -0.910287,4.1871992 4,3 0 0 1 -5.582997,-0.682423 4,3 0 0 1 0.909508,-4.1872952 4,3 0 0 1 5.583123,0.681838"
         transform="rotate(27.218068)" /><path
         style="fill:none;stroke:#ff0000;stroke-width:0.2"
         id="path1-3-5-2-5"
         sodipodi:type="arc"
         sodipodi:cx="40.501873"
         sodipodi:cy="28.749933"
         sodipodi:rx="4"
         sodipodi:ry="3"
         sodipodi:start="5.6594481"
         sodipodi:end="5.6591686"
         sodipodi:open="true"
         sodipodi:arc-type="arc"
         d="m 43.748678,26.997715 a 4,3 0 0 1 -0.910287,4.1872 4,3 0 0 1 -5.582997,-0.682423 4,3 0 0 1 0.909508,-4.187295 4,3 0 0 1 5.583123,0.681838"
         transform="rotate(1.5547059)" /><path
         style="display:inline;fill:none;stroke:#ff0000;stroke-width:0.2"
         id="path1-1-1-7"
         sodipodi:type="arc"
         sodipodi:cx="2.4268115"
         sodipodi:cy="28.933716"
         sodipodi:rx="2.8"
         sodipodi:ry="2.8"
         sodipodi:start="5.6594481"
         sodipodi:end="5.6591686"
         sodipodi:open="true"
         sodipodi:arc-type="arc"
         d="M 4.6995751,27.298312 A 2.8,2.8 0 0 1 4.0623739,31.206365 2.8,2.8 0 0 1 0.15427634,30.569437 2.8,2.8 0 0 1 0.79093145,26.661295 2.8,2.8 0 0 1 4.699118,27.297677" /><path
         style="display:inline;fill:none;stroke:#ff0000;stroke-width:0.2"
         id="path1-1-8-8-5"
         sodipodi:type="arc"
         sodipodi:cx="2.729069"
         sodipodi:cy="65.280098"
         sodipodi:rx="2.8"
         sodipodi:ry="2.8"
         sodipodi:start="5.6594481"
         sodipodi:end="5.6591686"
         sodipodi:open="true"
         sodipodi:arc-type="arc"
         d="M 5.0018327,63.644694 A 2.8,2.8 0 0 1 4.3646314,67.552747 2.8,2.8 0 0 1 0.45653388,66.915819 2.8,2.8 0 0 1 1.093189,63.007677 2.8,2.8 0 0 1 5.0013755,63.644059" /><path
         style="display:inline;fill:none;stroke:#ff0000;stroke-width:0.2"
         id="path1-4-7-0"
         sodipodi:type="arc"
         sodipodi:cx="5.6814365"
         sodipodi:cy="94.447784"
         sodipodi:rx="2.8"
         sodipodi:ry="2.8"
         sodipodi:start="5.6594481"
         sodipodi:end="5.6591686"
         sodipodi:open="true"
         sodipodi:arc-type="arc"
         d="M 7.9542002,92.812381 A 2.8,2.8 0 0 1 7.316999,96.720434 2.8,2.8 0 0 1 3.4089014,96.083506 2.8,2.8 0 0 1 4.0455565,92.175364 2.8,2.8 0 0 1 7.953743,92.811746" /><path
         style="fill:none;stroke:#ff0000;stroke-width:0.2"
         d="M 0.27801313,89.937248 V 35.307666 L 0,32.80555 l -0.13900663,-2.919138 -9e-8,-5.838275 2.50211832,-0.278013 5.699269,-3e-6 5.6992694,5.143244 14.317677,-0.139007 1.529072,-0.695031 1.529072,-0.834041 1.112051,-1.946091 0.973048,-1.390066 1.251058,-0.973046 1.807086,-0.556026 41.701968,-0.139007 1.807086,0.83404 1.668079,1.807085 0.278013,1.390066 0.417021,0.834038 1.112051,0.695034 1.390065,0.695034 1.112052,0.278011 24.326141,-0.139007 3.33617,-5.143241 6.53331,1e-6 v 47.401238 h -6.53331 l -3.89219,-4.170197 -0.27801,-4.587217 -3.89218,-3.19715 -73.256463,-0.139007 -1.668079,0.556026 -0.556026,0.695033 -0.278013,1.112052 0.139006,3.892184 -0.139006,29.886412 -0.41702,2.085098 -1.112053,1.529073 -2.502118,0.973045 -1.112052,0.278014 L 8.0623808,99.667708 5.8382758,99.250688 3.7531773,98.277642 1.9460919,96.470557 0.97304596,94.663472 0.4170197,92.439367 Z"
         id="path2-1-6"
         sodipodi:nodetypes="cccccccccccccccccccccccccccccccccccccccccccccccc" /><rect
         style="fill:none;stroke:#ff0000;stroke-width:0.200194"
         id="rect5-5-4"
         width="71.171173"
         height="18.626684"
         x="33.500675"
         y="34.639595"
         ry="7.8517866" /><rect
         style="fill:none;stroke:#ff0000;stroke-width:0.201897"
         id="rect6-5-7"
         width="19"
         height="57.24575"
         x="7.6194491"
         y="32.968567"
         ry="3.3346405" /><path
         style="fill:none;stroke:#ff0000;stroke-width:0.2"
         id="path6-8-8"
         sodipodi:type="arc"
         sodipodi:cx="31.099585"
         sodipodi:cy="43.578556"
         sodipodi:rx="2"
         sodipodi:ry="2"
         sodipodi:start="5.6594481"
         sodipodi:end="5.6591686"
         sodipodi:open="true"
         sodipodi:arc-type="arc"
         d="m 32.722987,42.410411 a 2,2 0 0 1 -0.455144,2.791466 2,2 0 0 1 -2.791498,-0.454949 2,2 0 0 1 0.454754,-2.79153 2,2 0 0 1 2.791562,0.454559" /><path
         style="fill:none;stroke:#ff0000;stroke-width:0.2"
         id="path6-3-5-4"
         sodipodi:type="arc"
         sodipodi:cx="107.09959"
         sodipodi:cy="44.208622"
         sodipodi:rx="2"
         sodipodi:ry="2"
         sodipodi:start="5.6594481"
         sodipodi:end="5.6591686"
         sodipodi:open="true"
         sodipodi:arc-type="arc"
         d="m 108.72299,43.040477 a 2,2 0 0 1 -0.45514,2.791466 2,2 0 0 1 -2.7915,-0.454949 2,2 0 0 1 0.45475,-2.79153 2,2 0 0 1 2.79156,0.454559" /></g><g
       id="g6-2"
       transform="rotate(90,131.82887,136.08857)"><path
         style="display:inline;fill:none;stroke:#ff0000;stroke-width:0.2"
         id="path1-47"
         sodipodi:type="arc"
         sodipodi:cx="117.36621"
         sodipodi:cy="30.17868"
         sodipodi:rx="2.8"
         sodipodi:ry="2.8"
         sodipodi:start="5.6594481"
         sodipodi:end="5.6591686"
         sodipodi:open="true"
         sodipodi:arc-type="arc"
         d="m 119.63897,28.543277 a 2.8,2.8 0 0 1 -0.6372,3.908053 2.8,2.8 0 0 1 -3.90809,-0.636928 2.8,2.8 0 0 1 0.63665,-3.908142 2.8,2.8 0 0 1 3.90819,0.636382" /><path
         style="display:inline;fill:none;stroke:#ff0000;stroke-width:0.2"
         id="path1-2-4"
         sodipodi:type="arc"
         sodipodi:cx="117.41521"
         sodipodi:cy="64.83622"
         sodipodi:rx="2.8"
         sodipodi:ry="2.8"
         sodipodi:start="5.6594481"
         sodipodi:end="5.6591686"
         sodipodi:open="true"
         sodipodi:arc-type="arc"
         d="m 119.68797,63.200816 a 2.8,2.8 0 0 1 -0.6372,3.908053 2.8,2.8 0 0 1 -3.9081,-0.636928 2.8,2.8 0 0 1 0.63666,-3.908142 2.8,2.8 0 0 1 3.90818,0.636382" /><path
         style="fill:none;stroke:#ff0000;stroke-width:0.2"
         id="path1-3-1"
         sodipodi:type="arc"
         sodipodi:cx="83.965889"
         sodipodi:cy="-9.0481863"
         sodipodi:rx="4"
         sodipodi:ry="3"
         sodipodi:start="5.6594481"
         sodipodi:end="5.6591686"
         sodipodi:open="true"
         sodipodi:arc-type="arc"
         d="m 87.212694,-10.800404 a 4,3 0 0 1 -0.910287,4.1871992 4,3 0 0 1 -5.582997,-0.682423 4,3 0 0 1 0.909508,-4.1872952 4,3 0 0 1 5.583123,0.681838"
         transform="rotate(27.218068)" /><path
         style="fill:none;stroke:#ff0000;stroke-width:0.2"
         id="path1-3-5-8"
         sodipodi:type="arc"
         sodipodi:cx="40.501873"
         sodipodi:cy="28.749933"
         sodipodi:rx="4"
         sodipodi:ry="3"
         sodipodi:start="5.6594481"
         sodipodi:end="5.6591686"
         sodipodi:open="true"
         sodipodi:arc-type="arc"
         d="m 43.748678,26.997715 a 4,3 0 0 1 -0.910287,4.1872 4,3 0 0 1 -5.582997,-0.682423 4,3 0 0 1 0.909508,-4.187295 4,3 0 0 1 5.583123,0.681838"
         transform="rotate(1.5547059)" /><path
         style="display:inline;fill:none;stroke:#ff0000;stroke-width:0.2"
         id="path1-1-5"
         sodipodi:type="arc"
         sodipodi:cx="2.4268115"
         sodipodi:cy="28.933716"
         sodipodi:rx="2.8"
         sodipodi:ry="2.8"
         sodipodi:start="5.6594481"
         sodipodi:end="5.6591686"
         sodipodi:open="true"
         sodipodi:arc-type="arc"
         d="M 4.6995751,27.298312 A 2.8,2.8 0 0 1 4.0623739,31.206365 2.8,2.8 0 0 1 0.15427634,30.569437 2.8,2.8 0 0 1 0.79093145,26.661295 2.8,2.8 0 0 1 4.699118,27.297677" /><path
         style="display:inline;fill:none;stroke:#ff0000;stroke-width:0.2"
         id="path1-1-8-89"
         sodipodi:type="arc"
         sodipodi:cx="2.729069"
         sodipodi:cy="65.280098"
         sodipodi:rx="2.8"
         sodipodi:ry="2.8"
         sodipodi:start="5.6594481"
         sodipodi:end="5.6591686"
         sodipodi:open="true"
         sodipodi:arc-type="arc"
         d="M 5.0018327,63.644694 A 2.8,2.8 0 0 1 4.3646314,67.552747 2.8,2.8 0 0 1 0.45653388,66.915819 2.8,2.8 0 0 1 1.093189,63.007677 2.8,2.8 0 0 1 5.0013755,63.644059" /><path
         style="display:inline;fill:none;stroke:#ff0000;stroke-width:0.2"
         id="path1-4-9"
         sodipodi:type="arc"
         sodipodi:cx="5.6814365"
         sodipodi:cy="94.447784"
         sodipodi:rx="2.8"
         sodipodi:ry="2.8"
         sodipodi:start="5.6594481"
         sodipodi:end="5.6591686"
         sodipodi:open="true"
         sodipodi:arc-type="arc"
         d="M 7.9542002,92.812381 A 2.8,2.8 0 0 1 7.316999,96.720434 2.8,2.8 0 0 1 3.4089014,96.083506 2.8,2.8 0 0 1 4.0455565,92.175364 2.8,2.8 0 0 1 7.953743,92.811746" /><path
         style="fill:none;stroke:#ff0000;stroke-width:0.2"
         d="M 0.27801313,89.937248 V 35.307666 L 0,32.80555 l -0.13900663,-2.919138 -9e-8,-5.838275 2.50211832,-0.278013 5.699269,-3e-6 5.6992694,5.143244 14.317677,-0.139007 1.529072,-0.695031 1.529072,-0.834041 1.112051,-1.946091 0.973048,-1.390066 1.251058,-0.973046 1.807086,-0.556026 41.701968,-0.139007 1.807086,0.83404 1.668079,1.807085 0.278013,1.390066 0.417021,0.834038 1.112051,0.695034 1.390065,0.695034 1.112052,0.278011 24.326141,-0.139007 3.33617,-5.143241 6.53331,1e-6 v 47.401238 h -6.53331 l -3.89219,-4.170197 -0.27801,-4.587217 -3.89218,-3.19715 -73.256463,-0.139007 -1.668079,0.556026 -0.556026,0.695033 -0.278013,1.112052 0.139006,3.892184 -0.139006,29.886412 -0.41702,2.085098 -1.112053,1.529073 -2.502118,0.973045 -1.112052,0.278014 L 8.0623808,99.667708 5.8382758,99.250688 3.7531773,98.277642 1.9460919,96.470557 0.97304596,94.663472 0.4170197,92.439367 Z"
         id="path2-9"
         sodipodi:nodetypes="cccccccccccccccccccccccccccccccccccccccccccccccc" /><rect
         style="fill:none;stroke:#ff0000;stroke-width:0.200194"
         id="rect5-3"
         width="71.171173"
         height="18.626684"
         x="33.500675"
         y="34.639595"
         ry="7.8517866" /><rect
         style="fill:none;stroke:#ff0000;stroke-width:0.201897"
         id="rect6-3"
         width="19"
         height="57.24575"
         x="7.6194491"
         y="32.968567"
         ry="3.3346405" /><path
         style="fill:none;stroke:#ff0000;stroke-width:0.2"
         id="path6-7"
         sodipodi:type="arc"
         sodipodi:cx="31.099585"
         sodipodi:cy="43.578556"
         sodipodi:rx="2"
         sodipodi:ry="2"
         sodipodi:start="5.6594481"
         sodipodi:end="5.6591686"
         sodipodi:open="true"
         sodipodi:arc-type="arc"
         d="m 32.722987,42.410411 a 2,2 0 0 1 -0.455144,2.791466 2,2 0 0 1 -2.791498,-0.454949 2,2 0 0 1 0.454754,-2.79153 2,2 0 0 1 2.791562,0.454559" /><path
         style="fill:none;stroke:#ff0000;stroke-width:0.2"
         id="path6-3-7"
         sodipodi:type="arc"
         sodipodi:cx="107.09959"
         sodipodi:cy="44.208622"
         sodipodi:rx="2"
         sodipodi:ry="2"
         sodipodi:start="5.6594481"
         sodipodi:end="5.6591686"
         sodipodi:open="true"
         sodipodi:arc-type="arc"
         d="m 108.72299,43.040477 a 2,2 0 0 1 -0.45514,2.791466 2,2 0 0 1 -2.7915,-0.454949 2,2 0 0 1 0.45475,-2.79153 2,2 0 0 1 2.79156,0.454559" /></g><g
       id="g6-3-32"
       transform="rotate(-90,146.53606,9.948945)"><path
         style="display:inline;fill:none;stroke:#ff0000;stroke-width:0.2"
         id="path1-7-5"
         sodipodi:type="arc"
         sodipodi:cx="117.36621"
         sodipodi:cy="30.17868"
         sodipodi:rx="2.8"
         sodipodi:ry="2.8"
         sodipodi:start="5.6594481"
         sodipodi:end="5.6591686"
         sodipodi:open="true"
         sodipodi:arc-type="arc"
         d="m 119.63897,28.543277 a 2.8,2.8 0 0 1 -0.6372,3.908053 2.8,2.8 0 0 1 -3.90809,-0.636928 2.8,2.8 0 0 1 0.63665,-3.908142 2.8,2.8 0 0 1 3.90819,0.636382" /><path
         style="display:inline;fill:none;stroke:#ff0000;stroke-width:0.2"
         id="path1-2-5-6"
         sodipodi:type="arc"
         sodipodi:cx="117.41521"
         sodipodi:cy="64.83622"
         sodipodi:rx="2.8"
         sodipodi:ry="2.8"
         sodipodi:start="5.6594481"
         sodipodi:end="5.6591686"
         sodipodi:open="true"
         sodipodi:arc-type="arc"
         d="m 119.68797,63.200816 a 2.8,2.8 0 0 1 -0.6372,3.908053 2.8,2.8 0 0 1 -3.9081,-0.636928 2.8,2.8 0 0 1 0.63666,-3.908142 2.8,2.8 0 0 1 3.90818,0.636382" /><path
         style="fill:none;stroke:#ff0000;stroke-width:0.2"
         id="path1-3-0-3"
         sodipodi:type="arc"
         sodipodi:cx="83.965889"
         sodipodi:cy="-9.0481863"
         sodipodi:rx="4"
         sodipodi:ry="3"
         sodipodi:start="5.6594481"
         sodipodi:end="5.6591686"
         sodipodi:open="true"
         sodipodi:arc-type="arc"
         d="m 87.212694,-10.800404 a 4,3 0 0 1 -0.910287,4.1871992 4,3 0 0 1 -5.582997,-0.682423 4,3 0 0 1 0.909508,-4.1872952 4,3 0 0 1 5.583123,0.681838"
         transform="rotate(27.218068)" /><path
         style="fill:none;stroke:#ff0000;stroke-width:0.2"
         id="path1-3-5-2-4"
         sodipodi:type="arc"
         sodipodi:cx="40.501873"
         sodipodi:cy="28.749933"
         sodipodi:rx="4"
         sodipodi:ry="3"
         sodipodi:start="5.6594481"
         sodipodi:end="5.6591686"
         sodipodi:open="true"
         sodipodi:arc-type="arc"
         d="m 43.748678,26.997715 a 4,3 0 0 1 -0.910287,4.1872 4,3 0 0 1 -5.582997,-0.682423 4,3 0 0 1 0.909508,-4.187295 4,3 0 0 1 5.583123,0.681838"
         transform="rotate(1.5547059)" /><path
         style="display:inline;fill:none;stroke:#ff0000;stroke-width:0.2"
         id="path1-1-1-0"
         sodipodi:type="arc"
         sodipodi:cx="2.4268115"
         sodipodi:cy="28.933716"
         sodipodi:rx="2.8"
         sodipodi:ry="2.8"
         sodipodi:start="5.6594481"
         sodipodi:end="5.6591686"
         sodipodi:open="true"
         sodipodi:arc-type="arc"
         d="M 4.6995751,27.298312 A 2.8,2.8 0 0 1 4.0623739,31.206365 2.8,2.8 0 0 1 0.15427634,30.569437 2.8,2.8 0 0 1 0.79093145,26.661295 2.8,2.8 0 0 1 4.699118,27.297677" /><path
         style="display:inline;fill:none;stroke:#ff0000;stroke-width:0.2"
         id="path1-1-8-8-6"
         sodipodi:type="arc"
         sodipodi:cx="2.729069"
         sodipodi:cy="65.280098"
         sodipodi:rx="2.8"
         sodipodi:ry="2.8"
         sodipodi:start="5.6594481"
         sodipodi:end="5.6591686"
         sodipodi:open="true"
         sodipodi:arc-type="arc"
         d="M 5.0018327,63.644694 A 2.8,2.8 0 0 1 4.3646314,67.552747 2.8,2.8 0 0 1 0.45653388,66.915819 2.8,2.8 0 0 1 1.093189,63.007677 2.8,2.8 0 0 1 5.0013755,63.644059" /><path
         style="display:inline;fill:none;stroke:#ff0000;stroke-width:0.2"
         id="path1-4-7-04"
         sodipodi:type="arc"
         sodipodi:cx="5.6814365"
         sodipodi:cy="94.447784"
         sodipodi:rx="2.8"
         sodipodi:ry="2.8"
         sodipodi:start="5.6594481"
         sodipodi:end="5.6591686"
         sodipodi:open="true"
         sodipodi:arc-type="arc"
         d="M 7.9542002,92.812381 A 2.8,2.8 0 0 1 7.316999,96.720434 2.8,2.8 0 0 1 3.4089014,96.083506 2.8,2.8 0 0 1 4.0455565,92.175364 2.8,2.8 0 0 1 7.953743,92.811746" /><path
         style="fill:none;stroke:#ff0000;stroke-width:0.2"
         d="M 0.27801313,89.937248 V 35.307666 L 0,32.80555 l -0.13900663,-2.919138 -9e-8,-5.838275 2.50211832,-0.278013 5.699269,-3e-6 5.6992694,5.143244 14.317677,-0.139007 1.529072,-0.695031 1.529072,-0.834041 1.112051,-1.946091 0.973048,-1.390066 1.251058,-0.973046 1.807086,-0.556026 41.701968,-0.139007 1.807086,0.83404 1.668079,1.807085 0.278013,1.390066 0.417021,0.834038 1.112051,0.695034 1.390065,0.695034 1.112052,0.278011 24.326141,-0.139007 3.33617,-5.143241 6.53331,1e-6 v 47.401238 h -6.53331 l -3.89219,-4.170197 -0.27801,-4.587217 -3.89218,-3.19715 -73.256463,-0.139007 -1.668079,0.556026 -0.556026,0.695033 -0.278013,1.112052 0.139006,3.892184 -0.139006,29.886412 -0.41702,2.085098 -1.112053,1.529073 -2.502118,0.973045 -1.112052,0.278014 L 8.0623808,99.667708 5.8382758,99.250688 3.7531773,98.277642 1.9460919,96.470557 0.97304596,94.663472 0.4170197,92.439367 Z"
         id="path2-1-0"
         sodipodi:nodetypes="cccccccccccccccccccccccccccccccccccccccccccccccc" /><rect
         style="fill:none;stroke:#ff0000;stroke-width:0.200194"
         id="rect5-5-5"
         width="71.171173"
         height="18.626684"
         x="33.500675"
         y="34.639595"
         ry="7.8517866" /><rect
         style="fill:none;stroke:#ff0000;stroke-width:0.201897"
         id="rect6-5-6"
         width="19"
         height="57.24575"
         x="7.6194491"
         y="32.968567"
         ry="3.3346405" /><path
         style="fill:none;stroke:#ff0000;stroke-width:0.2"
         id="path6-8-85"
         sodipodi:type="arc"
         sodipodi:cx="31.099585"
         sodipodi:cy="43.578556"
         sodipodi:rx="2"
         sodipodi:ry="2"
         sodipodi:start="5.6594481"
         sodipodi:end="5.6591686"
         sodipodi:open="true"
         sodipodi:arc-type="arc"
         d="m 32.722987,42.410411 a 2,2 0 0 1 -0.455144,2.791466 2,2 0 0 1 -2.791498,-0.454949 2,2 0 0 1 0.454754,-2.79153 2,2 0 0 1 2.791562,0.454559" /><path
         style="fill:none;stroke:#ff0000;stroke-width:0.2"
         id="path6-3-5-3"
         sodipodi:type="arc"
         sodipodi:cx="107.09959"
         sodipodi:cy="44.208622"
         sodipodi:rx="2"
         sodipodi:ry="2"
         sodipodi:start="5.6594481"
         sodipodi:end="5.6591686"
         sodipodi:open="true"
         sodipodi:arc-type="arc"
         d="m 108.72299,43.040477 a 2,2 0 0 1 -0.45514,2.791466 2,2 0 0 1 -2.7915,-0.454949 2,2 0 0 1 0.45475,-2.79153 2,2 0 0 1 2.79156,0.454559" /></g></g></svg>
