%TF.GenerationSoftware,KiCad,Pcbnew,8.0.5*%
%TF.CreationDate,2026-04-04T12:35:23-07:00*%
%TF.ProjectId,irkem_crapinetPreamp_v0,69726b65-6d5f-4637-9261-70696e657450,rev?*%
%TF.SameCoordinates,Original*%
%TF.FileFunction,Legend,Top*%
%TF.FilePolarity,Positive*%
%FSLAX46Y46*%
G04 Gerber Fmt 4.6, Leading zero omitted, Abs format (unit mm)*
G04 Created by KiCad (PCBNEW 8.0.5) date 2026-04-04 12:35:23*
%MOMM*%
%LPD*%
G01*
G04 APERTURE LIST*
%ADD10C,0.100000*%
%ADD11C,0.150000*%
%ADD12C,0.120000*%
G04 APERTURE END LIST*
D10*
X147803884Y-146872419D02*
X147803884Y-145872419D01*
X147803884Y-145872419D02*
X148184836Y-145872419D01*
X148184836Y-145872419D02*
X148280074Y-145920038D01*
X148280074Y-145920038D02*
X148327693Y-145967657D01*
X148327693Y-145967657D02*
X148375312Y-146062895D01*
X148375312Y-146062895D02*
X148375312Y-146205752D01*
X148375312Y-146205752D02*
X148327693Y-146300990D01*
X148327693Y-146300990D02*
X148280074Y-146348609D01*
X148280074Y-146348609D02*
X148184836Y-146396228D01*
X148184836Y-146396228D02*
X147803884Y-146396228D01*
X148803884Y-146872419D02*
X148803884Y-146205752D01*
X148803884Y-146396228D02*
X148851503Y-146300990D01*
X148851503Y-146300990D02*
X148899122Y-146253371D01*
X148899122Y-146253371D02*
X148994360Y-146205752D01*
X148994360Y-146205752D02*
X149089598Y-146205752D01*
X149803884Y-146824800D02*
X149708646Y-146872419D01*
X149708646Y-146872419D02*
X149518170Y-146872419D01*
X149518170Y-146872419D02*
X149422932Y-146824800D01*
X149422932Y-146824800D02*
X149375313Y-146729561D01*
X149375313Y-146729561D02*
X149375313Y-146348609D01*
X149375313Y-146348609D02*
X149422932Y-146253371D01*
X149422932Y-146253371D02*
X149518170Y-146205752D01*
X149518170Y-146205752D02*
X149708646Y-146205752D01*
X149708646Y-146205752D02*
X149803884Y-146253371D01*
X149803884Y-146253371D02*
X149851503Y-146348609D01*
X149851503Y-146348609D02*
X149851503Y-146443847D01*
X149851503Y-146443847D02*
X149375313Y-146539085D01*
X150708646Y-146872419D02*
X150708646Y-146348609D01*
X150708646Y-146348609D02*
X150661027Y-146253371D01*
X150661027Y-146253371D02*
X150565789Y-146205752D01*
X150565789Y-146205752D02*
X150375313Y-146205752D01*
X150375313Y-146205752D02*
X150280075Y-146253371D01*
X150708646Y-146824800D02*
X150613408Y-146872419D01*
X150613408Y-146872419D02*
X150375313Y-146872419D01*
X150375313Y-146872419D02*
X150280075Y-146824800D01*
X150280075Y-146824800D02*
X150232456Y-146729561D01*
X150232456Y-146729561D02*
X150232456Y-146634323D01*
X150232456Y-146634323D02*
X150280075Y-146539085D01*
X150280075Y-146539085D02*
X150375313Y-146491466D01*
X150375313Y-146491466D02*
X150613408Y-146491466D01*
X150613408Y-146491466D02*
X150708646Y-146443847D01*
X151184837Y-146872419D02*
X151184837Y-146205752D01*
X151184837Y-146300990D02*
X151232456Y-146253371D01*
X151232456Y-146253371D02*
X151327694Y-146205752D01*
X151327694Y-146205752D02*
X151470551Y-146205752D01*
X151470551Y-146205752D02*
X151565789Y-146253371D01*
X151565789Y-146253371D02*
X151613408Y-146348609D01*
X151613408Y-146348609D02*
X151613408Y-146872419D01*
X151613408Y-146348609D02*
X151661027Y-146253371D01*
X151661027Y-146253371D02*
X151756265Y-146205752D01*
X151756265Y-146205752D02*
X151899122Y-146205752D01*
X151899122Y-146205752D02*
X151994361Y-146253371D01*
X151994361Y-146253371D02*
X152041980Y-146348609D01*
X152041980Y-146348609D02*
X152041980Y-146872419D01*
X152518170Y-146205752D02*
X152518170Y-147205752D01*
X152518170Y-146253371D02*
X152613408Y-146205752D01*
X152613408Y-146205752D02*
X152803884Y-146205752D01*
X152803884Y-146205752D02*
X152899122Y-146253371D01*
X152899122Y-146253371D02*
X152946741Y-146300990D01*
X152946741Y-146300990D02*
X152994360Y-146396228D01*
X152994360Y-146396228D02*
X152994360Y-146681942D01*
X152994360Y-146681942D02*
X152946741Y-146777180D01*
X152946741Y-146777180D02*
X152899122Y-146824800D01*
X152899122Y-146824800D02*
X152803884Y-146872419D01*
X152803884Y-146872419D02*
X152613408Y-146872419D01*
X152613408Y-146872419D02*
X152518170Y-146824800D01*
X154041980Y-145872419D02*
X154375313Y-146872419D01*
X154375313Y-146872419D02*
X154708646Y-145872419D01*
X155232456Y-145872419D02*
X155327694Y-145872419D01*
X155327694Y-145872419D02*
X155422932Y-145920038D01*
X155422932Y-145920038D02*
X155470551Y-145967657D01*
X155470551Y-145967657D02*
X155518170Y-146062895D01*
X155518170Y-146062895D02*
X155565789Y-146253371D01*
X155565789Y-146253371D02*
X155565789Y-146491466D01*
X155565789Y-146491466D02*
X155518170Y-146681942D01*
X155518170Y-146681942D02*
X155470551Y-146777180D01*
X155470551Y-146777180D02*
X155422932Y-146824800D01*
X155422932Y-146824800D02*
X155327694Y-146872419D01*
X155327694Y-146872419D02*
X155232456Y-146872419D01*
X155232456Y-146872419D02*
X155137218Y-146824800D01*
X155137218Y-146824800D02*
X155089599Y-146777180D01*
X155089599Y-146777180D02*
X155041980Y-146681942D01*
X155041980Y-146681942D02*
X154994361Y-146491466D01*
X154994361Y-146491466D02*
X154994361Y-146253371D01*
X154994361Y-146253371D02*
X155041980Y-146062895D01*
X155041980Y-146062895D02*
X155089599Y-145967657D01*
X155089599Y-145967657D02*
X155137218Y-145920038D01*
X155137218Y-145920038D02*
X155232456Y-145872419D01*
X156041980Y-146824800D02*
X156041980Y-146872419D01*
X156041980Y-146872419D02*
X155994361Y-146967657D01*
X155994361Y-146967657D02*
X155946742Y-147015276D01*
X157803884Y-146777180D02*
X157756265Y-146824800D01*
X157756265Y-146824800D02*
X157613408Y-146872419D01*
X157613408Y-146872419D02*
X157518170Y-146872419D01*
X157518170Y-146872419D02*
X157375313Y-146824800D01*
X157375313Y-146824800D02*
X157280075Y-146729561D01*
X157280075Y-146729561D02*
X157232456Y-146634323D01*
X157232456Y-146634323D02*
X157184837Y-146443847D01*
X157184837Y-146443847D02*
X157184837Y-146300990D01*
X157184837Y-146300990D02*
X157232456Y-146110514D01*
X157232456Y-146110514D02*
X157280075Y-146015276D01*
X157280075Y-146015276D02*
X157375313Y-145920038D01*
X157375313Y-145920038D02*
X157518170Y-145872419D01*
X157518170Y-145872419D02*
X157613408Y-145872419D01*
X157613408Y-145872419D02*
X157756265Y-145920038D01*
X157756265Y-145920038D02*
X157803884Y-145967657D01*
X158375313Y-146872419D02*
X158280075Y-146824800D01*
X158280075Y-146824800D02*
X158232456Y-146729561D01*
X158232456Y-146729561D02*
X158232456Y-145872419D01*
X158899123Y-146872419D02*
X158803885Y-146824800D01*
X158803885Y-146824800D02*
X158756266Y-146777180D01*
X158756266Y-146777180D02*
X158708647Y-146681942D01*
X158708647Y-146681942D02*
X158708647Y-146396228D01*
X158708647Y-146396228D02*
X158756266Y-146300990D01*
X158756266Y-146300990D02*
X158803885Y-146253371D01*
X158803885Y-146253371D02*
X158899123Y-146205752D01*
X158899123Y-146205752D02*
X159041980Y-146205752D01*
X159041980Y-146205752D02*
X159137218Y-146253371D01*
X159137218Y-146253371D02*
X159184837Y-146300990D01*
X159184837Y-146300990D02*
X159232456Y-146396228D01*
X159232456Y-146396228D02*
X159232456Y-146681942D01*
X159232456Y-146681942D02*
X159184837Y-146777180D01*
X159184837Y-146777180D02*
X159137218Y-146824800D01*
X159137218Y-146824800D02*
X159041980Y-146872419D01*
X159041980Y-146872419D02*
X158899123Y-146872419D01*
X159661028Y-146205752D02*
X159661028Y-146872419D01*
X159661028Y-146300990D02*
X159708647Y-146253371D01*
X159708647Y-146253371D02*
X159803885Y-146205752D01*
X159803885Y-146205752D02*
X159946742Y-146205752D01*
X159946742Y-146205752D02*
X160041980Y-146253371D01*
X160041980Y-146253371D02*
X160089599Y-146348609D01*
X160089599Y-146348609D02*
X160089599Y-146872419D01*
X160946742Y-146824800D02*
X160851504Y-146872419D01*
X160851504Y-146872419D02*
X160661028Y-146872419D01*
X160661028Y-146872419D02*
X160565790Y-146824800D01*
X160565790Y-146824800D02*
X160518171Y-146729561D01*
X160518171Y-146729561D02*
X160518171Y-146348609D01*
X160518171Y-146348609D02*
X160565790Y-146253371D01*
X160565790Y-146253371D02*
X160661028Y-146205752D01*
X160661028Y-146205752D02*
X160851504Y-146205752D01*
X160851504Y-146205752D02*
X160946742Y-146253371D01*
X160946742Y-146253371D02*
X160994361Y-146348609D01*
X160994361Y-146348609D02*
X160994361Y-146443847D01*
X160994361Y-146443847D02*
X160518171Y-146539085D01*
X161851504Y-146872419D02*
X161851504Y-145872419D01*
X161851504Y-146824800D02*
X161756266Y-146872419D01*
X161756266Y-146872419D02*
X161565790Y-146872419D01*
X161565790Y-146872419D02*
X161470552Y-146824800D01*
X161470552Y-146824800D02*
X161422933Y-146777180D01*
X161422933Y-146777180D02*
X161375314Y-146681942D01*
X161375314Y-146681942D02*
X161375314Y-146396228D01*
X161375314Y-146396228D02*
X161422933Y-146300990D01*
X161422933Y-146300990D02*
X161470552Y-146253371D01*
X161470552Y-146253371D02*
X161565790Y-146205752D01*
X161565790Y-146205752D02*
X161756266Y-146205752D01*
X161756266Y-146205752D02*
X161851504Y-146253371D01*
X162946743Y-146205752D02*
X163327695Y-146205752D01*
X163089600Y-146872419D02*
X163089600Y-146015276D01*
X163089600Y-146015276D02*
X163137219Y-145920038D01*
X163137219Y-145920038D02*
X163232457Y-145872419D01*
X163232457Y-145872419D02*
X163327695Y-145872419D01*
X163661029Y-146872419D02*
X163661029Y-146205752D01*
X163661029Y-146396228D02*
X163708648Y-146300990D01*
X163708648Y-146300990D02*
X163756267Y-146253371D01*
X163756267Y-146253371D02*
X163851505Y-146205752D01*
X163851505Y-146205752D02*
X163946743Y-146205752D01*
X164422934Y-146872419D02*
X164327696Y-146824800D01*
X164327696Y-146824800D02*
X164280077Y-146777180D01*
X164280077Y-146777180D02*
X164232458Y-146681942D01*
X164232458Y-146681942D02*
X164232458Y-146396228D01*
X164232458Y-146396228D02*
X164280077Y-146300990D01*
X164280077Y-146300990D02*
X164327696Y-146253371D01*
X164327696Y-146253371D02*
X164422934Y-146205752D01*
X164422934Y-146205752D02*
X164565791Y-146205752D01*
X164565791Y-146205752D02*
X164661029Y-146253371D01*
X164661029Y-146253371D02*
X164708648Y-146300990D01*
X164708648Y-146300990D02*
X164756267Y-146396228D01*
X164756267Y-146396228D02*
X164756267Y-146681942D01*
X164756267Y-146681942D02*
X164708648Y-146777180D01*
X164708648Y-146777180D02*
X164661029Y-146824800D01*
X164661029Y-146824800D02*
X164565791Y-146872419D01*
X164565791Y-146872419D02*
X164422934Y-146872419D01*
X165184839Y-146872419D02*
X165184839Y-146205752D01*
X165184839Y-146300990D02*
X165232458Y-146253371D01*
X165232458Y-146253371D02*
X165327696Y-146205752D01*
X165327696Y-146205752D02*
X165470553Y-146205752D01*
X165470553Y-146205752D02*
X165565791Y-146253371D01*
X165565791Y-146253371D02*
X165613410Y-146348609D01*
X165613410Y-146348609D02*
X165613410Y-146872419D01*
X165613410Y-146348609D02*
X165661029Y-146253371D01*
X165661029Y-146253371D02*
X165756267Y-146205752D01*
X165756267Y-146205752D02*
X165899124Y-146205752D01*
X165899124Y-146205752D02*
X165994363Y-146253371D01*
X165994363Y-146253371D02*
X166041982Y-146348609D01*
X166041982Y-146348609D02*
X166041982Y-146872419D01*
X167137220Y-146205752D02*
X167518172Y-146205752D01*
X167280077Y-145872419D02*
X167280077Y-146729561D01*
X167280077Y-146729561D02*
X167327696Y-146824800D01*
X167327696Y-146824800D02*
X167422934Y-146872419D01*
X167422934Y-146872419D02*
X167518172Y-146872419D01*
X167851506Y-146872419D02*
X167851506Y-145872419D01*
X168280077Y-146872419D02*
X168280077Y-146348609D01*
X168280077Y-146348609D02*
X168232458Y-146253371D01*
X168232458Y-146253371D02*
X168137220Y-146205752D01*
X168137220Y-146205752D02*
X167994363Y-146205752D01*
X167994363Y-146205752D02*
X167899125Y-146253371D01*
X167899125Y-146253371D02*
X167851506Y-146300990D01*
X169137220Y-146824800D02*
X169041982Y-146872419D01*
X169041982Y-146872419D02*
X168851506Y-146872419D01*
X168851506Y-146872419D02*
X168756268Y-146824800D01*
X168756268Y-146824800D02*
X168708649Y-146729561D01*
X168708649Y-146729561D02*
X168708649Y-146348609D01*
X168708649Y-146348609D02*
X168756268Y-146253371D01*
X168756268Y-146253371D02*
X168851506Y-146205752D01*
X168851506Y-146205752D02*
X169041982Y-146205752D01*
X169041982Y-146205752D02*
X169137220Y-146253371D01*
X169137220Y-146253371D02*
X169184839Y-146348609D01*
X169184839Y-146348609D02*
X169184839Y-146443847D01*
X169184839Y-146443847D02*
X168708649Y-146539085D01*
X170375316Y-146872419D02*
X170375316Y-146205752D01*
X170375316Y-146300990D02*
X170422935Y-146253371D01*
X170422935Y-146253371D02*
X170518173Y-146205752D01*
X170518173Y-146205752D02*
X170661030Y-146205752D01*
X170661030Y-146205752D02*
X170756268Y-146253371D01*
X170756268Y-146253371D02*
X170803887Y-146348609D01*
X170803887Y-146348609D02*
X170803887Y-146872419D01*
X170803887Y-146348609D02*
X170851506Y-146253371D01*
X170851506Y-146253371D02*
X170946744Y-146205752D01*
X170946744Y-146205752D02*
X171089601Y-146205752D01*
X171089601Y-146205752D02*
X171184840Y-146253371D01*
X171184840Y-146253371D02*
X171232459Y-146348609D01*
X171232459Y-146348609D02*
X171232459Y-146872419D01*
X172137220Y-146205752D02*
X172137220Y-146872419D01*
X171708649Y-146205752D02*
X171708649Y-146729561D01*
X171708649Y-146729561D02*
X171756268Y-146824800D01*
X171756268Y-146824800D02*
X171851506Y-146872419D01*
X171851506Y-146872419D02*
X171994363Y-146872419D01*
X171994363Y-146872419D02*
X172089601Y-146824800D01*
X172089601Y-146824800D02*
X172137220Y-146777180D01*
X172470554Y-146205752D02*
X172851506Y-146205752D01*
X172613411Y-145872419D02*
X172613411Y-146729561D01*
X172613411Y-146729561D02*
X172661030Y-146824800D01*
X172661030Y-146824800D02*
X172756268Y-146872419D01*
X172756268Y-146872419D02*
X172851506Y-146872419D01*
X173184840Y-146872419D02*
X173184840Y-145872419D01*
X173613411Y-146872419D02*
X173613411Y-146348609D01*
X173613411Y-146348609D02*
X173565792Y-146253371D01*
X173565792Y-146253371D02*
X173470554Y-146205752D01*
X173470554Y-146205752D02*
X173327697Y-146205752D01*
X173327697Y-146205752D02*
X173232459Y-146253371D01*
X173232459Y-146253371D02*
X173184840Y-146300990D01*
X174518173Y-146872419D02*
X174518173Y-146348609D01*
X174518173Y-146348609D02*
X174470554Y-146253371D01*
X174470554Y-146253371D02*
X174375316Y-146205752D01*
X174375316Y-146205752D02*
X174184840Y-146205752D01*
X174184840Y-146205752D02*
X174089602Y-146253371D01*
X174518173Y-146824800D02*
X174422935Y-146872419D01*
X174422935Y-146872419D02*
X174184840Y-146872419D01*
X174184840Y-146872419D02*
X174089602Y-146824800D01*
X174089602Y-146824800D02*
X174041983Y-146729561D01*
X174041983Y-146729561D02*
X174041983Y-146634323D01*
X174041983Y-146634323D02*
X174089602Y-146539085D01*
X174089602Y-146539085D02*
X174184840Y-146491466D01*
X174184840Y-146491466D02*
X174422935Y-146491466D01*
X174422935Y-146491466D02*
X174518173Y-146443847D01*
X174851507Y-146205752D02*
X175232459Y-146205752D01*
X174994364Y-146872419D02*
X174994364Y-146015276D01*
X174994364Y-146015276D02*
X175041983Y-145920038D01*
X175041983Y-145920038D02*
X175137221Y-145872419D01*
X175137221Y-145872419D02*
X175232459Y-145872419D01*
X175994364Y-146205752D02*
X175994364Y-146872419D01*
X175565793Y-146205752D02*
X175565793Y-146729561D01*
X175565793Y-146729561D02*
X175613412Y-146824800D01*
X175613412Y-146824800D02*
X175708650Y-146872419D01*
X175708650Y-146872419D02*
X175851507Y-146872419D01*
X175851507Y-146872419D02*
X175946745Y-146824800D01*
X175946745Y-146824800D02*
X175994364Y-146777180D01*
X176899126Y-146205752D02*
X176899126Y-147015276D01*
X176899126Y-147015276D02*
X176851507Y-147110514D01*
X176851507Y-147110514D02*
X176803888Y-147158133D01*
X176803888Y-147158133D02*
X176708650Y-147205752D01*
X176708650Y-147205752D02*
X176565793Y-147205752D01*
X176565793Y-147205752D02*
X176470555Y-147158133D01*
X176899126Y-146824800D02*
X176803888Y-146872419D01*
X176803888Y-146872419D02*
X176613412Y-146872419D01*
X176613412Y-146872419D02*
X176518174Y-146824800D01*
X176518174Y-146824800D02*
X176470555Y-146777180D01*
X176470555Y-146777180D02*
X176422936Y-146681942D01*
X176422936Y-146681942D02*
X176422936Y-146396228D01*
X176422936Y-146396228D02*
X176470555Y-146300990D01*
X176470555Y-146300990D02*
X176518174Y-146253371D01*
X176518174Y-146253371D02*
X176613412Y-146205752D01*
X176613412Y-146205752D02*
X176803888Y-146205752D01*
X176803888Y-146205752D02*
X176899126Y-146253371D01*
X177803888Y-146205752D02*
X177803888Y-147015276D01*
X177803888Y-147015276D02*
X177756269Y-147110514D01*
X177756269Y-147110514D02*
X177708650Y-147158133D01*
X177708650Y-147158133D02*
X177613412Y-147205752D01*
X177613412Y-147205752D02*
X177470555Y-147205752D01*
X177470555Y-147205752D02*
X177375317Y-147158133D01*
X177803888Y-146824800D02*
X177708650Y-146872419D01*
X177708650Y-146872419D02*
X177518174Y-146872419D01*
X177518174Y-146872419D02*
X177422936Y-146824800D01*
X177422936Y-146824800D02*
X177375317Y-146777180D01*
X177375317Y-146777180D02*
X177327698Y-146681942D01*
X177327698Y-146681942D02*
X177327698Y-146396228D01*
X177327698Y-146396228D02*
X177375317Y-146300990D01*
X177375317Y-146300990D02*
X177422936Y-146253371D01*
X177422936Y-146253371D02*
X177518174Y-146205752D01*
X177518174Y-146205752D02*
X177708650Y-146205752D01*
X177708650Y-146205752D02*
X177803888Y-146253371D01*
X178280079Y-146872419D02*
X178280079Y-146205752D01*
X178280079Y-145872419D02*
X178232460Y-145920038D01*
X178232460Y-145920038D02*
X178280079Y-145967657D01*
X178280079Y-145967657D02*
X178327698Y-145920038D01*
X178327698Y-145920038D02*
X178280079Y-145872419D01*
X178280079Y-145872419D02*
X178280079Y-145967657D01*
X178756269Y-146205752D02*
X178756269Y-146872419D01*
X178756269Y-146300990D02*
X178803888Y-146253371D01*
X178803888Y-146253371D02*
X178899126Y-146205752D01*
X178899126Y-146205752D02*
X179041983Y-146205752D01*
X179041983Y-146205752D02*
X179137221Y-146253371D01*
X179137221Y-146253371D02*
X179184840Y-146348609D01*
X179184840Y-146348609D02*
X179184840Y-146872419D01*
X179708650Y-145872419D02*
X179613412Y-146062895D01*
X180899126Y-146872419D02*
X180899126Y-145872419D01*
X180899126Y-145872419D02*
X181137221Y-145872419D01*
X181137221Y-145872419D02*
X181280078Y-145920038D01*
X181280078Y-145920038D02*
X181375316Y-146015276D01*
X181375316Y-146015276D02*
X181422935Y-146110514D01*
X181422935Y-146110514D02*
X181470554Y-146300990D01*
X181470554Y-146300990D02*
X181470554Y-146443847D01*
X181470554Y-146443847D02*
X181422935Y-146634323D01*
X181422935Y-146634323D02*
X181375316Y-146729561D01*
X181375316Y-146729561D02*
X181280078Y-146824800D01*
X181280078Y-146824800D02*
X181137221Y-146872419D01*
X181137221Y-146872419D02*
X180899126Y-146872419D01*
X182327697Y-145872419D02*
X182137221Y-145872419D01*
X182137221Y-145872419D02*
X182041983Y-145920038D01*
X182041983Y-145920038D02*
X181994364Y-145967657D01*
X181994364Y-145967657D02*
X181899126Y-146110514D01*
X181899126Y-146110514D02*
X181851507Y-146300990D01*
X181851507Y-146300990D02*
X181851507Y-146681942D01*
X181851507Y-146681942D02*
X181899126Y-146777180D01*
X181899126Y-146777180D02*
X181946745Y-146824800D01*
X181946745Y-146824800D02*
X182041983Y-146872419D01*
X182041983Y-146872419D02*
X182232459Y-146872419D01*
X182232459Y-146872419D02*
X182327697Y-146824800D01*
X182327697Y-146824800D02*
X182375316Y-146777180D01*
X182375316Y-146777180D02*
X182422935Y-146681942D01*
X182422935Y-146681942D02*
X182422935Y-146443847D01*
X182422935Y-146443847D02*
X182375316Y-146348609D01*
X182375316Y-146348609D02*
X182327697Y-146300990D01*
X182327697Y-146300990D02*
X182232459Y-146253371D01*
X182232459Y-146253371D02*
X182041983Y-146253371D01*
X182041983Y-146253371D02*
X181946745Y-146300990D01*
X181946745Y-146300990D02*
X181899126Y-146348609D01*
X181899126Y-146348609D02*
X181851507Y-146443847D01*
G36*
X145695045Y-141710509D02*
G01*
X145695045Y-143330327D01*
X145708509Y-143530643D01*
X145726308Y-143599972D01*
X145855268Y-143751402D01*
X145977390Y-143865708D01*
X146010607Y-143991737D01*
X145937036Y-144180644D01*
X145748114Y-144296659D01*
X145530128Y-144351614D01*
X145298517Y-144376420D01*
X145080530Y-144382526D01*
X144876782Y-144378692D01*
X144667282Y-144364923D01*
X144461374Y-144337463D01*
X144304815Y-144302414D01*
X144138034Y-144198808D01*
X144133845Y-144193970D01*
X144068387Y-144014207D01*
X144102581Y-143880362D01*
X144250100Y-143747555D01*
X144265736Y-143735771D01*
X144368551Y-143564699D01*
X144375157Y-143539399D01*
X144402806Y-143336651D01*
X144409317Y-143132164D01*
X144409351Y-143114417D01*
X144403347Y-142911951D01*
X144396650Y-142769546D01*
X144386392Y-142569267D01*
X144379064Y-142474501D01*
X144250792Y-142325554D01*
X144243265Y-142322093D01*
X144085829Y-142192355D01*
X144054710Y-142069057D01*
X144131681Y-141885165D01*
X144297976Y-141785736D01*
X144495832Y-141716508D01*
X144702274Y-141654150D01*
X144895414Y-141603901D01*
X144961339Y-141588387D01*
X145167534Y-141545111D01*
X145374163Y-141514336D01*
X145512351Y-141506322D01*
X145680594Y-141611805D01*
X145695045Y-141710509D01*
G37*
G36*
X145119609Y-140505903D02*
G01*
X145317560Y-140524790D01*
X145508655Y-140598507D01*
X145518213Y-140604577D01*
X145648349Y-140755321D01*
X145669644Y-140873244D01*
X145619841Y-141069979D01*
X145483492Y-141215250D01*
X145442986Y-141241563D01*
X145263101Y-141330040D01*
X145065387Y-141393237D01*
X144849842Y-141431156D01*
X144646615Y-141443598D01*
X144616468Y-141443796D01*
X144417280Y-141420359D01*
X144281367Y-141360753D01*
X144145677Y-141219954D01*
X144107466Y-141054961D01*
X144166480Y-140860942D01*
X144325711Y-140716480D01*
X144465038Y-140647564D01*
X144657826Y-140579085D01*
X144864058Y-140529283D01*
X145061895Y-140507148D01*
X145119609Y-140505903D01*
G37*
G36*
X147411584Y-141506322D02*
G01*
X147603462Y-141547243D01*
X147611863Y-141556147D01*
X147666337Y-141754496D01*
X147676343Y-141833607D01*
X147730076Y-141925443D01*
X147808234Y-141860963D01*
X147931882Y-141705807D01*
X148092152Y-141584246D01*
X148296515Y-141514980D01*
X148409071Y-141506322D01*
X148607122Y-141534377D01*
X148785785Y-141627342D01*
X148840893Y-141676315D01*
X148953313Y-141842217D01*
X148973761Y-141889295D01*
X149023063Y-142085428D01*
X149025540Y-142138422D01*
X148992735Y-142335257D01*
X148962037Y-142413928D01*
X148857635Y-142582937D01*
X148798883Y-142644494D01*
X148634990Y-142757720D01*
X148443365Y-142813223D01*
X148345568Y-142819371D01*
X148150662Y-142790245D01*
X148097418Y-142767592D01*
X147933153Y-142648371D01*
X147840474Y-142562428D01*
X147755478Y-142514556D01*
X147682205Y-142589783D01*
X147664573Y-142790654D01*
X147662665Y-142946378D01*
X147664984Y-143163320D01*
X147674114Y-143369910D01*
X147691974Y-143521814D01*
X147736915Y-143624396D01*
X147871737Y-143682037D01*
X148046321Y-143770954D01*
X148140328Y-143951945D01*
X148141381Y-143978060D01*
X148079480Y-144170641D01*
X148054431Y-144200809D01*
X147885178Y-144308595D01*
X147825819Y-144324884D01*
X147612575Y-144357702D01*
X147394655Y-144374420D01*
X147198126Y-144381118D01*
X147043265Y-144382526D01*
X146839824Y-144378271D01*
X146634569Y-144362991D01*
X146438398Y-144332517D01*
X146294905Y-144293621D01*
X146125939Y-144193524D01*
X146047973Y-144005105D01*
X146047732Y-143991737D01*
X146117570Y-143803060D01*
X146226517Y-143704508D01*
X146328122Y-143616580D01*
X146364270Y-143509113D01*
X146387454Y-143307899D01*
X146399819Y-143085791D01*
X146405486Y-142883546D01*
X146408062Y-142650733D01*
X146408234Y-142566336D01*
X146384787Y-142402205D01*
X146290020Y-142326001D01*
X146122313Y-142210179D01*
X146075087Y-142069057D01*
X146149278Y-141884533D01*
X146218702Y-141825792D01*
X146392195Y-141734358D01*
X146586941Y-141662757D01*
X146682763Y-141633328D01*
X146888415Y-141578862D01*
X147101090Y-141535688D01*
X147314192Y-141510195D01*
X147411584Y-141506322D01*
G37*
G36*
X150661967Y-140674919D02*
G01*
X150637543Y-141547355D01*
X150635096Y-141745868D01*
X150634612Y-141931304D01*
X150636108Y-142131954D01*
X150642428Y-142258590D01*
X150727424Y-142346517D01*
X150912278Y-142281138D01*
X150959944Y-142254682D01*
X151119190Y-142162847D01*
X151063503Y-142046587D01*
X151014654Y-141897110D01*
X151074932Y-141708204D01*
X151255768Y-141581121D01*
X151479765Y-141525022D01*
X151684414Y-141507848D01*
X151776692Y-141506322D01*
X151980616Y-141513432D01*
X152177652Y-141538009D01*
X152373038Y-141590673D01*
X152387299Y-141596203D01*
X152542604Y-141721370D01*
X152546545Y-141727117D01*
X152609800Y-141912189D01*
X152610048Y-141925443D01*
X152533661Y-142111922D01*
X152474249Y-142150146D01*
X152311095Y-142193133D01*
X152129473Y-142282031D01*
X152011165Y-142350425D01*
X151845431Y-142461124D01*
X151827494Y-142484270D01*
X151945595Y-142653500D01*
X152056106Y-142798855D01*
X152182381Y-142960044D01*
X152317249Y-143125366D01*
X152446392Y-143276186D01*
X152484019Y-143318604D01*
X152620642Y-143462096D01*
X152681367Y-143515952D01*
X152848597Y-143620137D01*
X152879692Y-143636120D01*
X153033265Y-143767868D01*
X153093649Y-143938981D01*
X153040603Y-144132772D01*
X152957850Y-144219371D01*
X152776809Y-144300739D01*
X152595394Y-144320000D01*
X151705373Y-144320000D01*
X151508299Y-144266724D01*
X151420097Y-144187131D01*
X150963852Y-143612672D01*
X150841025Y-143457734D01*
X150747941Y-143344982D01*
X150699092Y-143305903D01*
X150683461Y-143342051D01*
X150675645Y-143511067D01*
X150699092Y-143676175D01*
X150818283Y-143799274D01*
X150901001Y-143977189D01*
X150901325Y-143992714D01*
X150840390Y-144182739D01*
X150685415Y-144293621D01*
X150487349Y-144347797D01*
X150291376Y-144372020D01*
X150083052Y-144381744D01*
X149996650Y-144382526D01*
X149772385Y-144380188D01*
X149561421Y-144371792D01*
X149365721Y-144352711D01*
X149273691Y-144333677D01*
X149106995Y-144219246D01*
X149097836Y-144207648D01*
X149025823Y-144019657D01*
X149025540Y-144006392D01*
X149110674Y-143827343D01*
X149154501Y-143792435D01*
X149272714Y-143701577D01*
X149311793Y-143606810D01*
X149338965Y-143383511D01*
X149353974Y-143180694D01*
X149364381Y-142947584D01*
X149369538Y-142730184D01*
X149371499Y-142491746D01*
X149371388Y-142390481D01*
X149371388Y-141770104D01*
X149367404Y-141570069D01*
X149343056Y-141383224D01*
X149212142Y-141292365D01*
X149022365Y-141218848D01*
X148959106Y-141068639D01*
X149052701Y-140895818D01*
X149065596Y-140885945D01*
X149248015Y-140790156D01*
X149403628Y-140734515D01*
X149621028Y-140668655D01*
X149820158Y-140613958D01*
X150034996Y-140563056D01*
X150252388Y-140523987D01*
X150456988Y-140506126D01*
X150479274Y-140505903D01*
X150653114Y-140600975D01*
X150661967Y-140674919D01*
G37*
G36*
X153604605Y-140443377D02*
G01*
X153802198Y-140490272D01*
X153948844Y-140619415D01*
X153957292Y-140630956D01*
X154049455Y-140814054D01*
X154088822Y-141019571D01*
X154092114Y-141107718D01*
X154078650Y-141305856D01*
X154042037Y-141500223D01*
X154021772Y-141577641D01*
X153957512Y-141771189D01*
X153870638Y-141959790D01*
X153835170Y-142022163D01*
X153721636Y-142182447D01*
X153598743Y-142256636D01*
X153449539Y-142129991D01*
X153351570Y-141962568D01*
X153261350Y-141765465D01*
X153193289Y-141569951D01*
X153147387Y-141376027D01*
X153122062Y-141156346D01*
X153120027Y-141074501D01*
X153138712Y-140879045D01*
X153207741Y-140688521D01*
X153252896Y-140619232D01*
X153407257Y-140487341D01*
X153604605Y-140443377D01*
G37*
G36*
X156060404Y-141520814D02*
G01*
X156270630Y-141564291D01*
X156465710Y-141636753D01*
X156645642Y-141738200D01*
X156741660Y-141809183D01*
X156893289Y-141952344D01*
X157016495Y-142116822D01*
X157046475Y-142167732D01*
X157132502Y-142359481D01*
X157176100Y-142561653D01*
X157179344Y-142632770D01*
X157150412Y-142833476D01*
X157097278Y-142945401D01*
X156937781Y-143063539D01*
X156881367Y-143069476D01*
X155590788Y-143069476D01*
X155537055Y-143119302D01*
X155588891Y-143308451D01*
X155720725Y-143467103D01*
X155887154Y-143579970D01*
X156076261Y-143630760D01*
X156115422Y-143632212D01*
X156312630Y-143605967D01*
X156397766Y-143581409D01*
X156578948Y-143504192D01*
X156654710Y-143456357D01*
X156821772Y-143382107D01*
X156984926Y-143476873D01*
X157061805Y-143658853D01*
X157062107Y-143671290D01*
X157005006Y-143859553D01*
X156863141Y-144016116D01*
X156802233Y-144063056D01*
X156630396Y-144171626D01*
X156449012Y-144257733D01*
X156258079Y-144321377D01*
X156057597Y-144362559D01*
X155847567Y-144381278D01*
X155775436Y-144382526D01*
X155561216Y-144370470D01*
X155360391Y-144334303D01*
X155172961Y-144274025D01*
X154971223Y-144173226D01*
X154787718Y-144039609D01*
X154641040Y-143890674D01*
X154525681Y-143732588D01*
X154467271Y-143631235D01*
X154386986Y-143449927D01*
X154328596Y-143242130D01*
X154302646Y-143027654D01*
X154301186Y-142962009D01*
X154314930Y-142759764D01*
X154356163Y-142566775D01*
X154413333Y-142413928D01*
X155514584Y-142413928D01*
X155545847Y-142537027D01*
X155662107Y-142569267D01*
X155939567Y-142569267D01*
X156082888Y-142427246D01*
X156084159Y-142396343D01*
X156054010Y-142202780D01*
X156006978Y-142113021D01*
X155837504Y-142008195D01*
X155807676Y-142006531D01*
X155629741Y-142090013D01*
X155592742Y-142143307D01*
X155522217Y-142329149D01*
X155514584Y-142413928D01*
X154413333Y-142413928D01*
X154424885Y-142383042D01*
X154521096Y-142208566D01*
X154588415Y-142113021D01*
X154720001Y-141960675D01*
X154868562Y-141828967D01*
X155034098Y-141717897D01*
X155216608Y-141627466D01*
X155418392Y-141558494D01*
X155611649Y-141520637D01*
X155814256Y-141506440D01*
X155835031Y-141506322D01*
X156060404Y-141520814D01*
G37*
G36*
X158645778Y-141506322D02*
G01*
X158811191Y-141615295D01*
X158833356Y-141759357D01*
X158833356Y-141807229D01*
X158830425Y-141877571D01*
X158887090Y-141993831D01*
X159009211Y-141886364D01*
X159158195Y-141747851D01*
X159336725Y-141636641D01*
X159393161Y-141609881D01*
X159583224Y-141542830D01*
X159777156Y-141509963D01*
X159867969Y-141506322D01*
X160063095Y-141523105D01*
X160252093Y-141583387D01*
X160421362Y-141703609D01*
X160533286Y-141857055D01*
X160618283Y-141963545D01*
X160739427Y-141862916D01*
X160904480Y-141723970D01*
X161079070Y-141619151D01*
X161263197Y-141548459D01*
X161456860Y-141511894D01*
X161571807Y-141506322D01*
X161767454Y-141522628D01*
X161960368Y-141578995D01*
X162142820Y-141687500D01*
X162172644Y-141712463D01*
X162302990Y-141867500D01*
X162385059Y-142063944D01*
X162417646Y-142276146D01*
X162419818Y-142354333D01*
X162416521Y-142558948D01*
X162413956Y-142658171D01*
X162408919Y-142861809D01*
X162408100Y-143071411D01*
X162408094Y-143093900D01*
X162407606Y-143293691D01*
X162406140Y-143424117D01*
X162403210Y-143506182D01*
X162443281Y-143699439D01*
X162505792Y-143799274D01*
X162590788Y-143913579D01*
X162609351Y-143997599D01*
X162541421Y-144185089D01*
X162366986Y-144300234D01*
X162165715Y-144354776D01*
X161951864Y-144379396D01*
X161750593Y-144385457D01*
X161552430Y-144378115D01*
X161357264Y-144352737D01*
X161157825Y-144298354D01*
X161142916Y-144292644D01*
X160973215Y-144189046D01*
X160906489Y-144033747D01*
X160924075Y-143938004D01*
X161033496Y-143777780D01*
X161087592Y-143585706D01*
X161104902Y-143385610D01*
X161111935Y-143156631D01*
X161112630Y-143043098D01*
X161107765Y-142835644D01*
X161086890Y-142632136D01*
X161062805Y-142535073D01*
X160922854Y-142391275D01*
X160849825Y-142381688D01*
X160708164Y-142431514D01*
X160627076Y-142556566D01*
X160607953Y-142751765D01*
X160602114Y-142953914D01*
X160600697Y-143079246D01*
X160605338Y-143286120D01*
X160614112Y-143496394D01*
X160628053Y-143634166D01*
X160711217Y-143819729D01*
X160762875Y-143900879D01*
X160795115Y-144023000D01*
X160708676Y-144212594D01*
X160515052Y-144313710D01*
X160297226Y-144360055D01*
X160068162Y-144379366D01*
X159909979Y-144382526D01*
X159698243Y-144378599D01*
X159495643Y-144364494D01*
X159301470Y-144332437D01*
X159204605Y-144300460D01*
X159062453Y-144162716D01*
X159043405Y-144053286D01*
X159064898Y-143940935D01*
X159192882Y-143803182D01*
X159263224Y-143703531D01*
X159287648Y-143522791D01*
X159298772Y-143310523D01*
X159305279Y-143096869D01*
X159307187Y-142901437D01*
X159295500Y-142698918D01*
X159238255Y-142495891D01*
X159077971Y-142382196D01*
X159062944Y-142381688D01*
X158885036Y-142480969D01*
X158849965Y-142591737D01*
X158828458Y-142801310D01*
X158819375Y-143005749D01*
X158816748Y-143221884D01*
X158818396Y-143421735D01*
X158828471Y-143620488D01*
X158892951Y-143810997D01*
X158960623Y-143994975D01*
X158962316Y-144022023D01*
X158885388Y-144204652D01*
X158706511Y-144300395D01*
X158689741Y-144305345D01*
X158493195Y-144349287D01*
X158283718Y-144374988D01*
X158082065Y-144382526D01*
X157881664Y-144377946D01*
X157669287Y-144359342D01*
X157470351Y-144318126D01*
X157443126Y-144309253D01*
X157278468Y-144203552D01*
X157232100Y-144064033D01*
X157262386Y-143953635D01*
X157387438Y-143821744D01*
X157493760Y-143654972D01*
X157521284Y-143523768D01*
X157535924Y-143326592D01*
X157545773Y-143125244D01*
X157550830Y-142919722D01*
X157551570Y-142803740D01*
X157546895Y-142604720D01*
X157527145Y-142442260D01*
X157426517Y-142284968D01*
X157312212Y-142177501D01*
X157284856Y-142069057D01*
X157371986Y-141880314D01*
X157538407Y-141777297D01*
X157593579Y-141755450D01*
X157803709Y-141684452D01*
X157996904Y-141625333D01*
X158206385Y-141570069D01*
X158419957Y-141527213D01*
X158623396Y-141506743D01*
X158645778Y-141506322D01*
G37*
G36*
X165678995Y-141506322D02*
G01*
X165891752Y-141518477D01*
X166093196Y-141554941D01*
X166283327Y-141615716D01*
X166462144Y-141700800D01*
X166559246Y-141760334D01*
X166720385Y-141891554D01*
X166846635Y-142057422D01*
X166914615Y-142242611D01*
X166927564Y-142376803D01*
X166894091Y-142583116D01*
X166793673Y-142752403D01*
X166752686Y-142793970D01*
X166585833Y-142901962D01*
X166389356Y-142943836D01*
X166360921Y-142944424D01*
X166157431Y-142903852D01*
X165998582Y-142771136D01*
X165990648Y-142759776D01*
X165915727Y-142576777D01*
X165882205Y-142473524D01*
X165777493Y-142304292D01*
X165630146Y-142256636D01*
X165442408Y-142331173D01*
X165398604Y-142378757D01*
X165315036Y-142564707D01*
X165303838Y-142682595D01*
X165330736Y-142893132D01*
X165411430Y-143086814D01*
X165531472Y-143248262D01*
X165696183Y-143375405D01*
X165891852Y-143437729D01*
X165992602Y-143444633D01*
X166192210Y-143428925D01*
X166215352Y-143424117D01*
X166401049Y-143362102D01*
X166454710Y-143340097D01*
X166552407Y-143319581D01*
X166729979Y-143405447D01*
X166739986Y-143417278D01*
X166818141Y-143602750D01*
X166820097Y-143641981D01*
X166765084Y-143837017D01*
X166713607Y-143915533D01*
X166573713Y-144062056D01*
X166437124Y-144159776D01*
X166246737Y-144257229D01*
X166039986Y-144326838D01*
X165845654Y-144364906D01*
X165638794Y-144381656D01*
X165577390Y-144382526D01*
X165366879Y-144370676D01*
X165168390Y-144335127D01*
X164981922Y-144275879D01*
X164779569Y-144176804D01*
X164593579Y-144045471D01*
X164443003Y-143906071D01*
X164317948Y-143755318D01*
X164201570Y-143559427D01*
X164121943Y-143347188D01*
X164079067Y-143118599D01*
X164070900Y-142957124D01*
X164088004Y-142726052D01*
X164139318Y-142510572D01*
X164224841Y-142310686D01*
X164344574Y-142126393D01*
X164498516Y-141957694D01*
X164557431Y-141904926D01*
X164737660Y-141769463D01*
X164931764Y-141662027D01*
X165139745Y-141582617D01*
X165361601Y-141531235D01*
X165557081Y-141509825D01*
X165678995Y-141506322D01*
G37*
G36*
X168659734Y-142113998D02*
G01*
X168659734Y-142997180D01*
X168660284Y-143198452D01*
X168662726Y-143412530D01*
X168670054Y-143617328D01*
X168675366Y-143667383D01*
X168795533Y-143800251D01*
X168943056Y-143892086D01*
X168984089Y-144021046D01*
X168912770Y-144205694D01*
X168746595Y-144314319D01*
X168725191Y-144320976D01*
X168516524Y-144360827D01*
X168319168Y-144376515D01*
X168107410Y-144382285D01*
X168049127Y-144382526D01*
X167829665Y-144378552D01*
X167616059Y-144364279D01*
X167404865Y-144331841D01*
X167293928Y-144299483D01*
X167130437Y-144190941D01*
X167117096Y-144175408D01*
X167047732Y-143996622D01*
X167087787Y-143873524D01*
X167249965Y-143777780D01*
X167352463Y-143609844D01*
X167363293Y-143542330D01*
X167382527Y-143342356D01*
X167394849Y-143135823D01*
X167402062Y-142935353D01*
X167406184Y-142713245D01*
X167407257Y-142511625D01*
X167406351Y-142311179D01*
X167402870Y-142102443D01*
X167395510Y-141902762D01*
X167378833Y-141699411D01*
X167370132Y-141645052D01*
X167289538Y-141457089D01*
X167192323Y-141368569D01*
X167035458Y-141249424D01*
X167022330Y-141232770D01*
X166975436Y-141068639D01*
X167052922Y-140883258D01*
X167113189Y-140832212D01*
X167288799Y-140738911D01*
X167487234Y-140669578D01*
X167540125Y-140654403D01*
X167743629Y-140606718D01*
X167942290Y-140569807D01*
X168034473Y-140554752D01*
X168240003Y-140524985D01*
X168442236Y-140506666D01*
X168479972Y-140505903D01*
X168666085Y-140581130D01*
X168727153Y-140770372D01*
X168728122Y-140806810D01*
X168717437Y-141007624D01*
X168700767Y-141214207D01*
X168686782Y-141424895D01*
X168675602Y-141627821D01*
X168666260Y-141850235D01*
X168660582Y-142062512D01*
X168659734Y-142113998D01*
G37*
G36*
X170878568Y-141518150D02*
G01*
X171070816Y-141553633D01*
X171273354Y-141623150D01*
X171457574Y-141723564D01*
X171500767Y-141753496D01*
X171648000Y-141888478D01*
X171756734Y-142062219D01*
X171809327Y-142251597D01*
X171828862Y-142459831D01*
X171830006Y-142532142D01*
X171824145Y-142941493D01*
X171828704Y-143153523D01*
X171846661Y-143348234D01*
X171881786Y-143479804D01*
X171927704Y-143544284D01*
X172031263Y-143569685D01*
X172145568Y-143716231D01*
X172097603Y-143906389D01*
X172034193Y-144008346D01*
X171899249Y-144153102D01*
X171750872Y-144257473D01*
X171560401Y-144342958D01*
X171361701Y-144380572D01*
X171303419Y-144382526D01*
X171093996Y-144352988D01*
X170907121Y-144254322D01*
X170823726Y-144172477D01*
X170740683Y-144112882D01*
X170613677Y-144176385D01*
X170429255Y-144285092D01*
X170230140Y-144353537D01*
X170016332Y-144381720D01*
X169971807Y-144382526D01*
X169774580Y-144369852D01*
X169581361Y-144326041D01*
X169400336Y-144241704D01*
X169370969Y-144222302D01*
X169219604Y-144082099D01*
X169129658Y-143944842D01*
X169061050Y-143757737D01*
X169041730Y-143585317D01*
X169063388Y-143433886D01*
X170219958Y-143433886D01*
X170274668Y-143624396D01*
X170419260Y-143694738D01*
X170576696Y-143575913D01*
X170607631Y-143378419D01*
X170607815Y-143357683D01*
X170582414Y-143174989D01*
X170486671Y-143132002D01*
X170305161Y-143215437D01*
X170300069Y-143220907D01*
X170221209Y-143403203D01*
X170219958Y-143433886D01*
X169063388Y-143433886D01*
X169070129Y-143386755D01*
X169155326Y-143204817D01*
X169282065Y-143053845D01*
X169460882Y-142914758D01*
X169641614Y-142822480D01*
X169847694Y-142755069D01*
X170079122Y-142712525D01*
X170291341Y-142696067D01*
X170381158Y-142694319D01*
X170559944Y-142669895D01*
X170591207Y-142541912D01*
X170582016Y-142332785D01*
X170538945Y-142136391D01*
X170535519Y-142128653D01*
X170378841Y-142007008D01*
X170364549Y-142006531D01*
X170234612Y-142055380D01*
X170105850Y-142208719D01*
X170083182Y-142241981D01*
X169954344Y-142412524D01*
X169805021Y-142546141D01*
X169616220Y-142625702D01*
X169545847Y-142631793D01*
X169354239Y-142581235D01*
X169303558Y-142541912D01*
X169214257Y-142368079D01*
X169209769Y-142307438D01*
X169261949Y-142110472D01*
X169320167Y-142022163D01*
X169460009Y-141883164D01*
X169619120Y-141777920D01*
X169809744Y-141685619D01*
X170003528Y-141612415D01*
X170200472Y-141558307D01*
X170400575Y-141523297D01*
X170603839Y-141507383D01*
X170672295Y-141506322D01*
X170878568Y-141518150D01*
G37*
G36*
X175102861Y-142434445D02*
G01*
X174391625Y-143801228D01*
X174291696Y-143983418D01*
X174183618Y-144152678D01*
X174103419Y-144252588D01*
X173942448Y-144364253D01*
X173836706Y-144382526D01*
X173646296Y-144319915D01*
X173605163Y-144279944D01*
X173473977Y-144119946D01*
X173365190Y-143957371D01*
X173307187Y-143855938D01*
X172526587Y-142392435D01*
X172411304Y-142238073D01*
X172259874Y-142162847D01*
X172086217Y-142057822D01*
X172028332Y-141887341D01*
X172104984Y-141702441D01*
X172283220Y-141599859D01*
X172299930Y-141594249D01*
X172498014Y-141547881D01*
X172697286Y-141523152D01*
X172901402Y-141510529D01*
X173098460Y-141506408D01*
X173133286Y-141506322D01*
X173354387Y-141511085D01*
X173567654Y-141527829D01*
X173760568Y-141560572D01*
X173839637Y-141582526D01*
X174015491Y-141682665D01*
X174074110Y-141830676D01*
X173998650Y-142016274D01*
X173959804Y-142056357D01*
X173881646Y-142145261D01*
X173866015Y-142207787D01*
X173936974Y-142401464D01*
X173982274Y-142481339D01*
X174094204Y-142647522D01*
X174180600Y-142694319D01*
X174272435Y-142649378D01*
X174379077Y-142475665D01*
X174425819Y-142390481D01*
X174505641Y-142211497D01*
X174506908Y-142199972D01*
X174425819Y-142073942D01*
X174333151Y-141898437D01*
X174325191Y-141833607D01*
X174398083Y-141650502D01*
X174511793Y-141580572D01*
X174717438Y-141529815D01*
X174915160Y-141510963D01*
X175103838Y-141506322D01*
X175305040Y-141518171D01*
X175508556Y-141570836D01*
X175658879Y-141695915D01*
X175695882Y-141843377D01*
X175626330Y-142031562D01*
X175476064Y-142129630D01*
X175297819Y-142211752D01*
X175269923Y-142230258D01*
X175137078Y-142385925D01*
X175102861Y-142434445D01*
G37*
G36*
X177200418Y-141710509D02*
G01*
X177200418Y-143330327D01*
X177213882Y-143530643D01*
X177231681Y-143599972D01*
X177360642Y-143751402D01*
X177482763Y-143865708D01*
X177515980Y-143991737D01*
X177442409Y-144180644D01*
X177253488Y-144296659D01*
X177035501Y-144351614D01*
X176803890Y-144376420D01*
X176585903Y-144382526D01*
X176382155Y-144378692D01*
X176172656Y-144364923D01*
X175966748Y-144337463D01*
X175810188Y-144302414D01*
X175643407Y-144198808D01*
X175639218Y-144193970D01*
X175573761Y-144014207D01*
X175607955Y-143880362D01*
X175755474Y-143747555D01*
X175771109Y-143735771D01*
X175873924Y-143564699D01*
X175880530Y-143539399D01*
X175908179Y-143336651D01*
X175914690Y-143132164D01*
X175914724Y-143114417D01*
X175908721Y-142911951D01*
X175902023Y-142769546D01*
X175891765Y-142569267D01*
X175884438Y-142474501D01*
X175756165Y-142325554D01*
X175748639Y-142322093D01*
X175591202Y-142192355D01*
X175560083Y-142069057D01*
X175637054Y-141885165D01*
X175803349Y-141785736D01*
X176001205Y-141716508D01*
X176207647Y-141654150D01*
X176400787Y-141603901D01*
X176466713Y-141588387D01*
X176672907Y-141545111D01*
X176879537Y-141514336D01*
X177017725Y-141506322D01*
X177185967Y-141611805D01*
X177200418Y-141710509D01*
G37*
G36*
X176624982Y-140505903D02*
G01*
X176822933Y-140524790D01*
X177014028Y-140598507D01*
X177023586Y-140604577D01*
X177153722Y-140755321D01*
X177175017Y-140873244D01*
X177125214Y-141069979D01*
X176988866Y-141215250D01*
X176948360Y-141241563D01*
X176768475Y-141330040D01*
X176570760Y-141393237D01*
X176355216Y-141431156D01*
X176151989Y-141443598D01*
X176121842Y-141443796D01*
X175922653Y-141420359D01*
X175786741Y-141360753D01*
X175651050Y-141219954D01*
X175612840Y-141054961D01*
X175671853Y-140860942D01*
X175831084Y-140716480D01*
X175970411Y-140647564D01*
X176163199Y-140579085D01*
X176369432Y-140529283D01*
X176567268Y-140507148D01*
X176624982Y-140505903D01*
G37*
G36*
X180998883Y-142547773D02*
G01*
X181036985Y-143528653D01*
X181068248Y-143680083D01*
X181192050Y-143831810D01*
X181232379Y-143875478D01*
X181281228Y-144023000D01*
X181208275Y-144214105D01*
X181050662Y-144306322D01*
X180853454Y-144349707D01*
X180633541Y-144371810D01*
X180426060Y-144380665D01*
X180258339Y-144382526D01*
X180058493Y-144377039D01*
X179862513Y-144355430D01*
X179709281Y-144313161D01*
X179558370Y-144185906D01*
X179528541Y-144059148D01*
X179548080Y-143962428D01*
X179662386Y-143825652D01*
X179732511Y-143626980D01*
X179754950Y-143420258D01*
X179763365Y-143220739D01*
X179764968Y-143066545D01*
X179758245Y-142869790D01*
X179731766Y-142672551D01*
X179679972Y-142511625D01*
X179524084Y-142389809D01*
X179444521Y-142381688D01*
X179254562Y-142442688D01*
X179216887Y-142490132D01*
X179164680Y-142688482D01*
X179154422Y-142885449D01*
X179154361Y-142904368D01*
X179154361Y-143455380D01*
X179167576Y-143651078D01*
X179172923Y-143671290D01*
X179273362Y-143849678D01*
X179306769Y-143900879D01*
X179341939Y-144030816D01*
X179257901Y-144215897D01*
X179103558Y-144300460D01*
X178910695Y-144347183D01*
X178709793Y-144370985D01*
X178498645Y-144381243D01*
X178381577Y-144382526D01*
X178152475Y-144373748D01*
X177928810Y-144340043D01*
X177738539Y-144268770D01*
X177598748Y-144107264D01*
X177586322Y-144023000D01*
X177613677Y-143903810D01*
X177733845Y-143791458D01*
X177812979Y-143681060D01*
X177837754Y-143482777D01*
X177847173Y-143346936D01*
X177857477Y-143140646D01*
X177863965Y-142928441D01*
X177866541Y-142732399D01*
X177866713Y-142665987D01*
X177854707Y-142468685D01*
X177841311Y-142421744D01*
X177693992Y-142289213D01*
X177685973Y-142283991D01*
X177561409Y-142130484D01*
X177553105Y-142069057D01*
X177644982Y-141890455D01*
X177657641Y-141881479D01*
X177839094Y-141793380D01*
X178029787Y-141724686D01*
X178066992Y-141712463D01*
X178262951Y-141651097D01*
X178453689Y-141597424D01*
X178577948Y-141565917D01*
X178776185Y-141523141D01*
X178919888Y-141506322D01*
X179081088Y-141577641D01*
X179146545Y-141744703D01*
X179143614Y-141817976D01*
X179140683Y-141854124D01*
X179219818Y-141957683D01*
X179334124Y-141865847D01*
X179470594Y-141708555D01*
X179634787Y-141596203D01*
X179826700Y-141528792D01*
X180046336Y-141506322D01*
X180259800Y-141524831D01*
X180453229Y-141580358D01*
X180626623Y-141672903D01*
X180658897Y-141695854D01*
X180804298Y-141834386D01*
X180906391Y-142004867D01*
X180910956Y-142016301D01*
X180962888Y-142207948D01*
X180988999Y-142403130D01*
X180998883Y-142547773D01*
G37*
G36*
X183106880Y-141520814D02*
G01*
X183317106Y-141564291D01*
X183512186Y-141636753D01*
X183692118Y-141738200D01*
X183788136Y-141809183D01*
X183939765Y-141952344D01*
X184062971Y-142116822D01*
X184092951Y-142167732D01*
X184178978Y-142359481D01*
X184222576Y-142561653D01*
X184225819Y-142632770D01*
X184196888Y-142833476D01*
X184143754Y-142945401D01*
X183984257Y-143063539D01*
X183927843Y-143069476D01*
X182637264Y-143069476D01*
X182583531Y-143119302D01*
X182635367Y-143308451D01*
X182767201Y-143467103D01*
X182933630Y-143579970D01*
X183122737Y-143630760D01*
X183161898Y-143632212D01*
X183359106Y-143605967D01*
X183444242Y-143581409D01*
X183625424Y-143504192D01*
X183701186Y-143456357D01*
X183868248Y-143382107D01*
X184031402Y-143476873D01*
X184108281Y-143658853D01*
X184108583Y-143671290D01*
X184051482Y-143859553D01*
X183909617Y-144016116D01*
X183848709Y-144063056D01*
X183676872Y-144171626D01*
X183495488Y-144257733D01*
X183304555Y-144321377D01*
X183104073Y-144362559D01*
X182894043Y-144381278D01*
X182821912Y-144382526D01*
X182607692Y-144370470D01*
X182406867Y-144334303D01*
X182219437Y-144274025D01*
X182017699Y-144173226D01*
X181834193Y-144039609D01*
X181687516Y-143890674D01*
X181572157Y-143732588D01*
X181513747Y-143631235D01*
X181433462Y-143449927D01*
X181375072Y-143242130D01*
X181349121Y-143027654D01*
X181347662Y-142962009D01*
X181361406Y-142759764D01*
X181402639Y-142566775D01*
X181459809Y-142413928D01*
X182561060Y-142413928D01*
X182592323Y-142537027D01*
X182708583Y-142569267D01*
X182986043Y-142569267D01*
X183129364Y-142427246D01*
X183130635Y-142396343D01*
X183100486Y-142202780D01*
X183053454Y-142113021D01*
X182883980Y-142008195D01*
X182854152Y-142006531D01*
X182676217Y-142090013D01*
X182639218Y-142143307D01*
X182568693Y-142329149D01*
X182561060Y-142413928D01*
X181459809Y-142413928D01*
X181471361Y-142383042D01*
X181567572Y-142208566D01*
X181634891Y-142113021D01*
X181766477Y-141960675D01*
X181915038Y-141828967D01*
X182080573Y-141717897D01*
X182263084Y-141627466D01*
X182464868Y-141558494D01*
X182658125Y-141520637D01*
X182860732Y-141506440D01*
X182881507Y-141506322D01*
X183106880Y-141520814D01*
G37*
G36*
X186003907Y-142288876D02*
G01*
X186003907Y-143179874D01*
X186048033Y-143375197D01*
X186076203Y-143417278D01*
X186253927Y-143507072D01*
X186260851Y-143507159D01*
X186448796Y-143453304D01*
X186528541Y-143411416D01*
X186626238Y-143382107D01*
X186770830Y-143474919D01*
X186833295Y-143666662D01*
X186833356Y-143673244D01*
X186777659Y-143869108D01*
X186648149Y-144022126D01*
X186636008Y-144032770D01*
X186480292Y-144151632D01*
X186283776Y-144259223D01*
X186071273Y-144333341D01*
X185876401Y-144370230D01*
X185669783Y-144382526D01*
X185455033Y-144366589D01*
X185262142Y-144318778D01*
X185071269Y-144226892D01*
X184941939Y-144127536D01*
X184808760Y-143970727D01*
X184719167Y-143788260D01*
X184673160Y-143580136D01*
X184666434Y-143453426D01*
X184666434Y-142193133D01*
X184660572Y-142137445D01*
X184603907Y-142131584D01*
X184321563Y-142131584D01*
X184196510Y-142094459D01*
X184166224Y-141946936D01*
X184166224Y-141819930D01*
X184243405Y-141669476D01*
X185503698Y-140847843D01*
X185634612Y-140818534D01*
X185857362Y-140818534D01*
X185972644Y-140862498D01*
X186003907Y-141012951D01*
X186003907Y-141399832D01*
X186020516Y-141489713D01*
X186109420Y-141506322D01*
X186617445Y-141506322D01*
X186772784Y-141556147D01*
X186810886Y-141743726D01*
X186810886Y-141915673D01*
X186774982Y-142112182D01*
X186763991Y-142129630D01*
X186600837Y-142194110D01*
X186104535Y-142194110D01*
X186021493Y-142211695D01*
X186003907Y-142288876D01*
G37*
D11*
X159583333Y-57859580D02*
X159535714Y-57907200D01*
X159535714Y-57907200D02*
X159392857Y-57954819D01*
X159392857Y-57954819D02*
X159297619Y-57954819D01*
X159297619Y-57954819D02*
X159154762Y-57907200D01*
X159154762Y-57907200D02*
X159059524Y-57811961D01*
X159059524Y-57811961D02*
X159011905Y-57716723D01*
X159011905Y-57716723D02*
X158964286Y-57526247D01*
X158964286Y-57526247D02*
X158964286Y-57383390D01*
X158964286Y-57383390D02*
X159011905Y-57192914D01*
X159011905Y-57192914D02*
X159059524Y-57097676D01*
X159059524Y-57097676D02*
X159154762Y-57002438D01*
X159154762Y-57002438D02*
X159297619Y-56954819D01*
X159297619Y-56954819D02*
X159392857Y-56954819D01*
X159392857Y-56954819D02*
X159535714Y-57002438D01*
X159535714Y-57002438D02*
X159583333Y-57050057D01*
X159964286Y-57050057D02*
X160011905Y-57002438D01*
X160011905Y-57002438D02*
X160107143Y-56954819D01*
X160107143Y-56954819D02*
X160345238Y-56954819D01*
X160345238Y-56954819D02*
X160440476Y-57002438D01*
X160440476Y-57002438D02*
X160488095Y-57050057D01*
X160488095Y-57050057D02*
X160535714Y-57145295D01*
X160535714Y-57145295D02*
X160535714Y-57240533D01*
X160535714Y-57240533D02*
X160488095Y-57383390D01*
X160488095Y-57383390D02*
X159916667Y-57954819D01*
X159916667Y-57954819D02*
X160535714Y-57954819D01*
X154357200Y-102283332D02*
X154404819Y-102140475D01*
X154404819Y-102140475D02*
X154404819Y-101902380D01*
X154404819Y-101902380D02*
X154357200Y-101807142D01*
X154357200Y-101807142D02*
X154309580Y-101759523D01*
X154309580Y-101759523D02*
X154214342Y-101711904D01*
X154214342Y-101711904D02*
X154119104Y-101711904D01*
X154119104Y-101711904D02*
X154023866Y-101759523D01*
X154023866Y-101759523D02*
X153976247Y-101807142D01*
X153976247Y-101807142D02*
X153928628Y-101902380D01*
X153928628Y-101902380D02*
X153881009Y-102092856D01*
X153881009Y-102092856D02*
X153833390Y-102188094D01*
X153833390Y-102188094D02*
X153785771Y-102235713D01*
X153785771Y-102235713D02*
X153690533Y-102283332D01*
X153690533Y-102283332D02*
X153595295Y-102283332D01*
X153595295Y-102283332D02*
X153500057Y-102235713D01*
X153500057Y-102235713D02*
X153452438Y-102188094D01*
X153452438Y-102188094D02*
X153404819Y-102092856D01*
X153404819Y-102092856D02*
X153404819Y-101854761D01*
X153404819Y-101854761D02*
X153452438Y-101711904D01*
X153404819Y-101378570D02*
X154404819Y-101140475D01*
X154404819Y-101140475D02*
X153690533Y-100949999D01*
X153690533Y-100949999D02*
X154404819Y-100759523D01*
X154404819Y-100759523D02*
X153404819Y-100521428D01*
X153404819Y-100235713D02*
X153404819Y-99616666D01*
X153404819Y-99616666D02*
X153785771Y-99949999D01*
X153785771Y-99949999D02*
X153785771Y-99807142D01*
X153785771Y-99807142D02*
X153833390Y-99711904D01*
X153833390Y-99711904D02*
X153881009Y-99664285D01*
X153881009Y-99664285D02*
X153976247Y-99616666D01*
X153976247Y-99616666D02*
X154214342Y-99616666D01*
X154214342Y-99616666D02*
X154309580Y-99664285D01*
X154309580Y-99664285D02*
X154357200Y-99711904D01*
X154357200Y-99711904D02*
X154404819Y-99807142D01*
X154404819Y-99807142D02*
X154404819Y-100092856D01*
X154404819Y-100092856D02*
X154357200Y-100188094D01*
X154357200Y-100188094D02*
X154309580Y-100235713D01*
X135083333Y-58359580D02*
X135035714Y-58407200D01*
X135035714Y-58407200D02*
X134892857Y-58454819D01*
X134892857Y-58454819D02*
X134797619Y-58454819D01*
X134797619Y-58454819D02*
X134654762Y-58407200D01*
X134654762Y-58407200D02*
X134559524Y-58311961D01*
X134559524Y-58311961D02*
X134511905Y-58216723D01*
X134511905Y-58216723D02*
X134464286Y-58026247D01*
X134464286Y-58026247D02*
X134464286Y-57883390D01*
X134464286Y-57883390D02*
X134511905Y-57692914D01*
X134511905Y-57692914D02*
X134559524Y-57597676D01*
X134559524Y-57597676D02*
X134654762Y-57502438D01*
X134654762Y-57502438D02*
X134797619Y-57454819D01*
X134797619Y-57454819D02*
X134892857Y-57454819D01*
X134892857Y-57454819D02*
X135035714Y-57502438D01*
X135035714Y-57502438D02*
X135083333Y-57550057D01*
X135416667Y-57454819D02*
X136083333Y-57454819D01*
X136083333Y-57454819D02*
X135654762Y-58454819D01*
X159583333Y-52359580D02*
X159535714Y-52407200D01*
X159535714Y-52407200D02*
X159392857Y-52454819D01*
X159392857Y-52454819D02*
X159297619Y-52454819D01*
X159297619Y-52454819D02*
X159154762Y-52407200D01*
X159154762Y-52407200D02*
X159059524Y-52311961D01*
X159059524Y-52311961D02*
X159011905Y-52216723D01*
X159011905Y-52216723D02*
X158964286Y-52026247D01*
X158964286Y-52026247D02*
X158964286Y-51883390D01*
X158964286Y-51883390D02*
X159011905Y-51692914D01*
X159011905Y-51692914D02*
X159059524Y-51597676D01*
X159059524Y-51597676D02*
X159154762Y-51502438D01*
X159154762Y-51502438D02*
X159297619Y-51454819D01*
X159297619Y-51454819D02*
X159392857Y-51454819D01*
X159392857Y-51454819D02*
X159535714Y-51502438D01*
X159535714Y-51502438D02*
X159583333Y-51550057D01*
X160154762Y-51883390D02*
X160059524Y-51835771D01*
X160059524Y-51835771D02*
X160011905Y-51788152D01*
X160011905Y-51788152D02*
X159964286Y-51692914D01*
X159964286Y-51692914D02*
X159964286Y-51645295D01*
X159964286Y-51645295D02*
X160011905Y-51550057D01*
X160011905Y-51550057D02*
X160059524Y-51502438D01*
X160059524Y-51502438D02*
X160154762Y-51454819D01*
X160154762Y-51454819D02*
X160345238Y-51454819D01*
X160345238Y-51454819D02*
X160440476Y-51502438D01*
X160440476Y-51502438D02*
X160488095Y-51550057D01*
X160488095Y-51550057D02*
X160535714Y-51645295D01*
X160535714Y-51645295D02*
X160535714Y-51692914D01*
X160535714Y-51692914D02*
X160488095Y-51788152D01*
X160488095Y-51788152D02*
X160440476Y-51835771D01*
X160440476Y-51835771D02*
X160345238Y-51883390D01*
X160345238Y-51883390D02*
X160154762Y-51883390D01*
X160154762Y-51883390D02*
X160059524Y-51931009D01*
X160059524Y-51931009D02*
X160011905Y-51978628D01*
X160011905Y-51978628D02*
X159964286Y-52073866D01*
X159964286Y-52073866D02*
X159964286Y-52264342D01*
X159964286Y-52264342D02*
X160011905Y-52359580D01*
X160011905Y-52359580D02*
X160059524Y-52407200D01*
X160059524Y-52407200D02*
X160154762Y-52454819D01*
X160154762Y-52454819D02*
X160345238Y-52454819D01*
X160345238Y-52454819D02*
X160440476Y-52407200D01*
X160440476Y-52407200D02*
X160488095Y-52359580D01*
X160488095Y-52359580D02*
X160535714Y-52264342D01*
X160535714Y-52264342D02*
X160535714Y-52073866D01*
X160535714Y-52073866D02*
X160488095Y-51978628D01*
X160488095Y-51978628D02*
X160440476Y-51931009D01*
X160440476Y-51931009D02*
X160345238Y-51883390D01*
X185207142Y-64044819D02*
X184873809Y-63568628D01*
X184635714Y-64044819D02*
X184635714Y-63044819D01*
X184635714Y-63044819D02*
X185016666Y-63044819D01*
X185016666Y-63044819D02*
X185111904Y-63092438D01*
X185111904Y-63092438D02*
X185159523Y-63140057D01*
X185159523Y-63140057D02*
X185207142Y-63235295D01*
X185207142Y-63235295D02*
X185207142Y-63378152D01*
X185207142Y-63378152D02*
X185159523Y-63473390D01*
X185159523Y-63473390D02*
X185111904Y-63521009D01*
X185111904Y-63521009D02*
X185016666Y-63568628D01*
X185016666Y-63568628D02*
X184635714Y-63568628D01*
X186159523Y-64044819D02*
X185588095Y-64044819D01*
X185873809Y-64044819D02*
X185873809Y-63044819D01*
X185873809Y-63044819D02*
X185778571Y-63187676D01*
X185778571Y-63187676D02*
X185683333Y-63282914D01*
X185683333Y-63282914D02*
X185588095Y-63330533D01*
X186778571Y-63044819D02*
X186873809Y-63044819D01*
X186873809Y-63044819D02*
X186969047Y-63092438D01*
X186969047Y-63092438D02*
X187016666Y-63140057D01*
X187016666Y-63140057D02*
X187064285Y-63235295D01*
X187064285Y-63235295D02*
X187111904Y-63425771D01*
X187111904Y-63425771D02*
X187111904Y-63663866D01*
X187111904Y-63663866D02*
X187064285Y-63854342D01*
X187064285Y-63854342D02*
X187016666Y-63949580D01*
X187016666Y-63949580D02*
X186969047Y-63997200D01*
X186969047Y-63997200D02*
X186873809Y-64044819D01*
X186873809Y-64044819D02*
X186778571Y-64044819D01*
X186778571Y-64044819D02*
X186683333Y-63997200D01*
X186683333Y-63997200D02*
X186635714Y-63949580D01*
X186635714Y-63949580D02*
X186588095Y-63854342D01*
X186588095Y-63854342D02*
X186540476Y-63663866D01*
X186540476Y-63663866D02*
X186540476Y-63425771D01*
X186540476Y-63425771D02*
X186588095Y-63235295D01*
X186588095Y-63235295D02*
X186635714Y-63140057D01*
X186635714Y-63140057D02*
X186683333Y-63092438D01*
X186683333Y-63092438D02*
X186778571Y-63044819D01*
X114357200Y-102283332D02*
X114404819Y-102140475D01*
X114404819Y-102140475D02*
X114404819Y-101902380D01*
X114404819Y-101902380D02*
X114357200Y-101807142D01*
X114357200Y-101807142D02*
X114309580Y-101759523D01*
X114309580Y-101759523D02*
X114214342Y-101711904D01*
X114214342Y-101711904D02*
X114119104Y-101711904D01*
X114119104Y-101711904D02*
X114023866Y-101759523D01*
X114023866Y-101759523D02*
X113976247Y-101807142D01*
X113976247Y-101807142D02*
X113928628Y-101902380D01*
X113928628Y-101902380D02*
X113881009Y-102092856D01*
X113881009Y-102092856D02*
X113833390Y-102188094D01*
X113833390Y-102188094D02*
X113785771Y-102235713D01*
X113785771Y-102235713D02*
X113690533Y-102283332D01*
X113690533Y-102283332D02*
X113595295Y-102283332D01*
X113595295Y-102283332D02*
X113500057Y-102235713D01*
X113500057Y-102235713D02*
X113452438Y-102188094D01*
X113452438Y-102188094D02*
X113404819Y-102092856D01*
X113404819Y-102092856D02*
X113404819Y-101854761D01*
X113404819Y-101854761D02*
X113452438Y-101711904D01*
X113404819Y-101378570D02*
X114404819Y-101140475D01*
X114404819Y-101140475D02*
X113690533Y-100949999D01*
X113690533Y-100949999D02*
X114404819Y-100759523D01*
X114404819Y-100759523D02*
X113404819Y-100521428D01*
X114404819Y-99616666D02*
X114404819Y-100188094D01*
X114404819Y-99902380D02*
X113404819Y-99902380D01*
X113404819Y-99902380D02*
X113547676Y-99997618D01*
X113547676Y-99997618D02*
X113642914Y-100092856D01*
X113642914Y-100092856D02*
X113690533Y-100188094D01*
X164523333Y-64084819D02*
X164190000Y-63608628D01*
X163951905Y-64084819D02*
X163951905Y-63084819D01*
X163951905Y-63084819D02*
X164332857Y-63084819D01*
X164332857Y-63084819D02*
X164428095Y-63132438D01*
X164428095Y-63132438D02*
X164475714Y-63180057D01*
X164475714Y-63180057D02*
X164523333Y-63275295D01*
X164523333Y-63275295D02*
X164523333Y-63418152D01*
X164523333Y-63418152D02*
X164475714Y-63513390D01*
X164475714Y-63513390D02*
X164428095Y-63561009D01*
X164428095Y-63561009D02*
X164332857Y-63608628D01*
X164332857Y-63608628D02*
X163951905Y-63608628D01*
X165428095Y-63084819D02*
X164951905Y-63084819D01*
X164951905Y-63084819D02*
X164904286Y-63561009D01*
X164904286Y-63561009D02*
X164951905Y-63513390D01*
X164951905Y-63513390D02*
X165047143Y-63465771D01*
X165047143Y-63465771D02*
X165285238Y-63465771D01*
X165285238Y-63465771D02*
X165380476Y-63513390D01*
X165380476Y-63513390D02*
X165428095Y-63561009D01*
X165428095Y-63561009D02*
X165475714Y-63656247D01*
X165475714Y-63656247D02*
X165475714Y-63894342D01*
X165475714Y-63894342D02*
X165428095Y-63989580D01*
X165428095Y-63989580D02*
X165380476Y-64037200D01*
X165380476Y-64037200D02*
X165285238Y-64084819D01*
X165285238Y-64084819D02*
X165047143Y-64084819D01*
X165047143Y-64084819D02*
X164951905Y-64037200D01*
X164951905Y-64037200D02*
X164904286Y-63989580D01*
X168604819Y-133005238D02*
X168128628Y-133338571D01*
X168604819Y-133576666D02*
X167604819Y-133576666D01*
X167604819Y-133576666D02*
X167604819Y-133195714D01*
X167604819Y-133195714D02*
X167652438Y-133100476D01*
X167652438Y-133100476D02*
X167700057Y-133052857D01*
X167700057Y-133052857D02*
X167795295Y-133005238D01*
X167795295Y-133005238D02*
X167938152Y-133005238D01*
X167938152Y-133005238D02*
X168033390Y-133052857D01*
X168033390Y-133052857D02*
X168081009Y-133100476D01*
X168081009Y-133100476D02*
X168128628Y-133195714D01*
X168128628Y-133195714D02*
X168128628Y-133576666D01*
X167604819Y-132719523D02*
X168604819Y-132386190D01*
X168604819Y-132386190D02*
X167604819Y-132052857D01*
X168604819Y-131195714D02*
X168604819Y-131767142D01*
X168604819Y-131481428D02*
X167604819Y-131481428D01*
X167604819Y-131481428D02*
X167747676Y-131576666D01*
X167747676Y-131576666D02*
X167842914Y-131671904D01*
X167842914Y-131671904D02*
X167890533Y-131767142D01*
X164333333Y-68584819D02*
X164000000Y-68108628D01*
X163761905Y-68584819D02*
X163761905Y-67584819D01*
X163761905Y-67584819D02*
X164142857Y-67584819D01*
X164142857Y-67584819D02*
X164238095Y-67632438D01*
X164238095Y-67632438D02*
X164285714Y-67680057D01*
X164285714Y-67680057D02*
X164333333Y-67775295D01*
X164333333Y-67775295D02*
X164333333Y-67918152D01*
X164333333Y-67918152D02*
X164285714Y-68013390D01*
X164285714Y-68013390D02*
X164238095Y-68061009D01*
X164238095Y-68061009D02*
X164142857Y-68108628D01*
X164142857Y-68108628D02*
X163761905Y-68108628D01*
X164714286Y-67680057D02*
X164761905Y-67632438D01*
X164761905Y-67632438D02*
X164857143Y-67584819D01*
X164857143Y-67584819D02*
X165095238Y-67584819D01*
X165095238Y-67584819D02*
X165190476Y-67632438D01*
X165190476Y-67632438D02*
X165238095Y-67680057D01*
X165238095Y-67680057D02*
X165285714Y-67775295D01*
X165285714Y-67775295D02*
X165285714Y-67870533D01*
X165285714Y-67870533D02*
X165238095Y-68013390D01*
X165238095Y-68013390D02*
X164666667Y-68584819D01*
X164666667Y-68584819D02*
X165285714Y-68584819D01*
X124373333Y-63544819D02*
X124040000Y-63068628D01*
X123801905Y-63544819D02*
X123801905Y-62544819D01*
X123801905Y-62544819D02*
X124182857Y-62544819D01*
X124182857Y-62544819D02*
X124278095Y-62592438D01*
X124278095Y-62592438D02*
X124325714Y-62640057D01*
X124325714Y-62640057D02*
X124373333Y-62735295D01*
X124373333Y-62735295D02*
X124373333Y-62878152D01*
X124373333Y-62878152D02*
X124325714Y-62973390D01*
X124325714Y-62973390D02*
X124278095Y-63021009D01*
X124278095Y-63021009D02*
X124182857Y-63068628D01*
X124182857Y-63068628D02*
X123801905Y-63068628D01*
X125230476Y-62878152D02*
X125230476Y-63544819D01*
X124992381Y-62497200D02*
X124754286Y-63211485D01*
X124754286Y-63211485D02*
X125373333Y-63211485D01*
X124373333Y-53544819D02*
X124040000Y-53068628D01*
X123801905Y-53544819D02*
X123801905Y-52544819D01*
X123801905Y-52544819D02*
X124182857Y-52544819D01*
X124182857Y-52544819D02*
X124278095Y-52592438D01*
X124278095Y-52592438D02*
X124325714Y-52640057D01*
X124325714Y-52640057D02*
X124373333Y-52735295D01*
X124373333Y-52735295D02*
X124373333Y-52878152D01*
X124373333Y-52878152D02*
X124325714Y-52973390D01*
X124325714Y-52973390D02*
X124278095Y-53021009D01*
X124278095Y-53021009D02*
X124182857Y-53068628D01*
X124182857Y-53068628D02*
X123801905Y-53068628D01*
X124706667Y-52544819D02*
X125325714Y-52544819D01*
X125325714Y-52544819D02*
X124992381Y-52925771D01*
X124992381Y-52925771D02*
X125135238Y-52925771D01*
X125135238Y-52925771D02*
X125230476Y-52973390D01*
X125230476Y-52973390D02*
X125278095Y-53021009D01*
X125278095Y-53021009D02*
X125325714Y-53116247D01*
X125325714Y-53116247D02*
X125325714Y-53354342D01*
X125325714Y-53354342D02*
X125278095Y-53449580D01*
X125278095Y-53449580D02*
X125230476Y-53497200D01*
X125230476Y-53497200D02*
X125135238Y-53544819D01*
X125135238Y-53544819D02*
X124849524Y-53544819D01*
X124849524Y-53544819D02*
X124754286Y-53497200D01*
X124754286Y-53497200D02*
X124706667Y-53449580D01*
X135083333Y-63319580D02*
X135035714Y-63367200D01*
X135035714Y-63367200D02*
X134892857Y-63414819D01*
X134892857Y-63414819D02*
X134797619Y-63414819D01*
X134797619Y-63414819D02*
X134654762Y-63367200D01*
X134654762Y-63367200D02*
X134559524Y-63271961D01*
X134559524Y-63271961D02*
X134511905Y-63176723D01*
X134511905Y-63176723D02*
X134464286Y-62986247D01*
X134464286Y-62986247D02*
X134464286Y-62843390D01*
X134464286Y-62843390D02*
X134511905Y-62652914D01*
X134511905Y-62652914D02*
X134559524Y-62557676D01*
X134559524Y-62557676D02*
X134654762Y-62462438D01*
X134654762Y-62462438D02*
X134797619Y-62414819D01*
X134797619Y-62414819D02*
X134892857Y-62414819D01*
X134892857Y-62414819D02*
X135035714Y-62462438D01*
X135035714Y-62462438D02*
X135083333Y-62510057D01*
X135559524Y-63414819D02*
X135750000Y-63414819D01*
X135750000Y-63414819D02*
X135845238Y-63367200D01*
X135845238Y-63367200D02*
X135892857Y-63319580D01*
X135892857Y-63319580D02*
X135988095Y-63176723D01*
X135988095Y-63176723D02*
X136035714Y-62986247D01*
X136035714Y-62986247D02*
X136035714Y-62605295D01*
X136035714Y-62605295D02*
X135988095Y-62510057D01*
X135988095Y-62510057D02*
X135940476Y-62462438D01*
X135940476Y-62462438D02*
X135845238Y-62414819D01*
X135845238Y-62414819D02*
X135654762Y-62414819D01*
X135654762Y-62414819D02*
X135559524Y-62462438D01*
X135559524Y-62462438D02*
X135511905Y-62510057D01*
X135511905Y-62510057D02*
X135464286Y-62605295D01*
X135464286Y-62605295D02*
X135464286Y-62843390D01*
X135464286Y-62843390D02*
X135511905Y-62938628D01*
X135511905Y-62938628D02*
X135559524Y-62986247D01*
X135559524Y-62986247D02*
X135654762Y-63033866D01*
X135654762Y-63033866D02*
X135845238Y-63033866D01*
X135845238Y-63033866D02*
X135940476Y-62986247D01*
X135940476Y-62986247D02*
X135988095Y-62938628D01*
X135988095Y-62938628D02*
X136035714Y-62843390D01*
X185147142Y-69819580D02*
X185099523Y-69867200D01*
X185099523Y-69867200D02*
X184956666Y-69914819D01*
X184956666Y-69914819D02*
X184861428Y-69914819D01*
X184861428Y-69914819D02*
X184718571Y-69867200D01*
X184718571Y-69867200D02*
X184623333Y-69771961D01*
X184623333Y-69771961D02*
X184575714Y-69676723D01*
X184575714Y-69676723D02*
X184528095Y-69486247D01*
X184528095Y-69486247D02*
X184528095Y-69343390D01*
X184528095Y-69343390D02*
X184575714Y-69152914D01*
X184575714Y-69152914D02*
X184623333Y-69057676D01*
X184623333Y-69057676D02*
X184718571Y-68962438D01*
X184718571Y-68962438D02*
X184861428Y-68914819D01*
X184861428Y-68914819D02*
X184956666Y-68914819D01*
X184956666Y-68914819D02*
X185099523Y-68962438D01*
X185099523Y-68962438D02*
X185147142Y-69010057D01*
X186099523Y-69914819D02*
X185528095Y-69914819D01*
X185813809Y-69914819D02*
X185813809Y-68914819D01*
X185813809Y-68914819D02*
X185718571Y-69057676D01*
X185718571Y-69057676D02*
X185623333Y-69152914D01*
X185623333Y-69152914D02*
X185528095Y-69200533D01*
X186718571Y-68914819D02*
X186813809Y-68914819D01*
X186813809Y-68914819D02*
X186909047Y-68962438D01*
X186909047Y-68962438D02*
X186956666Y-69010057D01*
X186956666Y-69010057D02*
X187004285Y-69105295D01*
X187004285Y-69105295D02*
X187051904Y-69295771D01*
X187051904Y-69295771D02*
X187051904Y-69533866D01*
X187051904Y-69533866D02*
X187004285Y-69724342D01*
X187004285Y-69724342D02*
X186956666Y-69819580D01*
X186956666Y-69819580D02*
X186909047Y-69867200D01*
X186909047Y-69867200D02*
X186813809Y-69914819D01*
X186813809Y-69914819D02*
X186718571Y-69914819D01*
X186718571Y-69914819D02*
X186623333Y-69867200D01*
X186623333Y-69867200D02*
X186575714Y-69819580D01*
X186575714Y-69819580D02*
X186528095Y-69724342D01*
X186528095Y-69724342D02*
X186480476Y-69533866D01*
X186480476Y-69533866D02*
X186480476Y-69295771D01*
X186480476Y-69295771D02*
X186528095Y-69105295D01*
X186528095Y-69105295D02*
X186575714Y-69010057D01*
X186575714Y-69010057D02*
X186623333Y-68962438D01*
X186623333Y-68962438D02*
X186718571Y-68914819D01*
X197324819Y-59952857D02*
X196848628Y-60286190D01*
X197324819Y-60524285D02*
X196324819Y-60524285D01*
X196324819Y-60524285D02*
X196324819Y-60143333D01*
X196324819Y-60143333D02*
X196372438Y-60048095D01*
X196372438Y-60048095D02*
X196420057Y-60000476D01*
X196420057Y-60000476D02*
X196515295Y-59952857D01*
X196515295Y-59952857D02*
X196658152Y-59952857D01*
X196658152Y-59952857D02*
X196753390Y-60000476D01*
X196753390Y-60000476D02*
X196801009Y-60048095D01*
X196801009Y-60048095D02*
X196848628Y-60143333D01*
X196848628Y-60143333D02*
X196848628Y-60524285D01*
X197324819Y-59000476D02*
X197324819Y-59571904D01*
X197324819Y-59286190D02*
X196324819Y-59286190D01*
X196324819Y-59286190D02*
X196467676Y-59381428D01*
X196467676Y-59381428D02*
X196562914Y-59476666D01*
X196562914Y-59476666D02*
X196610533Y-59571904D01*
X196420057Y-58619523D02*
X196372438Y-58571904D01*
X196372438Y-58571904D02*
X196324819Y-58476666D01*
X196324819Y-58476666D02*
X196324819Y-58238571D01*
X196324819Y-58238571D02*
X196372438Y-58143333D01*
X196372438Y-58143333D02*
X196420057Y-58095714D01*
X196420057Y-58095714D02*
X196515295Y-58048095D01*
X196515295Y-58048095D02*
X196610533Y-58048095D01*
X196610533Y-58048095D02*
X196753390Y-58095714D01*
X196753390Y-58095714D02*
X197324819Y-58667142D01*
X197324819Y-58667142D02*
X197324819Y-58048095D01*
X146761904Y-79431009D02*
X146428571Y-79431009D01*
X146428571Y-79954819D02*
X146428571Y-78954819D01*
X146428571Y-78954819D02*
X146904761Y-78954819D01*
X147761904Y-79954819D02*
X147285714Y-79954819D01*
X147285714Y-79954819D02*
X147285714Y-78954819D01*
X148619047Y-79954819D02*
X148047619Y-79954819D01*
X148333333Y-79954819D02*
X148333333Y-78954819D01*
X148333333Y-78954819D02*
X148238095Y-79097676D01*
X148238095Y-79097676D02*
X148142857Y-79192914D01*
X148142857Y-79192914D02*
X148047619Y-79240533D01*
X185207142Y-58044819D02*
X184873809Y-57568628D01*
X184635714Y-58044819D02*
X184635714Y-57044819D01*
X184635714Y-57044819D02*
X185016666Y-57044819D01*
X185016666Y-57044819D02*
X185111904Y-57092438D01*
X185111904Y-57092438D02*
X185159523Y-57140057D01*
X185159523Y-57140057D02*
X185207142Y-57235295D01*
X185207142Y-57235295D02*
X185207142Y-57378152D01*
X185207142Y-57378152D02*
X185159523Y-57473390D01*
X185159523Y-57473390D02*
X185111904Y-57521009D01*
X185111904Y-57521009D02*
X185016666Y-57568628D01*
X185016666Y-57568628D02*
X184635714Y-57568628D01*
X186159523Y-58044819D02*
X185588095Y-58044819D01*
X185873809Y-58044819D02*
X185873809Y-57044819D01*
X185873809Y-57044819D02*
X185778571Y-57187676D01*
X185778571Y-57187676D02*
X185683333Y-57282914D01*
X185683333Y-57282914D02*
X185588095Y-57330533D01*
X187111904Y-58044819D02*
X186540476Y-58044819D01*
X186826190Y-58044819D02*
X186826190Y-57044819D01*
X186826190Y-57044819D02*
X186730952Y-57187676D01*
X186730952Y-57187676D02*
X186635714Y-57282914D01*
X186635714Y-57282914D02*
X186540476Y-57330533D01*
X174357200Y-102283332D02*
X174404819Y-102140475D01*
X174404819Y-102140475D02*
X174404819Y-101902380D01*
X174404819Y-101902380D02*
X174357200Y-101807142D01*
X174357200Y-101807142D02*
X174309580Y-101759523D01*
X174309580Y-101759523D02*
X174214342Y-101711904D01*
X174214342Y-101711904D02*
X174119104Y-101711904D01*
X174119104Y-101711904D02*
X174023866Y-101759523D01*
X174023866Y-101759523D02*
X173976247Y-101807142D01*
X173976247Y-101807142D02*
X173928628Y-101902380D01*
X173928628Y-101902380D02*
X173881009Y-102092856D01*
X173881009Y-102092856D02*
X173833390Y-102188094D01*
X173833390Y-102188094D02*
X173785771Y-102235713D01*
X173785771Y-102235713D02*
X173690533Y-102283332D01*
X173690533Y-102283332D02*
X173595295Y-102283332D01*
X173595295Y-102283332D02*
X173500057Y-102235713D01*
X173500057Y-102235713D02*
X173452438Y-102188094D01*
X173452438Y-102188094D02*
X173404819Y-102092856D01*
X173404819Y-102092856D02*
X173404819Y-101854761D01*
X173404819Y-101854761D02*
X173452438Y-101711904D01*
X173404819Y-101378570D02*
X174404819Y-101140475D01*
X174404819Y-101140475D02*
X173690533Y-100949999D01*
X173690533Y-100949999D02*
X174404819Y-100759523D01*
X174404819Y-100759523D02*
X173404819Y-100521428D01*
X173738152Y-99711904D02*
X174404819Y-99711904D01*
X173357200Y-99949999D02*
X174071485Y-100188094D01*
X174071485Y-100188094D02*
X174071485Y-99569047D01*
X134357200Y-102283332D02*
X134404819Y-102140475D01*
X134404819Y-102140475D02*
X134404819Y-101902380D01*
X134404819Y-101902380D02*
X134357200Y-101807142D01*
X134357200Y-101807142D02*
X134309580Y-101759523D01*
X134309580Y-101759523D02*
X134214342Y-101711904D01*
X134214342Y-101711904D02*
X134119104Y-101711904D01*
X134119104Y-101711904D02*
X134023866Y-101759523D01*
X134023866Y-101759523D02*
X133976247Y-101807142D01*
X133976247Y-101807142D02*
X133928628Y-101902380D01*
X133928628Y-101902380D02*
X133881009Y-102092856D01*
X133881009Y-102092856D02*
X133833390Y-102188094D01*
X133833390Y-102188094D02*
X133785771Y-102235713D01*
X133785771Y-102235713D02*
X133690533Y-102283332D01*
X133690533Y-102283332D02*
X133595295Y-102283332D01*
X133595295Y-102283332D02*
X133500057Y-102235713D01*
X133500057Y-102235713D02*
X133452438Y-102188094D01*
X133452438Y-102188094D02*
X133404819Y-102092856D01*
X133404819Y-102092856D02*
X133404819Y-101854761D01*
X133404819Y-101854761D02*
X133452438Y-101711904D01*
X133404819Y-101378570D02*
X134404819Y-101140475D01*
X134404819Y-101140475D02*
X133690533Y-100949999D01*
X133690533Y-100949999D02*
X134404819Y-100759523D01*
X134404819Y-100759523D02*
X133404819Y-100521428D01*
X133500057Y-100188094D02*
X133452438Y-100140475D01*
X133452438Y-100140475D02*
X133404819Y-100045237D01*
X133404819Y-100045237D02*
X133404819Y-99807142D01*
X133404819Y-99807142D02*
X133452438Y-99711904D01*
X133452438Y-99711904D02*
X133500057Y-99664285D01*
X133500057Y-99664285D02*
X133595295Y-99616666D01*
X133595295Y-99616666D02*
X133690533Y-99616666D01*
X133690533Y-99616666D02*
X133833390Y-99664285D01*
X133833390Y-99664285D02*
X134404819Y-100235713D01*
X134404819Y-100235713D02*
X134404819Y-99616666D01*
X114436666Y-78904819D02*
X114436666Y-79619104D01*
X114436666Y-79619104D02*
X114389047Y-79761961D01*
X114389047Y-79761961D02*
X114293809Y-79857200D01*
X114293809Y-79857200D02*
X114150952Y-79904819D01*
X114150952Y-79904819D02*
X114055714Y-79904819D01*
X114865238Y-79000057D02*
X114912857Y-78952438D01*
X114912857Y-78952438D02*
X115008095Y-78904819D01*
X115008095Y-78904819D02*
X115246190Y-78904819D01*
X115246190Y-78904819D02*
X115341428Y-78952438D01*
X115341428Y-78952438D02*
X115389047Y-79000057D01*
X115389047Y-79000057D02*
X115436666Y-79095295D01*
X115436666Y-79095295D02*
X115436666Y-79190533D01*
X115436666Y-79190533D02*
X115389047Y-79333390D01*
X115389047Y-79333390D02*
X114817619Y-79904819D01*
X114817619Y-79904819D02*
X115436666Y-79904819D01*
X124563333Y-58454819D02*
X124230000Y-57978628D01*
X123991905Y-58454819D02*
X123991905Y-57454819D01*
X123991905Y-57454819D02*
X124372857Y-57454819D01*
X124372857Y-57454819D02*
X124468095Y-57502438D01*
X124468095Y-57502438D02*
X124515714Y-57550057D01*
X124515714Y-57550057D02*
X124563333Y-57645295D01*
X124563333Y-57645295D02*
X124563333Y-57788152D01*
X124563333Y-57788152D02*
X124515714Y-57883390D01*
X124515714Y-57883390D02*
X124468095Y-57931009D01*
X124468095Y-57931009D02*
X124372857Y-57978628D01*
X124372857Y-57978628D02*
X123991905Y-57978628D01*
X125515714Y-58454819D02*
X124944286Y-58454819D01*
X125230000Y-58454819D02*
X125230000Y-57454819D01*
X125230000Y-57454819D02*
X125134762Y-57597676D01*
X125134762Y-57597676D02*
X125039524Y-57692914D01*
X125039524Y-57692914D02*
X124944286Y-57740533D01*
X152583333Y-52359580D02*
X152535714Y-52407200D01*
X152535714Y-52407200D02*
X152392857Y-52454819D01*
X152392857Y-52454819D02*
X152297619Y-52454819D01*
X152297619Y-52454819D02*
X152154762Y-52407200D01*
X152154762Y-52407200D02*
X152059524Y-52311961D01*
X152059524Y-52311961D02*
X152011905Y-52216723D01*
X152011905Y-52216723D02*
X151964286Y-52026247D01*
X151964286Y-52026247D02*
X151964286Y-51883390D01*
X151964286Y-51883390D02*
X152011905Y-51692914D01*
X152011905Y-51692914D02*
X152059524Y-51597676D01*
X152059524Y-51597676D02*
X152154762Y-51502438D01*
X152154762Y-51502438D02*
X152297619Y-51454819D01*
X152297619Y-51454819D02*
X152392857Y-51454819D01*
X152392857Y-51454819D02*
X152535714Y-51502438D01*
X152535714Y-51502438D02*
X152583333Y-51550057D01*
X153488095Y-51454819D02*
X153011905Y-51454819D01*
X153011905Y-51454819D02*
X152964286Y-51931009D01*
X152964286Y-51931009D02*
X153011905Y-51883390D01*
X153011905Y-51883390D02*
X153107143Y-51835771D01*
X153107143Y-51835771D02*
X153345238Y-51835771D01*
X153345238Y-51835771D02*
X153440476Y-51883390D01*
X153440476Y-51883390D02*
X153488095Y-51931009D01*
X153488095Y-51931009D02*
X153535714Y-52026247D01*
X153535714Y-52026247D02*
X153535714Y-52264342D01*
X153535714Y-52264342D02*
X153488095Y-52359580D01*
X153488095Y-52359580D02*
X153440476Y-52407200D01*
X153440476Y-52407200D02*
X153345238Y-52454819D01*
X153345238Y-52454819D02*
X153107143Y-52454819D01*
X153107143Y-52454819D02*
X153011905Y-52407200D01*
X153011905Y-52407200D02*
X152964286Y-52359580D01*
X164333333Y-73584819D02*
X164000000Y-73108628D01*
X163761905Y-73584819D02*
X163761905Y-72584819D01*
X163761905Y-72584819D02*
X164142857Y-72584819D01*
X164142857Y-72584819D02*
X164238095Y-72632438D01*
X164238095Y-72632438D02*
X164285714Y-72680057D01*
X164285714Y-72680057D02*
X164333333Y-72775295D01*
X164333333Y-72775295D02*
X164333333Y-72918152D01*
X164333333Y-72918152D02*
X164285714Y-73013390D01*
X164285714Y-73013390D02*
X164238095Y-73061009D01*
X164238095Y-73061009D02*
X164142857Y-73108628D01*
X164142857Y-73108628D02*
X163761905Y-73108628D01*
X165190476Y-72584819D02*
X165000000Y-72584819D01*
X165000000Y-72584819D02*
X164904762Y-72632438D01*
X164904762Y-72632438D02*
X164857143Y-72680057D01*
X164857143Y-72680057D02*
X164761905Y-72822914D01*
X164761905Y-72822914D02*
X164714286Y-73013390D01*
X164714286Y-73013390D02*
X164714286Y-73394342D01*
X164714286Y-73394342D02*
X164761905Y-73489580D01*
X164761905Y-73489580D02*
X164809524Y-73537200D01*
X164809524Y-73537200D02*
X164904762Y-73584819D01*
X164904762Y-73584819D02*
X165095238Y-73584819D01*
X165095238Y-73584819D02*
X165190476Y-73537200D01*
X165190476Y-73537200D02*
X165238095Y-73489580D01*
X165238095Y-73489580D02*
X165285714Y-73394342D01*
X165285714Y-73394342D02*
X165285714Y-73156247D01*
X165285714Y-73156247D02*
X165238095Y-73061009D01*
X165238095Y-73061009D02*
X165190476Y-73013390D01*
X165190476Y-73013390D02*
X165095238Y-72965771D01*
X165095238Y-72965771D02*
X164904762Y-72965771D01*
X164904762Y-72965771D02*
X164809524Y-73013390D01*
X164809524Y-73013390D02*
X164761905Y-73061009D01*
X164761905Y-73061009D02*
X164714286Y-73156247D01*
X135083333Y-53359580D02*
X135035714Y-53407200D01*
X135035714Y-53407200D02*
X134892857Y-53454819D01*
X134892857Y-53454819D02*
X134797619Y-53454819D01*
X134797619Y-53454819D02*
X134654762Y-53407200D01*
X134654762Y-53407200D02*
X134559524Y-53311961D01*
X134559524Y-53311961D02*
X134511905Y-53216723D01*
X134511905Y-53216723D02*
X134464286Y-53026247D01*
X134464286Y-53026247D02*
X134464286Y-52883390D01*
X134464286Y-52883390D02*
X134511905Y-52692914D01*
X134511905Y-52692914D02*
X134559524Y-52597676D01*
X134559524Y-52597676D02*
X134654762Y-52502438D01*
X134654762Y-52502438D02*
X134797619Y-52454819D01*
X134797619Y-52454819D02*
X134892857Y-52454819D01*
X134892857Y-52454819D02*
X135035714Y-52502438D01*
X135035714Y-52502438D02*
X135083333Y-52550057D01*
X135940476Y-52454819D02*
X135750000Y-52454819D01*
X135750000Y-52454819D02*
X135654762Y-52502438D01*
X135654762Y-52502438D02*
X135607143Y-52550057D01*
X135607143Y-52550057D02*
X135511905Y-52692914D01*
X135511905Y-52692914D02*
X135464286Y-52883390D01*
X135464286Y-52883390D02*
X135464286Y-53264342D01*
X135464286Y-53264342D02*
X135511905Y-53359580D01*
X135511905Y-53359580D02*
X135559524Y-53407200D01*
X135559524Y-53407200D02*
X135654762Y-53454819D01*
X135654762Y-53454819D02*
X135845238Y-53454819D01*
X135845238Y-53454819D02*
X135940476Y-53407200D01*
X135940476Y-53407200D02*
X135988095Y-53359580D01*
X135988095Y-53359580D02*
X136035714Y-53264342D01*
X136035714Y-53264342D02*
X136035714Y-53026247D01*
X136035714Y-53026247D02*
X135988095Y-52931009D01*
X135988095Y-52931009D02*
X135940476Y-52883390D01*
X135940476Y-52883390D02*
X135845238Y-52835771D01*
X135845238Y-52835771D02*
X135654762Y-52835771D01*
X135654762Y-52835771D02*
X135559524Y-52883390D01*
X135559524Y-52883390D02*
X135511905Y-52931009D01*
X135511905Y-52931009D02*
X135464286Y-53026247D01*
X121238095Y-118954819D02*
X121809523Y-118954819D01*
X121523809Y-119954819D02*
X121523809Y-118954819D01*
X122714285Y-119954819D02*
X122380952Y-119478628D01*
X122142857Y-119954819D02*
X122142857Y-118954819D01*
X122142857Y-118954819D02*
X122523809Y-118954819D01*
X122523809Y-118954819D02*
X122619047Y-119002438D01*
X122619047Y-119002438D02*
X122666666Y-119050057D01*
X122666666Y-119050057D02*
X122714285Y-119145295D01*
X122714285Y-119145295D02*
X122714285Y-119288152D01*
X122714285Y-119288152D02*
X122666666Y-119383390D01*
X122666666Y-119383390D02*
X122619047Y-119431009D01*
X122619047Y-119431009D02*
X122523809Y-119478628D01*
X122523809Y-119478628D02*
X122142857Y-119478628D01*
X123666666Y-119954819D02*
X123095238Y-119954819D01*
X123380952Y-119954819D02*
X123380952Y-118954819D01*
X123380952Y-118954819D02*
X123285714Y-119097676D01*
X123285714Y-119097676D02*
X123190476Y-119192914D01*
X123190476Y-119192914D02*
X123095238Y-119240533D01*
X116159523Y-123414819D02*
X115588095Y-123414819D01*
X115873809Y-123414819D02*
X115873809Y-122414819D01*
X115873809Y-122414819D02*
X115778571Y-122557676D01*
X115778571Y-122557676D02*
X115683333Y-122652914D01*
X115683333Y-122652914D02*
X115588095Y-122700533D01*
X116778571Y-122414819D02*
X116873809Y-122414819D01*
X116873809Y-122414819D02*
X116969047Y-122462438D01*
X116969047Y-122462438D02*
X117016666Y-122510057D01*
X117016666Y-122510057D02*
X117064285Y-122605295D01*
X117064285Y-122605295D02*
X117111904Y-122795771D01*
X117111904Y-122795771D02*
X117111904Y-123033866D01*
X117111904Y-123033866D02*
X117064285Y-123224342D01*
X117064285Y-123224342D02*
X117016666Y-123319580D01*
X117016666Y-123319580D02*
X116969047Y-123367200D01*
X116969047Y-123367200D02*
X116873809Y-123414819D01*
X116873809Y-123414819D02*
X116778571Y-123414819D01*
X116778571Y-123414819D02*
X116683333Y-123367200D01*
X116683333Y-123367200D02*
X116635714Y-123319580D01*
X116635714Y-123319580D02*
X116588095Y-123224342D01*
X116588095Y-123224342D02*
X116540476Y-123033866D01*
X116540476Y-123033866D02*
X116540476Y-122795771D01*
X116540476Y-122795771D02*
X116588095Y-122605295D01*
X116588095Y-122605295D02*
X116635714Y-122510057D01*
X116635714Y-122510057D02*
X116683333Y-122462438D01*
X116683333Y-122462438D02*
X116778571Y-122414819D01*
X121064286Y-148010057D02*
X121111905Y-147962438D01*
X121111905Y-147962438D02*
X121207143Y-147914819D01*
X121207143Y-147914819D02*
X121445238Y-147914819D01*
X121445238Y-147914819D02*
X121540476Y-147962438D01*
X121540476Y-147962438D02*
X121588095Y-148010057D01*
X121588095Y-148010057D02*
X121635714Y-148105295D01*
X121635714Y-148105295D02*
X121635714Y-148200533D01*
X121635714Y-148200533D02*
X121588095Y-148343390D01*
X121588095Y-148343390D02*
X121016667Y-148914819D01*
X121016667Y-148914819D02*
X121635714Y-148914819D01*
X136588095Y-147914819D02*
X136111905Y-147914819D01*
X136111905Y-147914819D02*
X136064286Y-148391009D01*
X136064286Y-148391009D02*
X136111905Y-148343390D01*
X136111905Y-148343390D02*
X136207143Y-148295771D01*
X136207143Y-148295771D02*
X136445238Y-148295771D01*
X136445238Y-148295771D02*
X136540476Y-148343390D01*
X136540476Y-148343390D02*
X136588095Y-148391009D01*
X136588095Y-148391009D02*
X136635714Y-148486247D01*
X136635714Y-148486247D02*
X136635714Y-148724342D01*
X136635714Y-148724342D02*
X136588095Y-148819580D01*
X136588095Y-148819580D02*
X136540476Y-148867200D01*
X136540476Y-148867200D02*
X136445238Y-148914819D01*
X136445238Y-148914819D02*
X136207143Y-148914819D01*
X136207143Y-148914819D02*
X136111905Y-148867200D01*
X136111905Y-148867200D02*
X136064286Y-148819580D01*
X126254762Y-122843390D02*
X126159524Y-122795771D01*
X126159524Y-122795771D02*
X126111905Y-122748152D01*
X126111905Y-122748152D02*
X126064286Y-122652914D01*
X126064286Y-122652914D02*
X126064286Y-122605295D01*
X126064286Y-122605295D02*
X126111905Y-122510057D01*
X126111905Y-122510057D02*
X126159524Y-122462438D01*
X126159524Y-122462438D02*
X126254762Y-122414819D01*
X126254762Y-122414819D02*
X126445238Y-122414819D01*
X126445238Y-122414819D02*
X126540476Y-122462438D01*
X126540476Y-122462438D02*
X126588095Y-122510057D01*
X126588095Y-122510057D02*
X126635714Y-122605295D01*
X126635714Y-122605295D02*
X126635714Y-122652914D01*
X126635714Y-122652914D02*
X126588095Y-122748152D01*
X126588095Y-122748152D02*
X126540476Y-122795771D01*
X126540476Y-122795771D02*
X126445238Y-122843390D01*
X126445238Y-122843390D02*
X126254762Y-122843390D01*
X126254762Y-122843390D02*
X126159524Y-122891009D01*
X126159524Y-122891009D02*
X126111905Y-122938628D01*
X126111905Y-122938628D02*
X126064286Y-123033866D01*
X126064286Y-123033866D02*
X126064286Y-123224342D01*
X126064286Y-123224342D02*
X126111905Y-123319580D01*
X126111905Y-123319580D02*
X126159524Y-123367200D01*
X126159524Y-123367200D02*
X126254762Y-123414819D01*
X126254762Y-123414819D02*
X126445238Y-123414819D01*
X126445238Y-123414819D02*
X126540476Y-123367200D01*
X126540476Y-123367200D02*
X126588095Y-123319580D01*
X126588095Y-123319580D02*
X126635714Y-123224342D01*
X126635714Y-123224342D02*
X126635714Y-123033866D01*
X126635714Y-123033866D02*
X126588095Y-122938628D01*
X126588095Y-122938628D02*
X126540476Y-122891009D01*
X126540476Y-122891009D02*
X126445238Y-122843390D01*
X131016667Y-122414819D02*
X131683333Y-122414819D01*
X131683333Y-122414819D02*
X131254762Y-123414819D01*
X136540476Y-122414819D02*
X136350000Y-122414819D01*
X136350000Y-122414819D02*
X136254762Y-122462438D01*
X136254762Y-122462438D02*
X136207143Y-122510057D01*
X136207143Y-122510057D02*
X136111905Y-122652914D01*
X136111905Y-122652914D02*
X136064286Y-122843390D01*
X136064286Y-122843390D02*
X136064286Y-123224342D01*
X136064286Y-123224342D02*
X136111905Y-123319580D01*
X136111905Y-123319580D02*
X136159524Y-123367200D01*
X136159524Y-123367200D02*
X136254762Y-123414819D01*
X136254762Y-123414819D02*
X136445238Y-123414819D01*
X136445238Y-123414819D02*
X136540476Y-123367200D01*
X136540476Y-123367200D02*
X136588095Y-123319580D01*
X136588095Y-123319580D02*
X136635714Y-123224342D01*
X136635714Y-123224342D02*
X136635714Y-122986247D01*
X136635714Y-122986247D02*
X136588095Y-122891009D01*
X136588095Y-122891009D02*
X136540476Y-122843390D01*
X136540476Y-122843390D02*
X136445238Y-122795771D01*
X136445238Y-122795771D02*
X136254762Y-122795771D01*
X136254762Y-122795771D02*
X136159524Y-122843390D01*
X136159524Y-122843390D02*
X136111905Y-122891009D01*
X136111905Y-122891009D02*
X136064286Y-122986247D01*
X126016667Y-147914819D02*
X126635714Y-147914819D01*
X126635714Y-147914819D02*
X126302381Y-148295771D01*
X126302381Y-148295771D02*
X126445238Y-148295771D01*
X126445238Y-148295771D02*
X126540476Y-148343390D01*
X126540476Y-148343390D02*
X126588095Y-148391009D01*
X126588095Y-148391009D02*
X126635714Y-148486247D01*
X126635714Y-148486247D02*
X126635714Y-148724342D01*
X126635714Y-148724342D02*
X126588095Y-148819580D01*
X126588095Y-148819580D02*
X126540476Y-148867200D01*
X126540476Y-148867200D02*
X126445238Y-148914819D01*
X126445238Y-148914819D02*
X126159524Y-148914819D01*
X126159524Y-148914819D02*
X126064286Y-148867200D01*
X126064286Y-148867200D02*
X126016667Y-148819580D01*
X121159524Y-123414819D02*
X121350000Y-123414819D01*
X121350000Y-123414819D02*
X121445238Y-123367200D01*
X121445238Y-123367200D02*
X121492857Y-123319580D01*
X121492857Y-123319580D02*
X121588095Y-123176723D01*
X121588095Y-123176723D02*
X121635714Y-122986247D01*
X121635714Y-122986247D02*
X121635714Y-122605295D01*
X121635714Y-122605295D02*
X121588095Y-122510057D01*
X121588095Y-122510057D02*
X121540476Y-122462438D01*
X121540476Y-122462438D02*
X121445238Y-122414819D01*
X121445238Y-122414819D02*
X121254762Y-122414819D01*
X121254762Y-122414819D02*
X121159524Y-122462438D01*
X121159524Y-122462438D02*
X121111905Y-122510057D01*
X121111905Y-122510057D02*
X121064286Y-122605295D01*
X121064286Y-122605295D02*
X121064286Y-122843390D01*
X121064286Y-122843390D02*
X121111905Y-122938628D01*
X121111905Y-122938628D02*
X121159524Y-122986247D01*
X121159524Y-122986247D02*
X121254762Y-123033866D01*
X121254762Y-123033866D02*
X121445238Y-123033866D01*
X121445238Y-123033866D02*
X121540476Y-122986247D01*
X121540476Y-122986247D02*
X121588095Y-122938628D01*
X121588095Y-122938628D02*
X121635714Y-122843390D01*
X131540476Y-148248152D02*
X131540476Y-148914819D01*
X131302381Y-147867200D02*
X131064286Y-148581485D01*
X131064286Y-148581485D02*
X131683333Y-148581485D01*
X116635714Y-148914819D02*
X116064286Y-148914819D01*
X116350000Y-148914819D02*
X116350000Y-147914819D01*
X116350000Y-147914819D02*
X116254762Y-148057676D01*
X116254762Y-148057676D02*
X116159524Y-148152914D01*
X116159524Y-148152914D02*
X116064286Y-148200533D01*
X166833333Y-57859580D02*
X166785714Y-57907200D01*
X166785714Y-57907200D02*
X166642857Y-57954819D01*
X166642857Y-57954819D02*
X166547619Y-57954819D01*
X166547619Y-57954819D02*
X166404762Y-57907200D01*
X166404762Y-57907200D02*
X166309524Y-57811961D01*
X166309524Y-57811961D02*
X166261905Y-57716723D01*
X166261905Y-57716723D02*
X166214286Y-57526247D01*
X166214286Y-57526247D02*
X166214286Y-57383390D01*
X166214286Y-57383390D02*
X166261905Y-57192914D01*
X166261905Y-57192914D02*
X166309524Y-57097676D01*
X166309524Y-57097676D02*
X166404762Y-57002438D01*
X166404762Y-57002438D02*
X166547619Y-56954819D01*
X166547619Y-56954819D02*
X166642857Y-56954819D01*
X166642857Y-56954819D02*
X166785714Y-57002438D01*
X166785714Y-57002438D02*
X166833333Y-57050057D01*
X167166667Y-56954819D02*
X167785714Y-56954819D01*
X167785714Y-56954819D02*
X167452381Y-57335771D01*
X167452381Y-57335771D02*
X167595238Y-57335771D01*
X167595238Y-57335771D02*
X167690476Y-57383390D01*
X167690476Y-57383390D02*
X167738095Y-57431009D01*
X167738095Y-57431009D02*
X167785714Y-57526247D01*
X167785714Y-57526247D02*
X167785714Y-57764342D01*
X167785714Y-57764342D02*
X167738095Y-57859580D01*
X167738095Y-57859580D02*
X167690476Y-57907200D01*
X167690476Y-57907200D02*
X167595238Y-57954819D01*
X167595238Y-57954819D02*
X167309524Y-57954819D01*
X167309524Y-57954819D02*
X167214286Y-57907200D01*
X167214286Y-57907200D02*
X167166667Y-57859580D01*
X128904761Y-70350057D02*
X128809523Y-70302438D01*
X128809523Y-70302438D02*
X128714285Y-70207200D01*
X128714285Y-70207200D02*
X128571428Y-70064342D01*
X128571428Y-70064342D02*
X128476190Y-70016723D01*
X128476190Y-70016723D02*
X128380952Y-70016723D01*
X128428571Y-70254819D02*
X128333333Y-70207200D01*
X128333333Y-70207200D02*
X128238095Y-70111961D01*
X128238095Y-70111961D02*
X128190476Y-69921485D01*
X128190476Y-69921485D02*
X128190476Y-69588152D01*
X128190476Y-69588152D02*
X128238095Y-69397676D01*
X128238095Y-69397676D02*
X128333333Y-69302438D01*
X128333333Y-69302438D02*
X128428571Y-69254819D01*
X128428571Y-69254819D02*
X128619047Y-69254819D01*
X128619047Y-69254819D02*
X128714285Y-69302438D01*
X128714285Y-69302438D02*
X128809523Y-69397676D01*
X128809523Y-69397676D02*
X128857142Y-69588152D01*
X128857142Y-69588152D02*
X128857142Y-69921485D01*
X128857142Y-69921485D02*
X128809523Y-70111961D01*
X128809523Y-70111961D02*
X128714285Y-70207200D01*
X128714285Y-70207200D02*
X128619047Y-70254819D01*
X128619047Y-70254819D02*
X128428571Y-70254819D01*
X129809523Y-70254819D02*
X129238095Y-70254819D01*
X129523809Y-70254819D02*
X129523809Y-69254819D01*
X129523809Y-69254819D02*
X129428571Y-69397676D01*
X129428571Y-69397676D02*
X129333333Y-69492914D01*
X129333333Y-69492914D02*
X129238095Y-69540533D01*
X185623333Y-74819580D02*
X185575714Y-74867200D01*
X185575714Y-74867200D02*
X185432857Y-74914819D01*
X185432857Y-74914819D02*
X185337619Y-74914819D01*
X185337619Y-74914819D02*
X185194762Y-74867200D01*
X185194762Y-74867200D02*
X185099524Y-74771961D01*
X185099524Y-74771961D02*
X185051905Y-74676723D01*
X185051905Y-74676723D02*
X185004286Y-74486247D01*
X185004286Y-74486247D02*
X185004286Y-74343390D01*
X185004286Y-74343390D02*
X185051905Y-74152914D01*
X185051905Y-74152914D02*
X185099524Y-74057676D01*
X185099524Y-74057676D02*
X185194762Y-73962438D01*
X185194762Y-73962438D02*
X185337619Y-73914819D01*
X185337619Y-73914819D02*
X185432857Y-73914819D01*
X185432857Y-73914819D02*
X185575714Y-73962438D01*
X185575714Y-73962438D02*
X185623333Y-74010057D01*
X186480476Y-74248152D02*
X186480476Y-74914819D01*
X186242381Y-73867200D02*
X186004286Y-74581485D01*
X186004286Y-74581485D02*
X186623333Y-74581485D01*
X185873333Y-52044819D02*
X185540000Y-51568628D01*
X185301905Y-52044819D02*
X185301905Y-51044819D01*
X185301905Y-51044819D02*
X185682857Y-51044819D01*
X185682857Y-51044819D02*
X185778095Y-51092438D01*
X185778095Y-51092438D02*
X185825714Y-51140057D01*
X185825714Y-51140057D02*
X185873333Y-51235295D01*
X185873333Y-51235295D02*
X185873333Y-51378152D01*
X185873333Y-51378152D02*
X185825714Y-51473390D01*
X185825714Y-51473390D02*
X185778095Y-51521009D01*
X185778095Y-51521009D02*
X185682857Y-51568628D01*
X185682857Y-51568628D02*
X185301905Y-51568628D01*
X186349524Y-52044819D02*
X186540000Y-52044819D01*
X186540000Y-52044819D02*
X186635238Y-51997200D01*
X186635238Y-51997200D02*
X186682857Y-51949580D01*
X186682857Y-51949580D02*
X186778095Y-51806723D01*
X186778095Y-51806723D02*
X186825714Y-51616247D01*
X186825714Y-51616247D02*
X186825714Y-51235295D01*
X186825714Y-51235295D02*
X186778095Y-51140057D01*
X186778095Y-51140057D02*
X186730476Y-51092438D01*
X186730476Y-51092438D02*
X186635238Y-51044819D01*
X186635238Y-51044819D02*
X186444762Y-51044819D01*
X186444762Y-51044819D02*
X186349524Y-51092438D01*
X186349524Y-51092438D02*
X186301905Y-51140057D01*
X186301905Y-51140057D02*
X186254286Y-51235295D01*
X186254286Y-51235295D02*
X186254286Y-51473390D01*
X186254286Y-51473390D02*
X186301905Y-51568628D01*
X186301905Y-51568628D02*
X186349524Y-51616247D01*
X186349524Y-51616247D02*
X186444762Y-51663866D01*
X186444762Y-51663866D02*
X186635238Y-51663866D01*
X186635238Y-51663866D02*
X186730476Y-51616247D01*
X186730476Y-51616247D02*
X186778095Y-51568628D01*
X186778095Y-51568628D02*
X186825714Y-51473390D01*
X208304819Y-136443333D02*
X209019104Y-136443333D01*
X209019104Y-136443333D02*
X209161961Y-136490952D01*
X209161961Y-136490952D02*
X209257200Y-136586190D01*
X209257200Y-136586190D02*
X209304819Y-136729047D01*
X209304819Y-136729047D02*
X209304819Y-136824285D01*
X209304819Y-135443333D02*
X209304819Y-136014761D01*
X209304819Y-135729047D02*
X208304819Y-135729047D01*
X208304819Y-135729047D02*
X208447676Y-135824285D01*
X208447676Y-135824285D02*
X208542914Y-135919523D01*
X208542914Y-135919523D02*
X208590533Y-136014761D01*
X176134761Y-59490057D02*
X176039523Y-59442438D01*
X176039523Y-59442438D02*
X175944285Y-59347200D01*
X175944285Y-59347200D02*
X175801428Y-59204342D01*
X175801428Y-59204342D02*
X175706190Y-59156723D01*
X175706190Y-59156723D02*
X175610952Y-59156723D01*
X175658571Y-59394819D02*
X175563333Y-59347200D01*
X175563333Y-59347200D02*
X175468095Y-59251961D01*
X175468095Y-59251961D02*
X175420476Y-59061485D01*
X175420476Y-59061485D02*
X175420476Y-58728152D01*
X175420476Y-58728152D02*
X175468095Y-58537676D01*
X175468095Y-58537676D02*
X175563333Y-58442438D01*
X175563333Y-58442438D02*
X175658571Y-58394819D01*
X175658571Y-58394819D02*
X175849047Y-58394819D01*
X175849047Y-58394819D02*
X175944285Y-58442438D01*
X175944285Y-58442438D02*
X176039523Y-58537676D01*
X176039523Y-58537676D02*
X176087142Y-58728152D01*
X176087142Y-58728152D02*
X176087142Y-59061485D01*
X176087142Y-59061485D02*
X176039523Y-59251961D01*
X176039523Y-59251961D02*
X175944285Y-59347200D01*
X175944285Y-59347200D02*
X175849047Y-59394819D01*
X175849047Y-59394819D02*
X175658571Y-59394819D01*
X176468095Y-58490057D02*
X176515714Y-58442438D01*
X176515714Y-58442438D02*
X176610952Y-58394819D01*
X176610952Y-58394819D02*
X176849047Y-58394819D01*
X176849047Y-58394819D02*
X176944285Y-58442438D01*
X176944285Y-58442438D02*
X176991904Y-58490057D01*
X176991904Y-58490057D02*
X177039523Y-58585295D01*
X177039523Y-58585295D02*
X177039523Y-58680533D01*
X177039523Y-58680533D02*
X176991904Y-58823390D01*
X176991904Y-58823390D02*
X176420476Y-59394819D01*
X176420476Y-59394819D02*
X177039523Y-59394819D01*
X214357200Y-102283332D02*
X214404819Y-102140475D01*
X214404819Y-102140475D02*
X214404819Y-101902380D01*
X214404819Y-101902380D02*
X214357200Y-101807142D01*
X214357200Y-101807142D02*
X214309580Y-101759523D01*
X214309580Y-101759523D02*
X214214342Y-101711904D01*
X214214342Y-101711904D02*
X214119104Y-101711904D01*
X214119104Y-101711904D02*
X214023866Y-101759523D01*
X214023866Y-101759523D02*
X213976247Y-101807142D01*
X213976247Y-101807142D02*
X213928628Y-101902380D01*
X213928628Y-101902380D02*
X213881009Y-102092856D01*
X213881009Y-102092856D02*
X213833390Y-102188094D01*
X213833390Y-102188094D02*
X213785771Y-102235713D01*
X213785771Y-102235713D02*
X213690533Y-102283332D01*
X213690533Y-102283332D02*
X213595295Y-102283332D01*
X213595295Y-102283332D02*
X213500057Y-102235713D01*
X213500057Y-102235713D02*
X213452438Y-102188094D01*
X213452438Y-102188094D02*
X213404819Y-102092856D01*
X213404819Y-102092856D02*
X213404819Y-101854761D01*
X213404819Y-101854761D02*
X213452438Y-101711904D01*
X213404819Y-101378570D02*
X214404819Y-101140475D01*
X214404819Y-101140475D02*
X213690533Y-100949999D01*
X213690533Y-100949999D02*
X214404819Y-100759523D01*
X214404819Y-100759523D02*
X213404819Y-100521428D01*
X213404819Y-99711904D02*
X213404819Y-99902380D01*
X213404819Y-99902380D02*
X213452438Y-99997618D01*
X213452438Y-99997618D02*
X213500057Y-100045237D01*
X213500057Y-100045237D02*
X213642914Y-100140475D01*
X213642914Y-100140475D02*
X213833390Y-100188094D01*
X213833390Y-100188094D02*
X214214342Y-100188094D01*
X214214342Y-100188094D02*
X214309580Y-100140475D01*
X214309580Y-100140475D02*
X214357200Y-100092856D01*
X214357200Y-100092856D02*
X214404819Y-99997618D01*
X214404819Y-99997618D02*
X214404819Y-99807142D01*
X214404819Y-99807142D02*
X214357200Y-99711904D01*
X214357200Y-99711904D02*
X214309580Y-99664285D01*
X214309580Y-99664285D02*
X214214342Y-99616666D01*
X214214342Y-99616666D02*
X213976247Y-99616666D01*
X213976247Y-99616666D02*
X213881009Y-99664285D01*
X213881009Y-99664285D02*
X213833390Y-99711904D01*
X213833390Y-99711904D02*
X213785771Y-99807142D01*
X213785771Y-99807142D02*
X213785771Y-99997618D01*
X213785771Y-99997618D02*
X213833390Y-100092856D01*
X213833390Y-100092856D02*
X213881009Y-100140475D01*
X213881009Y-100140475D02*
X213976247Y-100188094D01*
X176023333Y-68584819D02*
X175690000Y-68108628D01*
X175451905Y-68584819D02*
X175451905Y-67584819D01*
X175451905Y-67584819D02*
X175832857Y-67584819D01*
X175832857Y-67584819D02*
X175928095Y-67632438D01*
X175928095Y-67632438D02*
X175975714Y-67680057D01*
X175975714Y-67680057D02*
X176023333Y-67775295D01*
X176023333Y-67775295D02*
X176023333Y-67918152D01*
X176023333Y-67918152D02*
X175975714Y-68013390D01*
X175975714Y-68013390D02*
X175928095Y-68061009D01*
X175928095Y-68061009D02*
X175832857Y-68108628D01*
X175832857Y-68108628D02*
X175451905Y-68108628D01*
X176594762Y-68013390D02*
X176499524Y-67965771D01*
X176499524Y-67965771D02*
X176451905Y-67918152D01*
X176451905Y-67918152D02*
X176404286Y-67822914D01*
X176404286Y-67822914D02*
X176404286Y-67775295D01*
X176404286Y-67775295D02*
X176451905Y-67680057D01*
X176451905Y-67680057D02*
X176499524Y-67632438D01*
X176499524Y-67632438D02*
X176594762Y-67584819D01*
X176594762Y-67584819D02*
X176785238Y-67584819D01*
X176785238Y-67584819D02*
X176880476Y-67632438D01*
X176880476Y-67632438D02*
X176928095Y-67680057D01*
X176928095Y-67680057D02*
X176975714Y-67775295D01*
X176975714Y-67775295D02*
X176975714Y-67822914D01*
X176975714Y-67822914D02*
X176928095Y-67918152D01*
X176928095Y-67918152D02*
X176880476Y-67965771D01*
X176880476Y-67965771D02*
X176785238Y-68013390D01*
X176785238Y-68013390D02*
X176594762Y-68013390D01*
X176594762Y-68013390D02*
X176499524Y-68061009D01*
X176499524Y-68061009D02*
X176451905Y-68108628D01*
X176451905Y-68108628D02*
X176404286Y-68203866D01*
X176404286Y-68203866D02*
X176404286Y-68394342D01*
X176404286Y-68394342D02*
X176451905Y-68489580D01*
X176451905Y-68489580D02*
X176499524Y-68537200D01*
X176499524Y-68537200D02*
X176594762Y-68584819D01*
X176594762Y-68584819D02*
X176785238Y-68584819D01*
X176785238Y-68584819D02*
X176880476Y-68537200D01*
X176880476Y-68537200D02*
X176928095Y-68489580D01*
X176928095Y-68489580D02*
X176975714Y-68394342D01*
X176975714Y-68394342D02*
X176975714Y-68203866D01*
X176975714Y-68203866D02*
X176928095Y-68108628D01*
X176928095Y-68108628D02*
X176880476Y-68061009D01*
X176880476Y-68061009D02*
X176785238Y-68013390D01*
X202166666Y-48154819D02*
X202166666Y-48869104D01*
X202166666Y-48869104D02*
X202119047Y-49011961D01*
X202119047Y-49011961D02*
X202023809Y-49107200D01*
X202023809Y-49107200D02*
X201880952Y-49154819D01*
X201880952Y-49154819D02*
X201785714Y-49154819D01*
X202547619Y-48154819D02*
X203166666Y-48154819D01*
X203166666Y-48154819D02*
X202833333Y-48535771D01*
X202833333Y-48535771D02*
X202976190Y-48535771D01*
X202976190Y-48535771D02*
X203071428Y-48583390D01*
X203071428Y-48583390D02*
X203119047Y-48631009D01*
X203119047Y-48631009D02*
X203166666Y-48726247D01*
X203166666Y-48726247D02*
X203166666Y-48964342D01*
X203166666Y-48964342D02*
X203119047Y-49059580D01*
X203119047Y-49059580D02*
X203071428Y-49107200D01*
X203071428Y-49107200D02*
X202976190Y-49154819D01*
X202976190Y-49154819D02*
X202690476Y-49154819D01*
X202690476Y-49154819D02*
X202595238Y-49107200D01*
X202595238Y-49107200D02*
X202547619Y-49059580D01*
X194357200Y-102283332D02*
X194404819Y-102140475D01*
X194404819Y-102140475D02*
X194404819Y-101902380D01*
X194404819Y-101902380D02*
X194357200Y-101807142D01*
X194357200Y-101807142D02*
X194309580Y-101759523D01*
X194309580Y-101759523D02*
X194214342Y-101711904D01*
X194214342Y-101711904D02*
X194119104Y-101711904D01*
X194119104Y-101711904D02*
X194023866Y-101759523D01*
X194023866Y-101759523D02*
X193976247Y-101807142D01*
X193976247Y-101807142D02*
X193928628Y-101902380D01*
X193928628Y-101902380D02*
X193881009Y-102092856D01*
X193881009Y-102092856D02*
X193833390Y-102188094D01*
X193833390Y-102188094D02*
X193785771Y-102235713D01*
X193785771Y-102235713D02*
X193690533Y-102283332D01*
X193690533Y-102283332D02*
X193595295Y-102283332D01*
X193595295Y-102283332D02*
X193500057Y-102235713D01*
X193500057Y-102235713D02*
X193452438Y-102188094D01*
X193452438Y-102188094D02*
X193404819Y-102092856D01*
X193404819Y-102092856D02*
X193404819Y-101854761D01*
X193404819Y-101854761D02*
X193452438Y-101711904D01*
X193404819Y-101378570D02*
X194404819Y-101140475D01*
X194404819Y-101140475D02*
X193690533Y-100949999D01*
X193690533Y-100949999D02*
X194404819Y-100759523D01*
X194404819Y-100759523D02*
X193404819Y-100521428D01*
X193404819Y-99664285D02*
X193404819Y-100140475D01*
X193404819Y-100140475D02*
X193881009Y-100188094D01*
X193881009Y-100188094D02*
X193833390Y-100140475D01*
X193833390Y-100140475D02*
X193785771Y-100045237D01*
X193785771Y-100045237D02*
X193785771Y-99807142D01*
X193785771Y-99807142D02*
X193833390Y-99711904D01*
X193833390Y-99711904D02*
X193881009Y-99664285D01*
X193881009Y-99664285D02*
X193976247Y-99616666D01*
X193976247Y-99616666D02*
X194214342Y-99616666D01*
X194214342Y-99616666D02*
X194309580Y-99664285D01*
X194309580Y-99664285D02*
X194357200Y-99711904D01*
X194357200Y-99711904D02*
X194404819Y-99807142D01*
X194404819Y-99807142D02*
X194404819Y-100045237D01*
X194404819Y-100045237D02*
X194357200Y-100140475D01*
X194357200Y-100140475D02*
X194309580Y-100188094D01*
X152583333Y-57859580D02*
X152535714Y-57907200D01*
X152535714Y-57907200D02*
X152392857Y-57954819D01*
X152392857Y-57954819D02*
X152297619Y-57954819D01*
X152297619Y-57954819D02*
X152154762Y-57907200D01*
X152154762Y-57907200D02*
X152059524Y-57811961D01*
X152059524Y-57811961D02*
X152011905Y-57716723D01*
X152011905Y-57716723D02*
X151964286Y-57526247D01*
X151964286Y-57526247D02*
X151964286Y-57383390D01*
X151964286Y-57383390D02*
X152011905Y-57192914D01*
X152011905Y-57192914D02*
X152059524Y-57097676D01*
X152059524Y-57097676D02*
X152154762Y-57002438D01*
X152154762Y-57002438D02*
X152297619Y-56954819D01*
X152297619Y-56954819D02*
X152392857Y-56954819D01*
X152392857Y-56954819D02*
X152535714Y-57002438D01*
X152535714Y-57002438D02*
X152583333Y-57050057D01*
X153535714Y-57954819D02*
X152964286Y-57954819D01*
X153250000Y-57954819D02*
X153250000Y-56954819D01*
X153250000Y-56954819D02*
X153154762Y-57097676D01*
X153154762Y-57097676D02*
X153059524Y-57192914D01*
X153059524Y-57192914D02*
X152964286Y-57240533D01*
X214416666Y-57094819D02*
X214416666Y-57809104D01*
X214416666Y-57809104D02*
X214369047Y-57951961D01*
X214369047Y-57951961D02*
X214273809Y-58047200D01*
X214273809Y-58047200D02*
X214130952Y-58094819D01*
X214130952Y-58094819D02*
X214035714Y-58094819D01*
X215369047Y-57094819D02*
X214892857Y-57094819D01*
X214892857Y-57094819D02*
X214845238Y-57571009D01*
X214845238Y-57571009D02*
X214892857Y-57523390D01*
X214892857Y-57523390D02*
X214988095Y-57475771D01*
X214988095Y-57475771D02*
X215226190Y-57475771D01*
X215226190Y-57475771D02*
X215321428Y-57523390D01*
X215321428Y-57523390D02*
X215369047Y-57571009D01*
X215369047Y-57571009D02*
X215416666Y-57666247D01*
X215416666Y-57666247D02*
X215416666Y-57904342D01*
X215416666Y-57904342D02*
X215369047Y-57999580D01*
X215369047Y-57999580D02*
X215321428Y-58047200D01*
X215321428Y-58047200D02*
X215226190Y-58094819D01*
X215226190Y-58094819D02*
X214988095Y-58094819D01*
X214988095Y-58094819D02*
X214892857Y-58047200D01*
X214892857Y-58047200D02*
X214845238Y-57999580D01*
X176023333Y-73584819D02*
X175690000Y-73108628D01*
X175451905Y-73584819D02*
X175451905Y-72584819D01*
X175451905Y-72584819D02*
X175832857Y-72584819D01*
X175832857Y-72584819D02*
X175928095Y-72632438D01*
X175928095Y-72632438D02*
X175975714Y-72680057D01*
X175975714Y-72680057D02*
X176023333Y-72775295D01*
X176023333Y-72775295D02*
X176023333Y-72918152D01*
X176023333Y-72918152D02*
X175975714Y-73013390D01*
X175975714Y-73013390D02*
X175928095Y-73061009D01*
X175928095Y-73061009D02*
X175832857Y-73108628D01*
X175832857Y-73108628D02*
X175451905Y-73108628D01*
X176356667Y-72584819D02*
X177023333Y-72584819D01*
X177023333Y-72584819D02*
X176594762Y-73584819D01*
D12*
%TO.C,C2*%
X157130000Y-58630000D02*
X157130000Y-61370000D01*
X157130000Y-58630000D02*
X162370000Y-58630000D01*
X157130000Y-61370000D02*
X162370000Y-61370000D01*
X162370000Y-58630000D02*
X162370000Y-61370000D01*
%TO.C,SW3*%
X148600000Y-96100000D02*
X148600000Y-97300000D01*
X148600000Y-105300000D02*
X148600000Y-104100000D01*
X152800000Y-96100000D02*
X148600000Y-96100000D01*
X152800000Y-96450000D02*
X152800000Y-96100000D01*
X152800000Y-104100000D02*
X152800000Y-105300000D01*
X152800000Y-105300000D02*
X148600000Y-105300000D01*
X153280000Y-97200000D02*
X152800000Y-97200000D01*
X152800000Y-96720000D01*
X153280000Y-97200000D01*
G36*
X153280000Y-97200000D02*
G01*
X152800000Y-97200000D01*
X152800000Y-96720000D01*
X153280000Y-97200000D01*
G37*
%TO.C,C7*%
X132630000Y-59130000D02*
X132630000Y-61870000D01*
X132630000Y-59130000D02*
X137870000Y-59130000D01*
X132630000Y-61870000D02*
X137870000Y-61870000D01*
X137870000Y-59130000D02*
X137870000Y-61870000D01*
%TO.C,C8*%
X157130000Y-53130000D02*
X157130000Y-55870000D01*
X157130000Y-53130000D02*
X162370000Y-53130000D01*
X157130000Y-55870000D02*
X162370000Y-55870000D01*
X162370000Y-53130000D02*
X162370000Y-55870000D01*
%TO.C,R10*%
X182580000Y-64590000D02*
X189120000Y-64590000D01*
X182580000Y-64920000D02*
X182580000Y-64590000D01*
X182580000Y-67000000D02*
X182580000Y-67330000D01*
X182580000Y-67330000D02*
X189120000Y-67330000D01*
X189120000Y-64590000D02*
X189120000Y-64920000D01*
X189120000Y-67330000D02*
X189120000Y-67000000D01*
%TO.C,SW1*%
X108600000Y-96100000D02*
X108600000Y-97300000D01*
X108600000Y-105300000D02*
X108600000Y-104100000D01*
X112800000Y-96100000D02*
X108600000Y-96100000D01*
X112800000Y-96450000D02*
X112800000Y-96100000D01*
X112800000Y-104100000D02*
X112800000Y-105300000D01*
X112800000Y-105300000D02*
X108600000Y-105300000D01*
X113280000Y-97200000D02*
X112800000Y-97200000D01*
X112800000Y-96720000D01*
X113280000Y-97200000D01*
G36*
X113280000Y-97200000D02*
G01*
X112800000Y-97200000D01*
X112800000Y-96720000D01*
X113280000Y-97200000D01*
G37*
%TO.C,R5*%
X161420000Y-64630000D02*
X167960000Y-64630000D01*
X161420000Y-64960000D02*
X161420000Y-64630000D01*
X161420000Y-67040000D02*
X161420000Y-67370000D01*
X161420000Y-67370000D02*
X167960000Y-67370000D01*
X167960000Y-64630000D02*
X167960000Y-64960000D01*
X167960000Y-67370000D02*
X167960000Y-67040000D01*
%TO.C,RV1*%
X155980000Y-126840000D02*
X155980000Y-131560000D01*
X155980000Y-126840000D02*
X157470000Y-126840000D01*
X155980000Y-135370000D02*
X155980000Y-138430000D01*
X155980000Y-138430000D02*
X165720000Y-138430000D01*
X159190000Y-126840000D02*
X160020000Y-126840000D01*
X161640000Y-126840000D02*
X162170000Y-126840000D01*
X164540000Y-126840000D02*
X165720000Y-126840000D01*
X165720000Y-135370000D02*
X165720000Y-138430000D01*
X165730000Y-126840000D02*
X165730000Y-131560000D01*
%TO.C,R2*%
X161230000Y-69130000D02*
X167770000Y-69130000D01*
X161230000Y-69460000D02*
X161230000Y-69130000D01*
X161230000Y-71540000D02*
X161230000Y-71870000D01*
X161230000Y-71870000D02*
X167770000Y-71870000D01*
X167770000Y-69130000D02*
X167770000Y-69460000D01*
X167770000Y-71870000D02*
X167770000Y-71540000D01*
%TO.C,R4*%
X121270000Y-64090000D02*
X127810000Y-64090000D01*
X121270000Y-64420000D02*
X121270000Y-64090000D01*
X121270000Y-66500000D02*
X121270000Y-66830000D01*
X121270000Y-66830000D02*
X127810000Y-66830000D01*
X127810000Y-64090000D02*
X127810000Y-64420000D01*
X127810000Y-66830000D02*
X127810000Y-66500000D01*
%TO.C,R3*%
X121270000Y-54090000D02*
X127810000Y-54090000D01*
X121270000Y-54420000D02*
X121270000Y-54090000D01*
X121270000Y-56500000D02*
X121270000Y-56830000D01*
X121270000Y-56830000D02*
X127810000Y-56830000D01*
X127810000Y-54090000D02*
X127810000Y-54420000D01*
X127810000Y-56830000D02*
X127810000Y-56500000D01*
%TO.C,C9*%
X132630000Y-64090000D02*
X132630000Y-66830000D01*
X132630000Y-64090000D02*
X137870000Y-64090000D01*
X132630000Y-66830000D02*
X137870000Y-66830000D01*
X137870000Y-64090000D02*
X137870000Y-66830000D01*
%TO.C,C10*%
X183170000Y-70590000D02*
X183170000Y-73330000D01*
X183170000Y-70590000D02*
X188410000Y-70590000D01*
X183170000Y-73330000D02*
X188410000Y-73330000D01*
X188410000Y-70590000D02*
X188410000Y-73330000D01*
%TO.C,R12*%
X193130000Y-56040000D02*
X193130000Y-62580000D01*
X193130000Y-62580000D02*
X193460000Y-62580000D01*
X193460000Y-56040000D02*
X193130000Y-56040000D01*
X195540000Y-56040000D02*
X195870000Y-56040000D01*
X195870000Y-56040000D02*
X195870000Y-62580000D01*
X195870000Y-62580000D02*
X195540000Y-62580000D01*
%TO.C,FL1*%
X140000000Y-63500000D02*
X140000000Y-66500000D01*
X140000000Y-63500000D02*
X143000000Y-63500000D01*
X140380000Y-76000000D02*
X140380000Y-66000000D01*
X142500000Y-63880000D02*
X152500000Y-63880000D01*
X152500000Y-78120000D02*
X142500000Y-78120000D01*
X154620000Y-66000000D02*
X154620000Y-76000000D01*
X140380000Y-66000000D02*
G75*
G02*
X142500000Y-63880000I2120001J-1D01*
G01*
X142500000Y-78120000D02*
G75*
G02*
X140380000Y-76000000I1J2120001D01*
G01*
X152500000Y-63880000D02*
G75*
G02*
X154620000Y-66000000I0J-2120000D01*
G01*
X154620000Y-76000000D02*
G75*
G02*
X152500000Y-78120000I-2120000J0D01*
G01*
%TO.C,R11*%
X182580000Y-58590000D02*
X189120000Y-58590000D01*
X182580000Y-58920000D02*
X182580000Y-58590000D01*
X182580000Y-61000000D02*
X182580000Y-61330000D01*
X182580000Y-61330000D02*
X189120000Y-61330000D01*
X189120000Y-58590000D02*
X189120000Y-58920000D01*
X189120000Y-61330000D02*
X189120000Y-61000000D01*
%TO.C,SW4*%
X168600000Y-96100000D02*
X168600000Y-97300000D01*
X168600000Y-105300000D02*
X168600000Y-104100000D01*
X172800000Y-96100000D02*
X168600000Y-96100000D01*
X172800000Y-96450000D02*
X172800000Y-96100000D01*
X172800000Y-104100000D02*
X172800000Y-105300000D01*
X172800000Y-105300000D02*
X168600000Y-105300000D01*
X173280000Y-97200000D02*
X172800000Y-97200000D01*
X172800000Y-96720000D01*
X173280000Y-97200000D01*
G36*
X173280000Y-97200000D02*
G01*
X172800000Y-97200000D01*
X172800000Y-96720000D01*
X173280000Y-97200000D01*
G37*
%TO.C,SW2*%
X128600000Y-96100000D02*
X128600000Y-97300000D01*
X128600000Y-105300000D02*
X128600000Y-104100000D01*
X132800000Y-96100000D02*
X128600000Y-96100000D01*
X132800000Y-96450000D02*
X132800000Y-96100000D01*
X132800000Y-104100000D02*
X132800000Y-105300000D01*
X132800000Y-105300000D02*
X128600000Y-105300000D01*
X133280000Y-97200000D02*
X132800000Y-97200000D01*
X132800000Y-96720000D01*
X133280000Y-97200000D01*
G36*
X133280000Y-97200000D02*
G01*
X132800000Y-97200000D01*
X132800000Y-96720000D01*
X133280000Y-97200000D01*
G37*
%TO.C,J2*%
X112170000Y-78450000D02*
X112170000Y-52930000D01*
X114770000Y-75850000D02*
X114770000Y-78450000D01*
X114770000Y-78450000D02*
X112170000Y-78450000D01*
X117370000Y-52930000D02*
X112170000Y-52930000D01*
X117370000Y-75850000D02*
X114770000Y-75850000D01*
X117370000Y-75850000D02*
X117370000Y-52930000D01*
X117370000Y-77120000D02*
X117370000Y-78450000D01*
X117370000Y-78450000D02*
X116040000Y-78450000D01*
%TO.C,R1*%
X121460000Y-59090000D02*
X128000000Y-59090000D01*
X121460000Y-59420000D02*
X121460000Y-59090000D01*
X121460000Y-61500000D02*
X121460000Y-61830000D01*
X121460000Y-61830000D02*
X128000000Y-61830000D01*
X128000000Y-59090000D02*
X128000000Y-59420000D01*
X128000000Y-61830000D02*
X128000000Y-61500000D01*
%TO.C,C5*%
X150130000Y-53130000D02*
X150130000Y-55870000D01*
X150130000Y-53130000D02*
X155370000Y-53130000D01*
X150130000Y-55870000D02*
X155370000Y-55870000D01*
X155370000Y-53130000D02*
X155370000Y-55870000D01*
%TO.C,R6*%
X161230000Y-74130000D02*
X167770000Y-74130000D01*
X161230000Y-74460000D02*
X161230000Y-74130000D01*
X161230000Y-76540000D02*
X161230000Y-76870000D01*
X161230000Y-76870000D02*
X167770000Y-76870000D01*
X167770000Y-74130000D02*
X167770000Y-74460000D01*
X167770000Y-76870000D02*
X167770000Y-76540000D01*
%TO.C,C6*%
X132630000Y-54130000D02*
X132630000Y-56870000D01*
X132630000Y-54130000D02*
X137870000Y-54130000D01*
X132630000Y-56870000D02*
X137870000Y-56870000D01*
X137870000Y-54130000D02*
X137870000Y-56870000D01*
%TO.C,TR1*%
X110730000Y-121340000D02*
X110730000Y-149580000D01*
X110730000Y-121340000D02*
X141970000Y-121340000D01*
X114850000Y-124460000D02*
X114850000Y-146460000D01*
X115350000Y-124460000D02*
X114850000Y-124460000D01*
X117850000Y-146460000D02*
X120350000Y-146460000D01*
X120350000Y-124460000D02*
X117350000Y-124460000D01*
X122350000Y-146460000D02*
X130350000Y-146460000D01*
X125350000Y-124460000D02*
X122350000Y-124460000D01*
X130350000Y-124460000D02*
X127350000Y-124460000D01*
X132350000Y-146460000D02*
X135350000Y-146460000D01*
X135350000Y-124460000D02*
X132350000Y-124460000D01*
X137350000Y-146460000D02*
X137850000Y-146460000D01*
X137850000Y-124460000D02*
X137350000Y-124460000D01*
X137850000Y-146460000D02*
X137850000Y-124460000D01*
X141970000Y-149580000D02*
X110730000Y-149580000D01*
X141970000Y-149580000D02*
X141970000Y-121340000D01*
%TO.C,C3*%
X164380000Y-58630000D02*
X164380000Y-61370000D01*
X164380000Y-58630000D02*
X169620000Y-58630000D01*
X164380000Y-61370000D02*
X169620000Y-61370000D01*
X169620000Y-58630000D02*
X169620000Y-61370000D01*
%TO.C,Q1*%
X127200000Y-75210000D02*
X130800000Y-75210000D01*
X127161522Y-75198478D02*
G75*
G02*
X129000000Y-70759999I1838478J1838478D01*
G01*
X129000000Y-70760000D02*
G75*
G02*
X130838478Y-75198478I0J-2600000D01*
G01*
%TO.C,C4*%
X183170000Y-75590000D02*
X183170000Y-78330000D01*
X183170000Y-75590000D02*
X188410000Y-75590000D01*
X183170000Y-78330000D02*
X188410000Y-78330000D01*
X188410000Y-75590000D02*
X188410000Y-78330000D01*
%TO.C,R9*%
X182770000Y-52590000D02*
X189310000Y-52590000D01*
X182770000Y-52920000D02*
X182770000Y-52590000D01*
X182770000Y-55000000D02*
X182770000Y-55330000D01*
X182770000Y-55330000D02*
X189310000Y-55330000D01*
X189310000Y-52590000D02*
X189310000Y-52920000D01*
X189310000Y-55330000D02*
X189310000Y-55000000D01*
%TO.C,J1*%
X188515000Y-125730000D02*
X193265000Y-125730000D01*
X188515000Y-128360000D02*
X188515000Y-125730000D01*
X188515000Y-134760000D02*
X188515000Y-131160000D01*
X188515000Y-141060000D02*
X188515000Y-137460000D01*
X188515000Y-146580000D02*
X188515000Y-143860000D01*
X188515000Y-146580000D02*
X191915000Y-146580000D01*
X191915000Y-146580000D02*
X191915000Y-149580000D01*
X191915000Y-149580000D02*
X203555000Y-149580000D01*
X193265000Y-122810000D02*
X193265000Y-125730000D01*
X193305000Y-122810000D02*
X202205000Y-122810000D01*
X202205000Y-122810000D02*
X202205000Y-125730000D01*
X202205000Y-125730000D02*
X206955000Y-125730000D01*
X203555000Y-146580000D02*
X203555000Y-149580000D01*
X203555000Y-146580000D02*
X206955000Y-146580000D01*
X206955000Y-125730000D02*
X206955000Y-128360000D01*
X206955000Y-131160000D02*
X206955000Y-134760000D01*
X206955000Y-137460000D02*
X206955000Y-141060000D01*
X206955000Y-146580000D02*
X206955000Y-143860000D01*
%TO.C,Q2*%
X174430000Y-64350000D02*
X178030000Y-64350000D01*
X174391522Y-64338478D02*
G75*
G02*
X176230000Y-59899999I1838478J1838478D01*
G01*
X176230000Y-59900000D02*
G75*
G02*
X178068478Y-64338478I0J-2600000D01*
G01*
%TO.C,SW6*%
X208600000Y-96100000D02*
X208600000Y-97300000D01*
X208600000Y-105300000D02*
X208600000Y-104100000D01*
X212800000Y-96100000D02*
X208600000Y-96100000D01*
X212800000Y-96450000D02*
X212800000Y-96100000D01*
X212800000Y-104100000D02*
X212800000Y-105300000D01*
X212800000Y-105300000D02*
X208600000Y-105300000D01*
X213280000Y-97200000D02*
X212800000Y-97200000D01*
X212800000Y-96720000D01*
X213280000Y-97200000D01*
G36*
X213280000Y-97200000D02*
G01*
X212800000Y-97200000D01*
X212800000Y-96720000D01*
X213280000Y-97200000D01*
G37*
%TO.C,R8*%
X172920000Y-69130000D02*
X179460000Y-69130000D01*
X172920000Y-69460000D02*
X172920000Y-69130000D01*
X172920000Y-71540000D02*
X172920000Y-71870000D01*
X172920000Y-71870000D02*
X179460000Y-71870000D01*
X179460000Y-69130000D02*
X179460000Y-69460000D01*
X179460000Y-71870000D02*
X179460000Y-71540000D01*
%TO.C,J3*%
X197600000Y-49900000D02*
X197600000Y-51500000D01*
X197900000Y-50200000D02*
X200000000Y-50200000D01*
X197900000Y-64900000D02*
X197900000Y-50200000D01*
X199300000Y-49900000D02*
X197600000Y-49900000D01*
X205000000Y-50200000D02*
X207100000Y-50200000D01*
X207100000Y-50200000D02*
X207100000Y-52000000D01*
X207100000Y-56400000D02*
X207100000Y-64900000D01*
X207100000Y-64900000D02*
X197900000Y-64900000D01*
%TO.C,SW5*%
X188600000Y-96100000D02*
X188600000Y-97300000D01*
X188600000Y-105300000D02*
X188600000Y-104100000D01*
X192800000Y-96100000D02*
X188600000Y-96100000D01*
X192800000Y-96450000D02*
X192800000Y-96100000D01*
X192800000Y-104100000D02*
X192800000Y-105300000D01*
X192800000Y-105300000D02*
X188600000Y-105300000D01*
X193280000Y-97200000D02*
X192800000Y-97200000D01*
X192800000Y-96720000D01*
X193280000Y-97200000D01*
G36*
X193280000Y-97200000D02*
G01*
X192800000Y-97200000D01*
X192800000Y-96720000D01*
X193280000Y-97200000D01*
G37*
%TO.C,C1*%
X150130000Y-58630000D02*
X150130000Y-61370000D01*
X150130000Y-58630000D02*
X155370000Y-58630000D01*
X150130000Y-61370000D02*
X155370000Y-61370000D01*
X155370000Y-58630000D02*
X155370000Y-61370000D01*
%TO.C,J5*%
X210950000Y-63760000D02*
X210950000Y-65500000D01*
X210950000Y-65500000D02*
X212450000Y-65500000D01*
X211190000Y-58640000D02*
X211190000Y-65260000D01*
X211190000Y-58640000D02*
X218310000Y-58640000D01*
X211190000Y-63700000D02*
X218310000Y-63700000D01*
X211190000Y-65260000D02*
X218310000Y-65260000D01*
X215397000Y-62414000D02*
X215321000Y-62490000D01*
X215565000Y-62625000D02*
X215511000Y-62680000D01*
X217490000Y-60320000D02*
X217436000Y-60374000D01*
X217680000Y-60510000D02*
X217604000Y-60586000D01*
X218310000Y-58640000D02*
X218310000Y-65260000D01*
X211613355Y-62205733D02*
G75*
G02*
X211614000Y-60793000I1386645J705733D01*
G01*
X212294267Y-60113355D02*
G75*
G02*
X213707000Y-60114000I705733J-1386645D01*
G01*
X213026444Y-63055682D02*
G75*
G02*
X212293000Y-62886000I-26445J1555677D01*
G01*
X213705955Y-62885515D02*
G75*
G02*
X213000000Y-63055000I-705957J1385523D01*
G01*
X214386645Y-60794267D02*
G75*
G02*
X214386000Y-62207000I-1386646J-705734D01*
G01*
X218055000Y-61500000D02*
G75*
G02*
X214945000Y-61500000I-1555000J0D01*
G01*
X214945000Y-61500000D02*
G75*
G02*
X218055000Y-61500000I1555000J0D01*
G01*
%TO.C,R7*%
X172920000Y-74130000D02*
X179460000Y-74130000D01*
X172920000Y-74460000D02*
X172920000Y-74130000D01*
X172920000Y-76540000D02*
X172920000Y-76870000D01*
X172920000Y-76870000D02*
X179460000Y-76870000D01*
X179460000Y-74130000D02*
X179460000Y-74460000D01*
X179460000Y-76870000D02*
X179460000Y-76540000D01*
%TD*%
M02*
