M48
; DRILL file {KiCad 8.0.5} date 2026-04-04T10:40:15-0700
; FORMAT={-:-/ absolute / inch / decimal}
; #@! TF.CreationDate,2026-04-04T10:40:15-07:00
; #@! TF.GenerationSoftware,Kicad,Pcbnew,8.0.5
; #@! TF.FileFunction,Plated,1,2,PTH
FMAT,2
INCH
; #@! TA.AperFunction,Plated,PTH,ComponentDrill
T1C0.0276
; #@! TA.AperFunction,Plated,PTH,ComponentDrill
T2C0.0295
; #@! TA.AperFunction,Plated,PTH,ComponentDrill
T3C0.0315
; #@! TA.AperFunction,Plated,PTH,ComponentDrill
T4C0.0354
; #@! TA.AperFunction,Plated,PTH,ComponentDrill
T5C0.0394
; #@! TA.AperFunction,Plated,PTH,ComponentDrill
T6C0.0551
; #@! TA.AperFunction,Plated,PTH,ComponentDrill
T7C0.0709
%
G90
G05
T1
X5.6102Y-2.5984
X5.6102Y-2.9921
X6.0039Y-2.5984
X6.0039Y-2.9921
T2
X5.0287Y-2.8882
X5.0787Y-2.8882
X5.1287Y-2.8882
X6.8882Y-2.4606
X6.9382Y-2.4606
X6.9882Y-2.4606
T3
X4.7531Y-2.1835
X4.7531Y-2.5772
X4.7606Y-2.3803
X5.0531Y-2.1835
X5.0531Y-2.5772
X5.0606Y-2.3803
X5.2756Y-2.185
X5.2756Y-2.3819
X5.2756Y-2.5772
X5.374Y-2.185
X5.374Y-2.3819
X5.374Y-2.5772
X5.9646Y-2.1457
X5.9646Y-2.3622
X6.063Y-2.1457
X6.063Y-2.3622
X6.2402Y-2.1457
X6.2402Y-2.3622
X6.3264Y-2.7756
X6.3264Y-2.9724
X6.3339Y-2.5984
X6.3386Y-2.1457
X6.3386Y-2.3622
X6.5256Y-2.3622
X6.624Y-2.3622
X6.6264Y-2.7756
X6.6264Y-2.9724
X6.6339Y-2.5984
X6.7866Y-2.7756
X6.7866Y-2.9724
X7.0866Y-2.7756
X7.0866Y-2.9724
X7.1669Y-2.3606
X7.1669Y-2.5969
X7.1744Y-2.1244
X7.2654Y-2.8331
X7.2654Y-3.0299
X7.3638Y-2.8331
X7.3638Y-3.0299
X7.4669Y-2.3606
X7.4669Y-2.5969
X7.4744Y-2.1244
T4
X4.2933Y-3.8661
X4.2933Y-3.9646
X4.2933Y-4.063
X4.4232Y-3.8661
X4.4232Y-3.9646
X4.4232Y-4.063
X4.5807Y-4.9394
X4.5807Y-5.7268
X4.7776Y-4.9394
X4.7776Y-5.7268
X4.9744Y-4.9394
X5.0807Y-3.8661
X5.0807Y-3.9646
X5.0807Y-4.063
X5.1713Y-4.9394
X5.1713Y-5.7268
X5.2106Y-3.8661
X5.2106Y-3.9646
X5.2106Y-4.063
X5.3681Y-4.9394
X5.3681Y-5.7268
X5.8681Y-3.8661
X5.8681Y-3.9646
X5.8681Y-4.063
X5.998Y-3.8661
X5.998Y-3.9646
X5.998Y-4.063
X6.6555Y-3.8661
X6.6555Y-3.9646
X6.6555Y-4.063
X6.7854Y-3.8661
X6.7854Y-3.9646
X6.7854Y-4.063
X7.4429Y-3.8661
X7.4429Y-3.9646
X7.4429Y-4.063
X7.5728Y-3.8661
X7.5728Y-3.9646
X7.5728Y-4.063
X8.2303Y-3.8661
X8.2303Y-3.9646
X8.2303Y-4.063
X8.3602Y-3.8661
X8.3602Y-3.9646
X8.3602Y-4.063
T5
X4.4685Y-2.1362
X4.4685Y-2.2362
X4.4685Y-2.3362
X4.4685Y-2.4362
X4.4685Y-2.5362
X4.4685Y-2.6362
X4.4685Y-2.7362
X4.4685Y-2.8362
X4.4685Y-2.9362
X4.4685Y-3.0362
X4.5685Y-2.1362
X4.5685Y-2.2362
X4.5685Y-2.3362
X4.5685Y-2.4362
X4.5685Y-2.5362
X4.5685Y-2.6362
X4.5685Y-2.7362
X4.5685Y-2.8362
X4.5685Y-2.9362
X4.5685Y-3.0362
X6.2343Y-4.9591
X6.3327Y-4.9591
X6.4311Y-4.9591
T6
X7.4654Y-5.1087
X7.4654Y-5.3587
X7.4654Y-5.6087
X8.1043Y-5.1087
X8.1043Y-5.3587
X8.1043Y-5.6087
T7
X6.1437Y-5.2543
X6.5217Y-5.2543
M30
