%TF.GenerationSoftware,KiCad,Pcbnew,8.0.5*%
%TF.CreationDate,2026-04-04T12:35:23-07:00*%
%TF.ProjectId,irkem_crapinetPreamp_v0,69726b65-6d5f-4637-9261-70696e657450,rev?*%
%TF.SameCoordinates,Original*%
%TF.FileFunction,Soldermask,Top*%
%TF.FilePolarity,Negative*%
%FSLAX46Y46*%
G04 Gerber Fmt 4.6, Leading zero omitted, Abs format (unit mm)*
G04 Created by KiCad (PCBNEW 8.0.5) date 2026-04-04 12:35:23*
%MOMM*%
%LPD*%
G01*
G04 APERTURE LIST*
G04 Aperture macros list*
%AMRoundRect*
0 Rectangle with rounded corners*
0 $1 Rounding radius*
0 $2 $3 $4 $5 $6 $7 $8 $9 X,Y pos of 4 corners*
0 Add a 4 corners polygon primitive as box body*
4,1,4,$2,$3,$4,$5,$6,$7,$8,$9,$2,$3,0*
0 Add four circle primitives for the rounded corners*
1,1,$1+$1,$2,$3*
1,1,$1+$1,$4,$5*
1,1,$1+$1,$6,$7*
1,1,$1+$1,$8,$9*
0 Add four rect primitives between the rounded corners*
20,1,$1+$1,$2,$3,$4,$5,0*
20,1,$1+$1,$4,$5,$6,$7,0*
20,1,$1+$1,$6,$7,$8,$9,0*
20,1,$1+$1,$8,$9,$2,$3,0*%
G04 Aperture macros list end*
%ADD10C,1.600000*%
%ADD11RoundRect,0.250000X-0.450000X0.450000X-0.450000X-0.450000X0.450000X-0.450000X0.450000X0.450000X0*%
%ADD12C,1.400000*%
%ADD13O,1.600000X1.600000*%
%ADD14C,3.240000*%
%ADD15R,1.800000X1.800000*%
%ADD16C,1.800000*%
%ADD17R,2.000000X2.000000*%
%ADD18C,2.000000*%
%ADD19R,1.700000X1.700000*%
%ADD20O,1.700000X1.700000*%
%ADD21R,1.050000X1.500000*%
%ADD22O,1.050000X1.500000*%
%ADD23C,3.000000*%
%ADD24R,4.400000X1.800000*%
%ADD25O,4.000000X1.800000*%
%ADD26O,1.800000X4.000000*%
%ADD27R,2.300000X2.300000*%
%ADD28C,2.300000*%
G04 APERTURE END LIST*
D10*
%TO.C,C2*%
X158500000Y-60000000D03*
X161000000Y-60000000D03*
%TD*%
D11*
%TO.C,SW3*%
X152350000Y-98200000D03*
D12*
X152350000Y-100700000D03*
X152350000Y-103200000D03*
X149050000Y-103200000D03*
X149050000Y-100700000D03*
X149050000Y-98200000D03*
%TD*%
D10*
%TO.C,C7*%
X134000000Y-60500000D03*
X136500000Y-60500000D03*
%TD*%
%TO.C,C8*%
X158500000Y-54500000D03*
X161000000Y-54500000D03*
%TD*%
%TO.C,R10*%
X182040000Y-65960000D03*
D13*
X189660000Y-65960000D03*
%TD*%
D11*
%TO.C,SW1*%
X112350000Y-98200000D03*
D12*
X112350000Y-100700000D03*
X112350000Y-103200000D03*
X109050000Y-103200000D03*
X109050000Y-100700000D03*
X109050000Y-98200000D03*
%TD*%
D10*
%TO.C,R5*%
X160880000Y-66000000D03*
D13*
X168500000Y-66000000D03*
%TD*%
D14*
%TO.C,RV1*%
X165650000Y-133460000D03*
X156050000Y-133460000D03*
D15*
X163350000Y-125960000D03*
D16*
X160850000Y-125960000D03*
X158350000Y-125960000D03*
%TD*%
D10*
%TO.C,R2*%
X160690000Y-70500000D03*
D13*
X168310000Y-70500000D03*
%TD*%
D10*
%TO.C,R4*%
X120730000Y-65460000D03*
D13*
X128350000Y-65460000D03*
%TD*%
D10*
%TO.C,R3*%
X120730000Y-55460000D03*
D13*
X128350000Y-55460000D03*
%TD*%
D10*
%TO.C,C9*%
X134000000Y-65460000D03*
X136500000Y-65460000D03*
%TD*%
%TO.C,C10*%
X184540000Y-71960000D03*
X187040000Y-71960000D03*
%TD*%
%TO.C,R12*%
X194500000Y-55500000D03*
D13*
X194500000Y-63120000D03*
%TD*%
D17*
%TO.C,FL1*%
X142500000Y-66000000D03*
D18*
X152500000Y-66000000D03*
X142500000Y-76000000D03*
X152500000Y-76000000D03*
%TD*%
D10*
%TO.C,R11*%
X182040000Y-59960000D03*
D13*
X189660000Y-59960000D03*
%TD*%
D11*
%TO.C,SW4*%
X172350000Y-98200000D03*
D12*
X172350000Y-100700000D03*
X172350000Y-103200000D03*
X169050000Y-103200000D03*
X169050000Y-100700000D03*
X169050000Y-98200000D03*
%TD*%
D11*
%TO.C,SW2*%
X132350000Y-98200000D03*
D12*
X132350000Y-100700000D03*
X132350000Y-103200000D03*
X129050000Y-103200000D03*
X129050000Y-100700000D03*
X129050000Y-98200000D03*
%TD*%
D19*
%TO.C,J2*%
X116040000Y-77120000D03*
D20*
X113500000Y-77120000D03*
X116040000Y-74580000D03*
X113500000Y-74580000D03*
X116040000Y-72040000D03*
X113500000Y-72040000D03*
X116040000Y-69500000D03*
X113500000Y-69500000D03*
X116040000Y-66960000D03*
X113500000Y-66960000D03*
X116040000Y-64420000D03*
X113500000Y-64420000D03*
X116040000Y-61880000D03*
X113500000Y-61880000D03*
X116040000Y-59340000D03*
X113500000Y-59340000D03*
X116040000Y-56800000D03*
X113500000Y-56800000D03*
X116040000Y-54260000D03*
X113500000Y-54260000D03*
%TD*%
D10*
%TO.C,R1*%
X120920000Y-60460000D03*
D13*
X128540000Y-60460000D03*
%TD*%
D10*
%TO.C,C5*%
X151500000Y-54500000D03*
X154000000Y-54500000D03*
%TD*%
%TO.C,R6*%
X160690000Y-75500000D03*
D13*
X168310000Y-75500000D03*
%TD*%
D10*
%TO.C,C6*%
X134000000Y-55500000D03*
X136500000Y-55500000D03*
%TD*%
D17*
%TO.C,TR1*%
X116350000Y-145460000D03*
D18*
X121350000Y-145460000D03*
X131350000Y-145460000D03*
X136350000Y-145460000D03*
X136350000Y-125460000D03*
X131350000Y-125460000D03*
X126350000Y-125460000D03*
X121350000Y-125460000D03*
X116350000Y-125460000D03*
%TD*%
D10*
%TO.C,C3*%
X165750000Y-60000000D03*
X168250000Y-60000000D03*
%TD*%
D21*
%TO.C,Q1*%
X127730000Y-73360000D03*
D22*
X129000000Y-73360000D03*
X130270000Y-73360000D03*
%TD*%
D10*
%TO.C,C4*%
X184540000Y-76960000D03*
X187040000Y-76960000D03*
%TD*%
%TO.C,R9*%
X182230000Y-53960000D03*
D13*
X189850000Y-53960000D03*
%TD*%
D23*
%TO.C,J1*%
X205850000Y-136110000D03*
X189620000Y-136110000D03*
X205850000Y-142460000D03*
X189620000Y-142460000D03*
X205850000Y-129760000D03*
X189620000Y-129760000D03*
%TD*%
D21*
%TO.C,Q2*%
X174960000Y-62500000D03*
D22*
X176230000Y-62500000D03*
X177500000Y-62500000D03*
%TD*%
D11*
%TO.C,SW6*%
X212350000Y-98200000D03*
D12*
X212350000Y-100700000D03*
X212350000Y-103200000D03*
X209050000Y-103200000D03*
X209050000Y-100700000D03*
X209050000Y-98200000D03*
%TD*%
D10*
%TO.C,R8*%
X172380000Y-70500000D03*
D13*
X180000000Y-70500000D03*
%TD*%
D24*
%TO.C,J3*%
X202500000Y-51200000D03*
D25*
X202500000Y-57000000D03*
D26*
X207300000Y-54200000D03*
%TD*%
D11*
%TO.C,SW5*%
X192350000Y-98200000D03*
D12*
X192350000Y-100700000D03*
X192350000Y-103200000D03*
X189050000Y-103200000D03*
X189050000Y-100700000D03*
X189050000Y-98200000D03*
%TD*%
D10*
%TO.C,C1*%
X151500000Y-60000000D03*
X154000000Y-60000000D03*
%TD*%
D27*
%TO.C,J5*%
X213000000Y-61500000D03*
D28*
X216500000Y-61500000D03*
%TD*%
D10*
%TO.C,R7*%
X172380000Y-75500000D03*
D13*
X180000000Y-75500000D03*
%TD*%
M02*
