%TF.GenerationSoftware,KiCad,Pcbnew,8.0.5*%
%TF.CreationDate,2026-04-04T12:35:23-07:00*%
%TF.ProjectId,irkem_crapinetPreamp_v0,69726b65-6d5f-4637-9261-70696e657450,rev?*%
%TF.SameCoordinates,Original*%
%TF.FileFunction,Copper,L2,Bot*%
%TF.FilePolarity,Positive*%
%FSLAX46Y46*%
G04 Gerber Fmt 4.6, Leading zero omitted, Abs format (unit mm)*
G04 Created by KiCad (PCBNEW 8.0.5) date 2026-04-04 12:35:23*
%MOMM*%
%LPD*%
G01*
G04 APERTURE LIST*
G04 Aperture macros list*
%AMRoundRect*
0 Rectangle with rounded corners*
0 $1 Rounding radius*
0 $2 $3 $4 $5 $6 $7 $8 $9 X,Y pos of 4 corners*
0 Add a 4 corners polygon primitive as box body*
4,1,4,$2,$3,$4,$5,$6,$7,$8,$9,$2,$3,0*
0 Add four circle primitives for the rounded corners*
1,1,$1+$1,$2,$3*
1,1,$1+$1,$4,$5*
1,1,$1+$1,$6,$7*
1,1,$1+$1,$8,$9*
0 Add four rect primitives between the rounded corners*
20,1,$1+$1,$2,$3,$4,$5,0*
20,1,$1+$1,$4,$5,$6,$7,0*
20,1,$1+$1,$6,$7,$8,$9,0*
20,1,$1+$1,$8,$9,$2,$3,0*%
G04 Aperture macros list end*
%TA.AperFunction,ComponentPad*%
%ADD10C,1.600000*%
%TD*%
%TA.AperFunction,ComponentPad*%
%ADD11RoundRect,0.250000X-0.450000X0.450000X-0.450000X-0.450000X0.450000X-0.450000X0.450000X0.450000X0*%
%TD*%
%TA.AperFunction,ComponentPad*%
%ADD12C,1.400000*%
%TD*%
%TA.AperFunction,ComponentPad*%
%ADD13O,1.600000X1.600000*%
%TD*%
%TA.AperFunction,ComponentPad*%
%ADD14C,3.240000*%
%TD*%
%TA.AperFunction,ComponentPad*%
%ADD15R,1.800000X1.800000*%
%TD*%
%TA.AperFunction,ComponentPad*%
%ADD16C,1.800000*%
%TD*%
%TA.AperFunction,ComponentPad*%
%ADD17R,2.000000X2.000000*%
%TD*%
%TA.AperFunction,ComponentPad*%
%ADD18C,2.000000*%
%TD*%
%TA.AperFunction,ComponentPad*%
%ADD19R,1.700000X1.700000*%
%TD*%
%TA.AperFunction,ComponentPad*%
%ADD20O,1.700000X1.700000*%
%TD*%
%TA.AperFunction,ComponentPad*%
%ADD21R,1.050000X1.500000*%
%TD*%
%TA.AperFunction,ComponentPad*%
%ADD22O,1.050000X1.500000*%
%TD*%
%TA.AperFunction,ComponentPad*%
%ADD23C,3.000000*%
%TD*%
%TA.AperFunction,ComponentPad*%
%ADD24R,4.400000X1.800000*%
%TD*%
%TA.AperFunction,ComponentPad*%
%ADD25O,4.000000X1.800000*%
%TD*%
%TA.AperFunction,ComponentPad*%
%ADD26O,1.800000X4.000000*%
%TD*%
%TA.AperFunction,ComponentPad*%
%ADD27R,2.300000X2.300000*%
%TD*%
%TA.AperFunction,ComponentPad*%
%ADD28C,2.300000*%
%TD*%
%TA.AperFunction,Conductor*%
%ADD29C,0.200000*%
%TD*%
G04 APERTURE END LIST*
D10*
%TO.P,C2,1*%
%TO.N,Net-(Q1-C)*%
X158500000Y-60000000D03*
%TO.P,C2,2*%
%TO.N,Net-(Q1-B)*%
X161000000Y-60000000D03*
%TD*%
D11*
%TO.P,SW3,1,A*%
%TO.N,unconnected-(SW3A-A-Pad1)*%
X152350000Y-98200000D03*
D12*
%TO.P,SW3,2,B*%
%TO.N,Net-(SW3A-B)*%
X152350000Y-100700000D03*
%TO.P,SW3,3,C*%
%TO.N,Net-(SW3A-C)*%
X152350000Y-103200000D03*
%TO.P,SW3,4,A*%
%TO.N,unconnected-(SW3B-A-Pad4)*%
X149050000Y-103200000D03*
%TO.P,SW3,5,B*%
%TO.N,unconnected-(SW3B-B-Pad5)*%
X149050000Y-100700000D03*
%TO.P,SW3,6,C*%
%TO.N,unconnected-(SW3B-C-Pad6)*%
X149050000Y-98200000D03*
%TD*%
D10*
%TO.P,C7,1*%
%TO.N,Net-(SW5A-B)*%
X134000000Y-60500000D03*
%TO.P,C7,2*%
%TO.N,Net-(SW4A-B)*%
X136500000Y-60500000D03*
%TD*%
%TO.P,C8,1*%
%TO.N,Net-(SW3A-C)*%
X158500000Y-54500000D03*
%TO.P,C8,2*%
%TO.N,Net-(Q1-C)*%
X161000000Y-54500000D03*
%TD*%
%TO.P,R10,1*%
%TO.N,Net-(C10-Pad2)*%
X182040000Y-65960000D03*
D13*
%TO.P,R10,2*%
%TO.N,GND*%
X189660000Y-65960000D03*
%TD*%
D11*
%TO.P,SW1,1,A*%
%TO.N,Net-(SW1A-A)*%
X112350000Y-98200000D03*
D12*
%TO.P,SW1,2,B*%
%TO.N,Net-(SW1A-B)*%
X112350000Y-100700000D03*
%TO.P,SW1,3,C*%
%TO.N,Net-(J2-Pin_3)*%
X112350000Y-103200000D03*
%TO.P,SW1,4,A*%
X109050000Y-103200000D03*
%TO.P,SW1,5,B*%
%TO.N,GND*%
X109050000Y-100700000D03*
%TO.P,SW1,6,C*%
%TO.N,Net-(J2-Pin_4)*%
X109050000Y-98200000D03*
%TD*%
D10*
%TO.P,R5,1*%
%TO.N,Net-(Q1-C)*%
X160880000Y-66000000D03*
D13*
%TO.P,R5,2*%
%TO.N,Net-(Q1-B)*%
X168500000Y-66000000D03*
%TD*%
D14*
%TO.P,RV1,*%
%TO.N,*%
X165650000Y-133460000D03*
X156050000Y-133460000D03*
D15*
%TO.P,RV1,1,1*%
%TO.N,Net-(C4-Pad1)*%
X163350000Y-125960000D03*
D16*
%TO.P,RV1,2,2*%
%TO.N,Net-(J1-PadT)*%
X160850000Y-125960000D03*
%TO.P,RV1,3,3*%
%TO.N,GND*%
X158350000Y-125960000D03*
%TD*%
D10*
%TO.P,R2,1*%
%TO.N,Net-(SW3A-C)*%
X160690000Y-70500000D03*
D13*
%TO.P,R2,2*%
%TO.N,Net-(SW3A-B)*%
X168310000Y-70500000D03*
%TD*%
D10*
%TO.P,R4,1*%
%TO.N,Net-(J2-Pin_9)*%
X120730000Y-65460000D03*
D13*
%TO.P,R4,2*%
%TO.N,Net-(Q1-C)*%
X128350000Y-65460000D03*
%TD*%
D10*
%TO.P,R3,1*%
%TO.N,Net-(SW3A-B)*%
X120730000Y-55460000D03*
D13*
%TO.P,R3,2*%
%TO.N,Net-(SW4A-B)*%
X128350000Y-55460000D03*
%TD*%
D10*
%TO.P,C9,1*%
%TO.N,GND*%
X134000000Y-65460000D03*
%TO.P,C9,2*%
%TO.N,Net-(J2-Pin_9)*%
X136500000Y-65460000D03*
%TD*%
%TO.P,C10,1*%
%TO.N,GND*%
X184540000Y-71960000D03*
%TO.P,C10,2*%
%TO.N,Net-(C10-Pad2)*%
X187040000Y-71960000D03*
%TD*%
%TO.P,R12,1*%
%TO.N,Net-(J3-Pad1)*%
X194500000Y-55500000D03*
D13*
%TO.P,R12,2*%
%TO.N,GND*%
X194500000Y-63120000D03*
%TD*%
D17*
%TO.P,FL1,1,1*%
%TO.N,Net-(SW4A-B)*%
X142500000Y-66000000D03*
D18*
%TO.P,FL1,2,2*%
%TO.N,Net-(SW5A-B)*%
X152500000Y-66000000D03*
%TO.P,FL1,3,3*%
%TO.N,GND*%
X142500000Y-76000000D03*
%TO.P,FL1,4,4*%
%TO.N,Net-(SW5A-B)*%
X152500000Y-76000000D03*
%TD*%
D10*
%TO.P,R11,1*%
%TO.N,Net-(Q2-B)*%
X182040000Y-59960000D03*
D13*
%TO.P,R11,2*%
%TO.N,GND*%
X189660000Y-59960000D03*
%TD*%
D11*
%TO.P,SW4,1,A*%
%TO.N,unconnected-(SW4A-A-Pad1)*%
X172350000Y-98200000D03*
D12*
%TO.P,SW4,2,B*%
%TO.N,Net-(SW4A-B)*%
X172350000Y-100700000D03*
%TO.P,SW4,3,C*%
%TO.N,Net-(SW3A-B)*%
X172350000Y-103200000D03*
%TO.P,SW4,4,A*%
%TO.N,unconnected-(SW4B-A-Pad4)*%
X169050000Y-103200000D03*
%TO.P,SW4,5,B*%
%TO.N,unconnected-(SW4B-B-Pad5)*%
X169050000Y-100700000D03*
%TO.P,SW4,6,C*%
%TO.N,unconnected-(SW4B-C-Pad6)*%
X169050000Y-98200000D03*
%TD*%
D11*
%TO.P,SW2,1,A*%
%TO.N,unconnected-(SW2A-A-Pad1)*%
X132350000Y-98200000D03*
D12*
%TO.P,SW2,2,B*%
%TO.N,Net-(SW1A-B)*%
X132350000Y-100700000D03*
%TO.P,SW2,3,C*%
%TO.N,Net-(J2-Pin_1)*%
X132350000Y-103200000D03*
%TO.P,SW2,4,A*%
X129050000Y-103200000D03*
%TO.P,SW2,5,B*%
%TO.N,Net-(SW1A-A)*%
X129050000Y-100700000D03*
%TO.P,SW2,6,C*%
%TO.N,Net-(J2-Pin_4)*%
X129050000Y-98200000D03*
%TD*%
D19*
%TO.P,J2,1,Pin_1*%
%TO.N,Net-(J2-Pin_1)*%
X116040000Y-77120000D03*
D20*
%TO.P,J2,2,Pin_2*%
%TO.N,GND*%
X113500000Y-77120000D03*
%TO.P,J2,3,Pin_3*%
%TO.N,Net-(J2-Pin_3)*%
X116040000Y-74580000D03*
%TO.P,J2,4,Pin_4*%
%TO.N,Net-(J2-Pin_4)*%
X113500000Y-74580000D03*
%TO.P,J2,5,Pin_5*%
%TO.N,Net-(J2-Pin_5)*%
X116040000Y-72040000D03*
%TO.P,J2,6,Pin_6*%
%TO.N,GND*%
X113500000Y-72040000D03*
%TO.P,J2,7,Pin_7*%
%TO.N,unconnected-(J2-Pin_7-Pad7)*%
X116040000Y-69500000D03*
%TO.P,J2,8,Pin_8*%
%TO.N,unconnected-(J2-Pin_8-Pad8)*%
X113500000Y-69500000D03*
%TO.P,J2,9,Pin_9*%
%TO.N,Net-(J2-Pin_9)*%
X116040000Y-66960000D03*
%TO.P,J2,10,Pin_10*%
%TO.N,GND*%
X113500000Y-66960000D03*
%TO.P,J2,11,Pin_11*%
%TO.N,unconnected-(J2-Pin_11-Pad11)*%
X116040000Y-64420000D03*
%TO.P,J2,12,Pin_12*%
%TO.N,unconnected-(J2-Pin_12-Pad12)*%
X113500000Y-64420000D03*
%TO.P,J2,13,Pin_13*%
%TO.N,unconnected-(J2-Pin_13-Pad13)*%
X116040000Y-61880000D03*
%TO.P,J2,14,Pin_14*%
%TO.N,unconnected-(J2-Pin_14-Pad14)*%
X113500000Y-61880000D03*
%TO.P,J2,15,Pin_15*%
%TO.N,unconnected-(J2-Pin_15-Pad15)*%
X116040000Y-59340000D03*
%TO.P,J2,16,Pin_16*%
%TO.N,unconnected-(J2-Pin_16-Pad16)*%
X113500000Y-59340000D03*
%TO.P,J2,17,Pin_17*%
%TO.N,unconnected-(J2-Pin_17-Pad17)*%
X116040000Y-56800000D03*
%TO.P,J2,18,Pin_18*%
%TO.N,unconnected-(J2-Pin_18-Pad18)*%
X113500000Y-56800000D03*
%TO.P,J2,19,Pin_19*%
%TO.N,unconnected-(J2-Pin_19-Pad19)*%
X116040000Y-54260000D03*
%TO.P,J2,20,Pin_20*%
%TO.N,unconnected-(J2-Pin_20-Pad20)*%
X113500000Y-54260000D03*
%TD*%
D10*
%TO.P,R1,1*%
%TO.N,Net-(Q1-B)*%
X120920000Y-60460000D03*
D13*
%TO.P,R1,2*%
%TO.N,GND*%
X128540000Y-60460000D03*
%TD*%
D10*
%TO.P,C5,1*%
%TO.N,Net-(SW3A-B)*%
X151500000Y-54500000D03*
%TO.P,C5,2*%
%TO.N,Net-(SW3A-C)*%
X154000000Y-54500000D03*
%TD*%
%TO.P,R6,1*%
%TO.N,Net-(C3-Pad2)*%
X160690000Y-75500000D03*
D13*
%TO.P,R6,2*%
%TO.N,Net-(SW3A-C)*%
X168310000Y-75500000D03*
%TD*%
D10*
%TO.P,C6,1*%
%TO.N,Net-(SW4A-B)*%
X134000000Y-55500000D03*
%TO.P,C6,2*%
%TO.N,Net-(SW3A-B)*%
X136500000Y-55500000D03*
%TD*%
D17*
%TO.P,TR1,1*%
%TO.N,Net-(SW1A-B)*%
X116350000Y-145460000D03*
D18*
%TO.P,TR1,2*%
%TO.N,N/C*%
X121350000Y-145460000D03*
%TO.P,TR1,4*%
X131350000Y-145460000D03*
%TO.P,TR1,5*%
%TO.N,GND*%
X136350000Y-145460000D03*
%TO.P,TR1,6*%
%TO.N,Net-(J2-Pin_5)*%
X136350000Y-125460000D03*
%TO.P,TR1,7*%
%TO.N,Net-(TR1-Pad7)*%
X131350000Y-125460000D03*
%TO.P,TR1,8*%
%TO.N,N/C*%
X126350000Y-125460000D03*
%TO.P,TR1,9*%
%TO.N,Net-(TR1-Pad7)*%
X121350000Y-125460000D03*
%TO.P,TR1,10*%
%TO.N,GND*%
X116350000Y-125460000D03*
%TD*%
D10*
%TO.P,C3,1*%
%TO.N,Net-(Q2-B)*%
X165750000Y-60000000D03*
%TO.P,C3,2*%
%TO.N,Net-(C3-Pad2)*%
X168250000Y-60000000D03*
%TD*%
D21*
%TO.P,Q1,1,C*%
%TO.N,Net-(Q1-C)*%
X127730000Y-73360000D03*
D22*
%TO.P,Q1,2,B*%
%TO.N,Net-(Q1-B)*%
X129000000Y-73360000D03*
%TO.P,Q1,3,E*%
%TO.N,GND*%
X130270000Y-73360000D03*
%TD*%
D10*
%TO.P,C4,1*%
%TO.N,Net-(C4-Pad1)*%
X184540000Y-76960000D03*
%TO.P,C4,2*%
%TO.N,Net-(Q2-C)*%
X187040000Y-76960000D03*
%TD*%
%TO.P,R9,1*%
%TO.N,Net-(Q2-E)*%
X182230000Y-53960000D03*
D13*
%TO.P,R9,2*%
%TO.N,Net-(C10-Pad2)*%
X189850000Y-53960000D03*
%TD*%
D23*
%TO.P,J1,R*%
%TO.N,unconnected-(J1-PadR)*%
X205850000Y-136110000D03*
%TO.P,J1,RN*%
%TO.N,unconnected-(J1-PadRN)*%
X189620000Y-136110000D03*
%TO.P,J1,S*%
%TO.N,GND*%
X205850000Y-142460000D03*
%TO.P,J1,SN*%
%TO.N,unconnected-(J1-PadSN)*%
X189620000Y-142460000D03*
%TO.P,J1,T*%
%TO.N,Net-(J1-PadT)*%
X205850000Y-129760000D03*
%TO.P,J1,TN*%
%TO.N,unconnected-(J1-PadTN)*%
X189620000Y-129760000D03*
%TD*%
D21*
%TO.P,Q2,1,C*%
%TO.N,Net-(Q2-C)*%
X174960000Y-62500000D03*
D22*
%TO.P,Q2,2,B*%
%TO.N,Net-(Q2-B)*%
X176230000Y-62500000D03*
%TO.P,Q2,3,E*%
%TO.N,Net-(Q2-E)*%
X177500000Y-62500000D03*
%TD*%
D11*
%TO.P,SW6,1,A*%
%TO.N,unconnected-(SW6A-A-Pad1)*%
X212350000Y-98200000D03*
D12*
%TO.P,SW6,2,B*%
%TO.N,GND*%
X212350000Y-100700000D03*
%TO.P,SW6,3,C*%
%TO.N,Net-(SW5A-B)*%
X212350000Y-103200000D03*
%TO.P,SW6,4,A*%
%TO.N,unconnected-(SW6B-A-Pad4)*%
X209050000Y-103200000D03*
%TO.P,SW6,5,B*%
%TO.N,unconnected-(SW6B-B-Pad5)*%
X209050000Y-100700000D03*
%TO.P,SW6,6,C*%
%TO.N,unconnected-(SW6B-C-Pad6)*%
X209050000Y-98200000D03*
%TD*%
D10*
%TO.P,R8,1*%
%TO.N,Net-(J2-Pin_9)*%
X172380000Y-70500000D03*
D13*
%TO.P,R8,2*%
%TO.N,Net-(Q2-C)*%
X180000000Y-70500000D03*
%TD*%
D24*
%TO.P,J3,1*%
%TO.N,Net-(J3-Pad1)*%
X202500000Y-51200000D03*
D25*
%TO.P,J3,2*%
%TO.N,Net-(J2-Pin_9)*%
X202500000Y-57000000D03*
D26*
%TO.P,J3,3*%
%TO.N,Net-(J5-Pin_1)*%
X207300000Y-54200000D03*
%TD*%
D11*
%TO.P,SW5,1,A*%
%TO.N,unconnected-(SW5A-A-Pad1)*%
X192350000Y-98200000D03*
D12*
%TO.P,SW5,2,B*%
%TO.N,Net-(SW5A-B)*%
X192350000Y-100700000D03*
%TO.P,SW5,3,C*%
%TO.N,Net-(SW4A-B)*%
X192350000Y-103200000D03*
%TO.P,SW5,4,A*%
%TO.N,unconnected-(SW5B-A-Pad4)*%
X189050000Y-103200000D03*
%TO.P,SW5,5,B*%
%TO.N,unconnected-(SW5B-B-Pad5)*%
X189050000Y-100700000D03*
%TO.P,SW5,6,C*%
%TO.N,unconnected-(SW5B-C-Pad6)*%
X189050000Y-98200000D03*
%TD*%
D10*
%TO.P,C1,1*%
%TO.N,Net-(Q1-B)*%
X151500000Y-60000000D03*
%TO.P,C1,2*%
%TO.N,Net-(J2-Pin_5)*%
X154000000Y-60000000D03*
%TD*%
D27*
%TO.P,J5,1,Pin_1*%
%TO.N,Net-(J5-Pin_1)*%
X213000000Y-61500000D03*
D28*
%TO.P,J5,2,Pin_2*%
%TO.N,GND*%
X216500000Y-61500000D03*
%TD*%
D10*
%TO.P,R7,1*%
%TO.N,Net-(J2-Pin_9)*%
X172380000Y-75500000D03*
D13*
%TO.P,R7,2*%
%TO.N,Net-(Q2-B)*%
X180000000Y-75500000D03*
%TD*%
D29*
%TO.N,Net-(J5-Pin_1)*%
X208501700Y-55550000D02*
X213000000Y-60048300D01*
X208501700Y-54200000D02*
X208501700Y-55550000D01*
X207300000Y-54200000D02*
X208501700Y-54200000D01*
X213000000Y-61500000D02*
X213000000Y-60048300D01*
%TO.N,Net-(Q2-E)*%
X178327000Y-57863300D02*
X182230000Y-53960000D01*
X178327000Y-62500000D02*
X178327000Y-57863300D01*
X177500000Y-62500000D02*
X178327000Y-62500000D01*
%TO.N,Net-(J2-Pin_3)*%
X114888000Y-100662000D02*
X112350000Y-103200000D01*
X114888000Y-76091600D02*
X114888000Y-100662000D01*
X115248000Y-75731700D02*
X114888000Y-76091600D01*
X116040000Y-75731700D02*
X115248000Y-75731700D01*
X116040000Y-74580000D02*
X116040000Y-75731700D01*
%TO.N,Net-(J2-Pin_1)*%
X116040000Y-90190000D02*
X129050000Y-103200000D01*
X116040000Y-77120000D02*
X116040000Y-90190000D01*
%TO.N,Net-(C10-Pad2)*%
X182040000Y-66960000D02*
X182040000Y-65960000D01*
X187040000Y-71960000D02*
X182040000Y-66960000D01*
X182040000Y-62871700D02*
X182040000Y-65960000D01*
X189850000Y-55061700D02*
X182040000Y-62871700D01*
X189850000Y-53960000D02*
X189850000Y-55061700D01*
%TO.N,Net-(J2-Pin_9)*%
X199553800Y-52852100D02*
X202500000Y-55798300D01*
X181676200Y-52852100D02*
X199553800Y-52852100D01*
X172380000Y-62148300D02*
X181676200Y-52852100D01*
X172380000Y-70500000D02*
X172380000Y-62148300D01*
X202500000Y-57000000D02*
X202500000Y-55798300D01*
%TO.N,GND*%
X138057000Y-71556900D02*
X134000000Y-71556900D01*
X142500000Y-76000000D02*
X138057000Y-71556900D01*
X131097000Y-73360000D02*
X130270000Y-73360000D01*
X132900000Y-71556900D02*
X131097000Y-73360000D01*
X134000000Y-71556900D02*
X132900000Y-71556900D01*
X110284000Y-119394000D02*
X116350000Y-125460000D01*
X110284000Y-101934000D02*
X110284000Y-119394000D01*
X109050000Y-100700000D02*
X110284000Y-101934000D01*
X111061000Y-98689400D02*
X109050000Y-100700000D01*
X111061000Y-80711100D02*
X111061000Y-98689400D01*
X113500000Y-78271700D02*
X111061000Y-80711100D01*
X113500000Y-77120000D02*
X113500000Y-78271700D01*
X212350000Y-99901000D02*
X212350000Y-100700000D01*
X184540000Y-72091000D02*
X212350000Y-99901000D01*
X184540000Y-71960000D02*
X184540000Y-72091000D01*
X210850000Y-102200000D02*
X212350000Y-100700000D01*
X210850000Y-137460000D02*
X210850000Y-102200000D01*
X205850000Y-142460000D02*
X210850000Y-137460000D01*
X116350000Y-125460000D02*
X136350000Y-145460000D01*
X113500000Y-68111700D02*
X113500000Y-66960000D01*
X113768000Y-68111700D02*
X113500000Y-68111700D01*
X114691000Y-69033800D02*
X113768000Y-68111700D01*
X114691000Y-69985600D02*
X114691000Y-69033800D01*
X113788000Y-70888300D02*
X114691000Y-69985600D01*
X113500000Y-70888300D02*
X113788000Y-70888300D01*
X113500000Y-72040000D02*
X113500000Y-70888300D01*
X134000000Y-65460000D02*
X134000000Y-71556900D01*
X129642000Y-60460000D02*
X128540000Y-60460000D01*
X129642000Y-61101700D02*
X129642000Y-60460000D01*
X134000000Y-65460000D02*
X129642000Y-61101700D01*
X189660000Y-59960000D02*
X189660000Y-62960000D01*
X189660000Y-62960000D02*
X189660000Y-65960000D01*
X193238300Y-62960000D02*
X193398300Y-63120000D01*
X189660000Y-62960000D02*
X193238300Y-62960000D01*
X194500000Y-63120000D02*
X193398300Y-63120000D01*
%TO.N,Net-(SW5A-B)*%
X152500000Y-66000000D02*
X152500000Y-76000000D01*
%TO.N,Net-(SW4A-B)*%
X134000000Y-58000000D02*
X136500000Y-60500000D01*
X134000000Y-55500000D02*
X134000000Y-58000000D01*
X141198000Y-65198300D02*
X136500000Y-60500000D01*
X141198000Y-66000000D02*
X141198000Y-65198300D01*
X142500000Y-66000000D02*
X141198000Y-66000000D01*
X173353000Y-101703000D02*
X172350000Y-100700000D01*
X173353000Y-103629000D02*
X173353000Y-101703000D01*
X172714000Y-104267000D02*
X173353000Y-103629000D01*
X151990000Y-104267000D02*
X172714000Y-104267000D01*
X150700000Y-102977000D02*
X151990000Y-104267000D01*
X150700000Y-75501800D02*
X150700000Y-102977000D01*
X142500000Y-67301700D02*
X150700000Y-75501800D01*
X142500000Y-66000000D02*
X142500000Y-67301700D01*
%TO.N,Net-(SW3A-C)*%
X156994000Y-98556200D02*
X152350000Y-103200000D01*
X156994000Y-74196200D02*
X156994000Y-98556200D01*
X160690000Y-70500000D02*
X156994000Y-74196200D01*
X158500000Y-54500000D02*
X157366000Y-55634200D01*
X157366000Y-67175800D02*
X160690000Y-70500000D01*
X157366000Y-55634200D02*
X157366000Y-67175800D01*
X156232000Y-54500000D02*
X157366000Y-55634200D01*
X154000000Y-54500000D02*
X156232000Y-54500000D01*
%TO.N,Net-(SW3A-B)*%
X170850000Y-101700000D02*
X172350000Y-103200000D01*
X170850000Y-74141900D02*
X170850000Y-101700000D01*
X168310000Y-71601700D02*
X170850000Y-74141900D01*
X168310000Y-70500000D02*
X168310000Y-71601700D01*
%TO.N,Net-(C4-Pad1)*%
X184540000Y-103568000D02*
X184540000Y-76960000D01*
X163350000Y-124758000D02*
X184540000Y-103568000D01*
X163350000Y-125960000D02*
X163350000Y-124758000D01*
%TO.N,Net-(Q2-C)*%
X181102000Y-70500000D02*
X180000000Y-70500000D01*
X181102000Y-71021700D02*
X181102000Y-70500000D01*
X187040000Y-76960000D02*
X181102000Y-71021700D01*
%TO.N,Net-(C3-Pad2)*%
X169630000Y-66560400D02*
X160690000Y-75500000D01*
X169630000Y-61379600D02*
X169630000Y-66560400D01*
X168250000Y-60000000D02*
X169630000Y-61379600D01*
%TO.N,Net-(Q2-B)*%
X180000000Y-74398300D02*
X180000000Y-75500000D01*
X176230000Y-70628300D02*
X180000000Y-74398300D01*
X176230000Y-62500000D02*
X176230000Y-70628300D01*
%TO.N,Net-(Q1-C)*%
X127730000Y-67181700D02*
X127730000Y-73360000D01*
X128350000Y-66561700D02*
X127730000Y-67181700D01*
X128350000Y-65460000D02*
X128350000Y-66561700D01*
X161000000Y-57500000D02*
X161000000Y-54500000D01*
X158500000Y-60000000D02*
X161000000Y-57500000D01*
X160880000Y-62380000D02*
X160880000Y-66000000D01*
X158500000Y-60000000D02*
X160880000Y-62380000D01*
%TO.N,Net-(Q1-B)*%
X167000000Y-66000000D02*
X168500000Y-66000000D01*
X161000000Y-60000000D02*
X167000000Y-66000000D01*
X129000000Y-74411700D02*
X129000000Y-73360000D01*
X127074000Y-74411700D02*
X129000000Y-74411700D01*
X124043000Y-71380100D02*
X127074000Y-74411700D01*
X124043000Y-63582900D02*
X124043000Y-71380100D01*
X120920000Y-60460000D02*
X124043000Y-63582900D01*
%TO.N,Net-(J2-Pin_5)*%
X116040000Y-73191700D02*
X116040000Y-72040000D01*
X116285000Y-73191700D02*
X116040000Y-73191700D01*
X117596000Y-74503200D02*
X116285000Y-73191700D01*
X117596000Y-90715200D02*
X117596000Y-74503200D01*
X128831000Y-101950000D02*
X117596000Y-90715200D01*
X129236000Y-101950000D02*
X128831000Y-101950000D01*
X136350000Y-109064000D02*
X129236000Y-101950000D01*
X136350000Y-125460000D02*
X136350000Y-109064000D01*
%TD*%
M02*
