%TF.GenerationSoftware,KiCad,Pcbnew,8.0.5*%
%TF.CreationDate,2026-04-04T12:35:23-07:00*%
%TF.ProjectId,irkem_crapinetPreamp_v0,69726b65-6d5f-4637-9261-70696e657450,rev?*%
%TF.SameCoordinates,Original*%
%TF.FileFunction,Profile,NP*%
%FSLAX46Y46*%
G04 Gerber Fmt 4.6, Leading zero omitted, Abs format (unit mm)*
G04 Created by KiCad (PCBNEW 8.0.5) date 2026-04-04 12:35:23*
%MOMM*%
%LPD*%
G01*
G04 APERTURE LIST*
%TA.AperFunction,Profile*%
%ADD10C,0.050000*%
%TD*%
G04 APERTURE END LIST*
D10*
X100000000Y-50000000D02*
X220350000Y-50000000D01*
X220350000Y-149960000D01*
X100000000Y-149960000D01*
X100000000Y-50000000D01*
X106500000Y-55000000D02*
G75*
G02*
X103500000Y-55000000I-1500000J0D01*
G01*
X103500000Y-55000000D02*
G75*
G02*
X106500000Y-55000000I1500000J0D01*
G01*
X104000000Y-120000000D02*
G75*
G02*
X101000000Y-120000000I-1500000J0D01*
G01*
X101000000Y-120000000D02*
G75*
G02*
X104000000Y-120000000I1500000J0D01*
G01*
X216500000Y-145000000D02*
G75*
G02*
X213500000Y-145000000I-1500000J0D01*
G01*
X213500000Y-145000000D02*
G75*
G02*
X216500000Y-145000000I1500000J0D01*
G01*
X216500000Y-55000000D02*
G75*
G02*
X213500000Y-55000000I-1500000J0D01*
G01*
X213500000Y-55000000D02*
G75*
G02*
X216500000Y-55000000I1500000J0D01*
G01*
X182500000Y-84000000D02*
G75*
G02*
X179500000Y-84000000I-1500000J0D01*
G01*
X179500000Y-84000000D02*
G75*
G02*
X182500000Y-84000000I1500000J0D01*
G01*
X141500000Y-120000000D02*
G75*
G02*
X138500000Y-120000000I-1500000J0D01*
G01*
X138500000Y-120000000D02*
G75*
G02*
X141500000Y-120000000I1500000J0D01*
G01*
X219500000Y-120000000D02*
G75*
G02*
X216500000Y-120000000I-1500000J0D01*
G01*
X216500000Y-120000000D02*
G75*
G02*
X219500000Y-120000000I1500000J0D01*
G01*
X219500000Y-84000000D02*
G75*
G02*
X216500000Y-84000000I-1500000J0D01*
G01*
X216500000Y-84000000D02*
G75*
G02*
X219500000Y-84000000I1500000J0D01*
G01*
X104000000Y-84000000D02*
G75*
G02*
X101000000Y-84000000I-1500000J0D01*
G01*
X101000000Y-84000000D02*
G75*
G02*
X104000000Y-84000000I1500000J0D01*
G01*
X106500000Y-145000000D02*
G75*
G02*
X103500000Y-145000000I-1500000J0D01*
G01*
X103500000Y-145000000D02*
G75*
G02*
X106500000Y-145000000I1500000J0D01*
G01*
X182500000Y-120000000D02*
G75*
G02*
X179500000Y-120000000I-1500000J0D01*
G01*
X179500000Y-120000000D02*
G75*
G02*
X182500000Y-120000000I1500000J0D01*
G01*
X141500000Y-84000000D02*
G75*
G02*
X138500000Y-84000000I-1500000J0D01*
G01*
X138500000Y-84000000D02*
G75*
G02*
X141500000Y-84000000I1500000J0D01*
G01*
M02*
